AsbirSans-TextRegular.ufo
<glyph name="exclam" format="2">
  <advance width="589"/>
  <unicode hex="0021"/>
  <outline>
    <contour>
      <point x="204" y="479" type="line"/>
      <point x="383" y="479" type="line"/>
      <point x="396" y="1490" type="line"/>
      <point x="192" y="1490" type="line"/>
    </contour>
    <contour>
      <point x="295" y="-13" type="curve" smooth="yes"/>
      <point x="369" y="-13"/>
      <point x="429" y="47"/>
      <point x="429" y="121" type="curve" smooth="yes"/>
      <point x="429" y="196"/>
      <point x="369" y="256"/>
      <point x="295" y="256" type="curve" smooth="yes"/>
      <point x="220" y="256"/>
      <point x="160" y="196"/>
      <point x="160" y="121" type="curve" smooth="yes"/>
      <point x="160" y="47"/>
      <point x="220" y="-13"/>
    </contour>
  </outline>
</glyph>
<glyph name="numbersign" format="2">
  <advance width="1297"/>
  <unicode hex="0023"/>
  <outline>
    <contour>
      <point x="711" y="0" type="line"/>
      <point x="864" y="0" type="line"/>
      <point x="1108" y="1490" type="line"/>
      <point x="957" y="1490" type="line"/>
    </contour>
    <contour>
      <point x="34" y="411" type="line"/>
      <point x="1150" y="411" type="line"/>
      <point x="1175" y="561" type="line"/>
      <point x="59" y="561" type="line"/>
    </contour>
    <contour>
      <point x="189" y="0" type="line"/>
      <point x="340" y="0" type="line"/>
      <point x="584" y="1490" type="line"/>
      <point x="433" y="1490" type="line"/>
    </contour>
    <contour>
      <point x="122" y="927" type="line"/>
      <point x="1238" y="927" type="line"/>
      <point x="1261" y="1079" type="line"/>
      <point x="147" y="1079" type="line"/>
    </contour>
  </outline>
</glyph>
<glyph name="dollar" format="2">
  <advance width="1314"/>
  <unicode hex="0024"/>
  <anchor x="658" y="0" name="bottom"/>
  <anchor x="658" y="0" name="cedilla"/>
  <anchor x="656" y="1490" name="top"/>
  <outline>
    <contour>
      <point x="597" y="-218" type="line"/>
      <point x="717" y="-218" type="line"/>
      <point x="717" y="1708" type="line"/>
      <point x="597" y="1708" type="line"/>
    </contour>
    <component base="S"/>
  </outline>
</glyph>
<glyph name="ampersand" format="2">
  <advance width="1319"/>
  <unicode hex="0026"/>
  <outline>
    <contour>
      <point x="580" y="-20" type="curve"/>
      <point x="722" y="-20"/>
      <point x="881" y="31"/>
      <point x="979" y="137" type="curve"/>
      <point x="1015" y="182" type="line"/>
      <point x="1073" y="237"/>
      <point x="1199" y="362"/>
      <point x="1199" y="658" type="curve"/>
      <point x="1026" y="658" type="line"/>
      <point x="1026" y="339"/>
      <point x="803" y="137"/>
      <point x="567" y="137" type="curve" smooth="yes"/>
      <point x="402" y="137"/>
      <point x="289" y="236"/>
      <point x="289" y="383" type="curve" smooth="yes"/>
      <point x="289" y="475"/>
      <point x="333" y="546"/>
      <point x="456" y="637" type="curve" smooth="yes"/>
      <point x="754" y="858" type="line" smooth="yes"/>
      <point x="870" y="944"/>
      <point x="952" y="1046"/>
      <point x="952" y="1183" type="curve" smooth="yes"/>
      <point x="952" y="1360"/>
      <point x="814" y="1504"/>
      <point x="590" y="1504" type="curve" smooth="yes"/>
      <point x="369" y="1504"/>
      <point x="225" y="1364"/>
      <point x="225" y="1167" type="curve" smooth="yes"/>
      <point x="225" y="988"/>
      <point x="344" y="871"/>
      <point x="505" y="678" type="curve" smooth="yes"/>
      <point x="1070" y="0" type="line"/>
      <point x="1287" y="0" type="line"/>
      <point x="601" y="832" type="line" smooth="yes"/>
      <point x="489" y="968"/>
      <point x="406" y="1056"/>
      <point x="406" y="1168" type="curve" smooth="yes"/>
      <point x="406" y="1275"/>
      <point x="482" y="1349"/>
      <point x="595" y="1349" type="curve" smooth="yes"/>
      <point x="703" y="1349"/>
      <point x="771" y="1281"/>
      <point x="771" y="1186" type="curve" smooth="yes"/>
      <point x="771" y="1081"/>
      <point x="689" y="1020"/>
      <point x="635" y="980" type="curve" smooth="yes"/>
      <point x="414" y="817" type="line" smooth="yes"/>
      <point x="235" y="685"/>
      <point x="104" y="584"/>
      <point x="104" y="389" type="curve" smooth="yes"/>
      <point x="104" y="159"/>
      <point x="285" y="-20"/>
    </contour>
  </outline>
</glyph>
<glyph name="quotesingle" format="2">
  <advance width="614"/>
  <unicode hex="0027"/>
  <outline>
    <contour>
      <point x="232" y="923" type="line"/>
      <point x="382" y="923" type="line"/>
      <point x="404" y="1490" type="line"/>
      <point x="210" y="1490" type="line"/>
    </contour>
  </outline>
</glyph>
<glyph name="parenleft" format="2">
  <advance width="747"/>
  <unicode hex="0028"/>
  <outline>
    <contour>
      <point x="218" y="607" type="curve" smooth="yes"/>
      <point x="218" y="315"/>
      <point x="306" y="10"/>
      <point x="476" y="-279" type="curve"/>
      <point x="651" y="-279" type="line"/>
      <point x="479" y="76"/>
      <point x="401" y="342"/>
      <point x="401" y="607" type="curve" smooth="yes"/>
      <point x="401" y="899"/>
      <point x="496" y="1266"/>
      <point x="651" y="1581" type="curve"/>
      <point x="476" y="1581" type="line"/>
      <point x="326" y="1334"/>
      <point x="218" y="932"/>
    </contour>
  </outline>
</glyph>
<glyph name="parenright" format="2">
  <advance width="747"/>
  <unicode hex="0029"/>
  <outline>
    <contour>
      <point x="96" y="-279" type="curve"/>
      <point x="271" y="-279" type="line"/>
      <point x="438" y="5"/>
      <point x="529" y="310"/>
      <point x="529" y="607" type="curve" smooth="yes"/>
      <point x="529" y="931"/>
      <point x="421" y="1335"/>
      <point x="271" y="1581" type="curve"/>
      <point x="96" y="1581" type="line"/>
      <point x="251" y="1266"/>
      <point x="346" y="899"/>
      <point x="346" y="607" type="curve" smooth="yes"/>
      <point x="346" y="350"/>
      <point x="273" y="86"/>
    </contour>
  </outline>
</glyph>
<glyph name="asterisk" format="2">
  <advance width="1026"/>
  <unicode hex="002A"/>
  <outline>
    <contour>
      <point x="441" y="652" type="line"/>
      <point x="585" y="652" type="line"/>
      <point x="573" y="969" type="line"/>
      <point x="840" y="798" type="line"/>
      <point x="912" y="924" type="line"/>
      <point x="630" y="1070" type="line"/>
      <point x="912" y="1216" type="line"/>
      <point x="840" y="1344" type="line"/>
      <point x="573" y="1173" type="line"/>
      <point x="585" y="1490" type="line"/>
      <point x="441" y="1490" type="line"/>
      <point x="454" y="1173" type="line"/>
      <point x="186" y="1344" type="line"/>
      <point x="114" y="1216" type="line"/>
      <point x="396" y="1070" type="line"/>
      <point x="114" y="924" type="line"/>
      <point x="186" y="798" type="line"/>
      <point x="454" y="969" type="line"/>
    </contour>
  </outline>
</glyph>
<glyph name="plus" format="2">
  <advance width="1355"/>
  <unicode hex="002B"/>
  <outline>
    <contour>
      <point x="593" y="100" type="line"/>
      <point x="762" y="100" type="line"/>
      <point x="762" y="1066" type="line"/>
      <point x="593" y="1066" type="line"/>
    </contour>
    <contour>
      <point x="195" y="504" type="line"/>
      <point x="1160" y="504" type="line"/>
      <point x="1160" y="663" type="line"/>
      <point x="195" y="663" type="line"/>
    </contour>
  </outline>
</glyph>
<glyph name="hyphen" format="2">
  <advance width="942"/>
  <unicode hex="002D"/>
  <outline>
    <contour>
      <point x="798" y="719" type="line"/>
      <point x="144" y="719" type="line"/>
      <point x="144" y="553" type="line"/>
      <point x="798" y="553" type="line"/>
    </contour>
  </outline>
</glyph>
<glyph name="period" format="2">
  <advance width="590"/>
  <unicode hex="002E"/>
  <outline>
    <contour>
      <point x="295" y="-13" type="curve" smooth="yes"/>
      <point x="370" y="-13"/>
      <point x="430" y="47"/>
      <point x="430" y="122" type="curve" smooth="yes"/>
      <point x="430" y="197"/>
      <point x="370" y="257"/>
      <point x="295" y="257" type="curve" smooth="yes"/>
      <point x="220" y="257"/>
      <point x="160" y="197"/>
      <point x="160" y="122" type="curve" smooth="yes"/>
      <point x="160" y="47"/>
      <point x="220" y="-13"/>
    </contour>
  </outline>
</glyph>
<glyph name="slash" format="2">
  <advance width="738"/>
  <unicode hex="002F"/>
  <outline>
    <contour>
      <point x="692" y="1560" type="line"/>
      <point x="526" y="1560" type="line"/>
      <point x="46" y="-224" type="line"/>
      <point x="212" y="-224" type="line"/>
    </contour>
  </outline>
</glyph>
<glyph name="zero" format="2">
  <advance width="1292"/>
  <unicode hex="0030"/>
  <anchor x="646" y="745" name="center"/>
  <anchor x="646" y="1490" name="top"/>
  <outline>
    <contour>
      <point x="646" y="-20" type="curve" smooth="yes"/>
      <point x="979" y="-20"/>
      <point x="1170" y="259"/>
      <point x="1170" y="744" type="curve" smooth="yes"/>
      <point x="1170" y="1227"/>
      <point x="976" y="1510"/>
      <point x="646" y="1510" type="curve" smooth="yes"/>
      <point x="316" y="1510"/>
      <point x="122" y="1227"/>
      <point x="122" y="744" type="curve" smooth="yes"/>
      <point x="122" y="258"/>
      <point x="314" y="-20"/>
    </contour>
    <contour>
      <point x="646" y="146" type="curve" smooth="yes"/>
      <point x="428" y="146"/>
      <point x="305" y="366"/>
      <point x="305" y="744" type="curve" smooth="yes"/>
      <point x="305" y="1123"/>
      <point x="428" y="1345"/>
      <point x="646" y="1345" type="curve" smooth="yes"/>
      <point x="864" y="1345"/>
      <point x="987" y="1124"/>
      <point x="987" y="744" type="curve" smooth="yes"/>
      <point x="987" y="366"/>
      <point x="864" y="146"/>
    </contour>
  </outline>
</glyph>
<glyph name="one" format="2">
  <advance width="816"/>
  <unicode hex="0031"/>
  <outline>
    <contour>
      <point x="449" y="0" type="line"/>
      <point x="636" y="0" type="line"/>
      <point x="636" y="1490" type="line"/>
      <point x="473" y="1490" type="line"/>
      <point x="424" y="1358"/>
      <point x="288" y="1266"/>
      <point x="132" y="1266" type="curve" smooth="yes"/>
      <point x="126" y="1266" type="line"/>
      <point x="126" y="1109" type="line"/>
      <point x="294" y="1109"/>
      <point x="425" y="1173"/>
      <point x="463" y="1243" type="curve"/>
      <point x="449" y="1253" type="line"/>
    </contour>
  </outline>
</glyph>
<glyph name="two" format="2">
  <advance width="1249"/>
  <unicode hex="0032"/>
  <anchor x="697" y="634" name="cross"/>
  <anchor x="624" y="1490" name="top"/>
  <outline>
    <contour>
      <point x="154" y="0" type="line"/>
      <point x="1103" y="0" type="line"/>
      <point x="1103" y="167" type="line"/>
      <point x="416" y="167" type="line"/>
      <point x="416" y="179" type="line"/>
      <point x="742" y="526" type="line" smooth="yes"/>
      <point x="1005" y="806"/>
      <point x="1078" y="933"/>
      <point x="1078" y="1094" type="curve" smooth="yes"/>
      <point x="1078" y="1327"/>
      <point x="889" y="1510"/>
      <point x="623" y="1510" type="curve" smooth="yes"/>
      <point x="358" y="1510"/>
      <point x="158" y="1331"/>
      <point x="158" y="1067" type="curve"/>
      <point x="340" y="1067" type="line"/>
      <point x="340" y="1235"/>
      <point x="448" y="1345"/>
      <point x="618" y="1345" type="curve" smooth="yes"/>
      <point x="777" y="1345"/>
      <point x="898" y="1248"/>
      <point x="898" y="1092" type="curve" smooth="yes"/>
      <point x="898" y="955"/>
      <point x="814" y="853"/>
      <point x="649" y="674" type="curve" smooth="yes"/>
      <point x="154" y="137" type="line"/>
    </contour>
  </outline>
</glyph>
<glyph name="three" format="2">
  <advance width="1265"/>
  <unicode hex="0033"/>
  <anchor x="634" y="1490" name="top"/>
  <outline>
    <contour>
      <point x="635" y="-20" type="curve" smooth="yes"/>
      <point x="927" y="-20"/>
      <point x="1143" y="161"/>
      <point x="1143" y="405" type="curve" smooth="yes"/>
      <point x="1143" y="593"/>
      <point x="1032" y="731"/>
      <point x="842" y="762" type="curve"/>
      <point x="842" y="774" type="line"/>
      <point x="994" y="819"/>
      <point x="1089" y="942"/>
      <point x="1089" y="1110" type="curve" smooth="yes"/>
      <point x="1089" y="1322"/>
      <point x="919" y="1510"/>
      <point x="641" y="1510" type="curve" smooth="yes"/>
      <point x="379" y="1510"/>
      <point x="165" y="1349"/>
      <point x="157" y="1115" type="curve"/>
      <point x="340" y="1115" type="line"/>
      <point x="346" y="1260"/>
      <point x="485" y="1345"/>
      <point x="637" y="1345" type="curve" smooth="yes"/>
      <point x="799" y="1345"/>
      <point x="903" y="1248"/>
      <point x="903" y="1100" type="curve" smooth="yes"/>
      <point x="903" y="946"/>
      <point x="783" y="846"/>
      <point x="609" y="846" type="curve" smooth="yes"/>
      <point x="488" y="846" type="line"/>
      <point x="488" y="681" type="line"/>
      <point x="609" y="681" type="line" smooth="yes"/>
      <point x="830" y="681"/>
      <point x="955" y="568"/>
      <point x="955" y="407" type="curve" smooth="yes"/>
      <point x="955" y="252"/>
      <point x="819" y="147"/>
      <point x="632" y="147" type="curve" smooth="yes"/>
      <point x="462" y="147"/>
      <point x="328" y="234"/>
      <point x="317" y="376" type="curve"/>
      <point x="125" y="376" type="line"/>
      <point x="135" y="140"/>
      <point x="343" y="-20"/>
    </contour>
  </outline>
</glyph>
<glyph name="four" format="2">
  <advance width="1323"/>
  <unicode hex="0034"/>
  <outline>
    <contour>
      <point x="120" y="303" type="line"/>
      <point x="1205" y="303" type="line"/>
      <point x="1205" y="470" type="line"/>
      <point x="321" y="470" type="line"/>
      <point x="321" y="482" type="line"/>
      <point x="900" y="1490" type="line"/>
      <point x="713" y="1490" type="line"/>
      <point x="120" y="458" type="line"/>
    </contour>
    <contour>
      <point x="822" y="0" type="line"/>
      <point x="1002" y="0" type="line"/>
      <point x="1002" y="930" type="line"/>
      <point x="822" y="930" type="line"/>
      <point x="822" y="422" type="line"/>
      <point x="822" y="349" type="line"/>
    </contour>
  </outline>
</glyph>
<glyph name="five" format="2">
  <advance width="1215"/>
  <unicode hex="0035"/>
  <outline>
    <contour>
      <point x="596" y="-20" type="curve" smooth="yes"/>
      <point x="883" y="-20"/>
      <point x="1093" y="190"/>
      <point x="1093" y="476" type="curve" smooth="yes"/>
      <point x="1093" y="764"/>
      <point x="892" y="975"/>
      <point x="619" y="975" type="curve" smooth="yes"/>
      <point x="516" y="975"/>
      <point x="417" y="939"/>
      <point x="356" y="888" type="curve"/>
      <point x="348" y="888" type="line"/>
      <point x="399" y="1323" type="line"/>
      <point x="1023" y="1323" type="line"/>
      <point x="1023" y="1490" type="line"/>
      <point x="239" y="1490" type="line"/>
      <point x="151" y="752" type="line"/>
      <point x="329" y="730" type="line"/>
      <point x="388" y="775"/>
      <point x="492" y="808"/>
      <point x="584" y="808" type="curve" smooth="yes"/>
      <point x="771" y="808"/>
      <point x="907" y="665"/>
      <point x="907" y="473" type="curve" smooth="yes"/>
      <point x="907" y="284"/>
      <point x="776" y="147"/>
      <point x="596" y="147" type="curve" smooth="yes"/>
      <point x="446" y="147"/>
      <point x="324" y="243"/>
      <point x="312" y="376" type="curve"/>
      <point x="128" y="376" type="line"/>
      <point x="138" y="148"/>
      <point x="334" y="-20"/>
    </contour>
  </outline>
</glyph>
<glyph name="six" format="2">
  <advance width="1270"/>
  <unicode hex="0036"/>
  <outline>
    <contour>
      <point x="646" y="-20" type="curve" smooth="yes"/>
      <point x="950" y="-20"/>
      <point x="1148" y="203"/>
      <point x="1148" y="481" type="curve" smooth="yes"/>
      <point x="1148" y="769"/>
      <point x="936" y="974"/>
      <point x="681" y="974" type="curve" smooth="yes"/>
      <point x="526" y="974"/>
      <point x="394" y="900"/>
      <point x="314" y="776" type="curve"/>
      <point x="302" y="776" type="line"/>
      <point x="302" y="1134"/>
      <point x="440" y="1342"/>
      <point x="669" y="1342" type="curve" smooth="yes"/>
      <point x="824" y="1342"/>
      <point x="917" y="1244"/>
      <point x="950" y="1115" type="curve"/>
      <point x="1136" y="1115" type="line"/>
      <point x="1100" y="1349"/>
      <point x="919" y="1510"/>
      <point x="669" y="1510" type="curve" smooth="yes"/>
      <point x="331" y="1510"/>
      <point x="122" y="1212"/>
      <point x="122" y="688" type="curve" smooth="yes"/>
      <point x="122" y="139"/>
      <point x="397" y="-20"/>
    </contour>
    <contour>
      <point x="646" y="147" type="curve" smooth="yes"/>
      <point x="463" y="147"/>
      <point x="329" y="303"/>
      <point x="329" y="479" type="curve" smooth="yes"/>
      <point x="329" y="653"/>
      <point x="470" y="809"/>
      <point x="651" y="809" type="curve" smooth="yes"/>
      <point x="831" y="809"/>
      <point x="964" y="663"/>
      <point x="964" y="481" type="curve" smooth="yes"/>
      <point x="964" y="295"/>
      <point x="825" y="147"/>
    </contour>
  </outline>
</glyph>
<glyph name="seven" format="2">
  <advance width="1159"/>
  <unicode hex="0037"/>
  <outline>
    <contour>
      <point x="200" y="0" type="line"/>
      <point x="400" y="0" type="line"/>
      <point x="1061" y="1313" type="line"/>
      <point x="1061" y="1490" type="line"/>
      <point x="98" y="1490" type="line"/>
      <point x="98" y="1323" type="line"/>
      <point x="862" y="1323" type="line"/>
      <point x="862" y="1311" type="line"/>
    </contour>
  </outline>
</glyph>
<glyph name="eight" format="2">
  <advance width="1267"/>
  <unicode hex="0038"/>
  <outline>
    <contour>
      <point x="633" y="-20" type="curve" smooth="yes"/>
      <point x="933" y="-20"/>
      <point x="1145" y="153"/>
      <point x="1145" y="396" type="curve" smooth="yes"/>
      <point x="1145" y="584"/>
      <point x="1016" y="744"/>
      <point x="854" y="774" type="curve"/>
      <point x="854" y="782" type="line"/>
      <point x="995" y="819"/>
      <point x="1089" y="956"/>
      <point x="1089" y="1114" type="curve" smooth="yes"/>
      <point x="1089" y="1341"/>
      <point x="894" y="1510"/>
      <point x="633" y="1510" type="curve" smooth="yes"/>
      <point x="368" y="1510"/>
      <point x="176" y="1341"/>
      <point x="176" y="1114" type="curve" smooth="yes"/>
      <point x="176" y="956"/>
      <point x="268" y="819"/>
      <point x="413" y="782" type="curve"/>
      <point x="413" y="774" type="line"/>
      <point x="246" y="744"/>
      <point x="122" y="584"/>
      <point x="122" y="396" type="curve" smooth="yes"/>
      <point x="122" y="153"/>
      <point x="330" y="-20"/>
    </contour>
    <contour>
      <point x="633" y="145" type="curve" smooth="yes"/>
      <point x="432" y="145"/>
      <point x="309" y="248"/>
      <point x="309" y="406" type="curve" smooth="yes"/>
      <point x="309" y="571"/>
      <point x="445" y="689"/>
      <point x="633" y="689" type="curve" smooth="yes"/>
      <point x="817" y="689"/>
      <point x="955" y="571"/>
      <point x="955" y="406" type="curve" smooth="yes"/>
      <point x="955" y="248"/>
      <point x="830" y="145"/>
    </contour>
    <contour>
      <point x="633" y="848" type="curve" smooth="yes"/>
      <point x="472" y="848"/>
      <point x="360" y="949"/>
      <point x="360" y="1100" type="curve" smooth="yes"/>
      <point x="360" y="1249"/>
      <point x="468" y="1346"/>
      <point x="633" y="1346" type="curve" smooth="yes"/>
      <point x="795" y="1346"/>
      <point x="905" y="1249"/>
      <point x="905" y="1100" type="curve" smooth="yes"/>
      <point x="905" y="949"/>
      <point x="790" y="848"/>
    </contour>
  </outline>
</glyph>
<glyph name="nine" format="2">
  <advance width="1270"/>
  <unicode hex="0039"/>
  <outline>
    <contour>
      <point x="603" y="-20" type="curve" smooth="yes"/>
      <point x="940" y="-20"/>
      <point x="1148" y="277"/>
      <point x="1148" y="804" type="curve" smooth="yes"/>
      <point x="1148" y="1352"/>
      <point x="873" y="1506"/>
      <point x="628" y="1510" type="curve" smooth="yes"/>
      <point x="322" y="1515"/>
      <point x="122" y="1288"/>
      <point x="122" y="1010" type="curve" smooth="yes"/>
      <point x="122" y="723"/>
      <point x="334" y="517"/>
      <point x="591" y="517" type="curve" smooth="yes"/>
      <point x="747" y="517"/>
      <point x="878" y="594"/>
      <point x="958" y="716" type="curve"/>
      <point x="970" y="716" type="line"/>
      <point x="970" y="355"/>
      <point x="830" y="148"/>
      <point x="603" y="148" type="curve" smooth="yes"/>
      <point x="446" y="148"/>
      <point x="353" y="247"/>
      <point x="322" y="379" type="curve"/>
      <point x="134" y="379" type="line"/>
      <point x="169" y="141"/>
      <point x="350" y="-20"/>
    </contour>
    <contour>
      <point x="619" y="683" type="curve" smooth="yes"/>
      <point x="439" y="683"/>
      <point x="308" y="828"/>
      <point x="308" y="1011" type="curve" smooth="yes"/>
      <point x="308" y="1195"/>
      <point x="445" y="1343"/>
      <point x="625" y="1343" type="curve" smooth="yes"/>
      <point x="808" y="1343"/>
      <point x="943" y="1186"/>
      <point x="943" y="1015" type="curve" smooth="yes"/>
      <point x="943" y="840"/>
      <point x="800" y="683"/>
    </contour>
  </outline>
</glyph>
<glyph name="less" format="2">
  <advance width="1355"/>
  <unicode hex="003C"/>
  <outline>
    <contour>
      <point x="174" y="520" type="line"/>
      <point x="1118" y="44" type="line"/>
      <point x="1118" y="238" type="line"/>
      <point x="400" y="579" type="line"/>
      <point x="406" y="569" type="line"/>
      <point x="406" y="597" type="line"/>
      <point x="400" y="585" type="line"/>
      <point x="1118" y="926" type="line"/>
      <point x="1118" y="1122" type="line"/>
      <point x="174" y="646" type="line"/>
    </contour>
  </outline>
</glyph>
<glyph name="equal" format="2">
  <advance width="1355"/>
  <unicode hex="003D"/>
  <outline>
    <contour>
      <point x="226" y="717" type="line"/>
      <point x="1130" y="717" type="line"/>
      <point x="1130" y="883" type="line"/>
      <point x="226" y="883" type="line"/>
    </contour>
    <contour>
      <point x="226" y="283" type="line"/>
      <point x="1130" y="283" type="line"/>
      <point x="1130" y="449" type="line"/>
      <point x="226" y="449" type="line"/>
    </contour>
  </outline>
</glyph>
<glyph name="greater" format="2">
  <advance width="1355"/>
  <unicode hex="003E"/>
  <outline>
    <contour>
      <point x="1181" y="520" type="line"/>
      <point x="1181" y="646" type="line"/>
      <point x="237" y="1122" type="line"/>
      <point x="237" y="926" type="line"/>
      <point x="956" y="585" type="line"/>
      <point x="949" y="597" type="line"/>
      <point x="949" y="569" type="line"/>
      <point x="956" y="579" type="line"/>
      <point x="237" y="238" type="line"/>
      <point x="237" y="44" type="line"/>
    </contour>
  </outline>
</glyph>
<glyph name="question" format="2">
  <advance width="1047"/>
  <unicode hex="003F"/>
  <outline>
    <contour>
      <point x="383" y="449" type="line"/>
      <point x="564" y="449" type="line"/>
      <point x="564" y="460" type="line" smooth="yes"/>
      <point x="564" y="637"/>
      <point x="613" y="686"/>
      <point x="742" y="765" type="curve" smooth="yes"/>
      <point x="871" y="844"/>
      <point x="945" y="956"/>
      <point x="945" y="1117" type="curve" smooth="yes"/>
      <point x="945" y="1345"/>
      <point x="777" y="1510"/>
      <point x="518" y="1510" type="curve" smooth="yes"/>
      <point x="282" y="1510"/>
      <point x="92" y="1366"/>
      <point x="82" y="1115" type="curve"/>
      <point x="272" y="1115" type="line"/>
      <point x="283" y="1281"/>
      <point x="400" y="1351"/>
      <point x="518" y="1351" type="curve" smooth="yes"/>
      <point x="653" y="1351"/>
      <point x="761" y="1263"/>
      <point x="761" y="1124" type="curve" smooth="yes"/>
      <point x="761" y="1008"/>
      <point x="693" y="927"/>
      <point x="605" y="874" type="curve" smooth="yes"/>
      <point x="467" y="791"/>
      <point x="383" y="733"/>
      <point x="383" y="460" type="curve" smooth="yes"/>
    </contour>
    <contour>
      <point x="476" y="-13" type="curve" smooth="yes"/>
      <point x="550" y="-13"/>
      <point x="610" y="47"/>
      <point x="610" y="121" type="curve" smooth="yes"/>
      <point x="610" y="196"/>
      <point x="550" y="256"/>
      <point x="476" y="256" type="curve" smooth="yes"/>
      <point x="401" y="256"/>
      <point x="341" y="196"/>
      <point x="341" y="121" type="curve" smooth="yes"/>
      <point x="341" y="47"/>
      <point x="401" y="-13"/>
    </contour>
  </outline>
</glyph>
<glyph name="at" format="2">
  <advance width="1978"/>
  <unicode hex="0040"/>
  <outline>
    <contour>
      <point x="1044" y="-395" type="curve" smooth="yes"/>
      <point x="1195" y="-395"/>
      <point x="1384" y="-352"/>
      <point x="1476" y="-313" type="curve"/>
      <point x="1433" y="-173" type="line"/>
      <point x="1374" y="-193"/>
      <point x="1210" y="-250"/>
      <point x="1051" y="-250" type="curve" smooth="yes"/>
      <point x="555" y="-250"/>
      <point x="289" y="28"/>
      <point x="289" y="520" type="curve" smooth="yes"/>
      <point x="289" y="1005"/>
      <point x="559" y="1294"/>
      <point x="1017" y="1294" type="curve" smooth="yes"/>
      <point x="1479" y="1294"/>
      <point x="1697" y="973"/>
      <point x="1697" y="642" type="curve" smooth="yes"/>
      <point x="1697" y="316"/>
      <point x="1662" y="171"/>
      <point x="1516" y="171" type="curve" smooth="yes"/>
      <point x="1430" y="171"/>
      <point x="1385" y="241"/>
      <point x="1385" y="321" type="curve" smooth="yes"/>
      <point x="1385" y="980" type="line"/>
      <point x="1227" y="980" type="line"/>
      <point x="1227" y="896" type="line"/>
      <point x="1217" y="896" type="line"/>
      <point x="1181" y="947"/>
      <point x="1093" y="1004"/>
      <point x="965" y="1004" type="curve" smooth="yes"/>
      <point x="726" y="1004"/>
      <point x="552" y="803"/>
      <point x="552" y="535" type="curve" smooth="yes"/>
      <point x="552" y="253"/>
      <point x="689" y="37"/>
      <point x="955" y="37" type="curve" smooth="yes"/>
      <point x="1106" y="37"/>
      <point x="1193" y="112"/>
      <point x="1228" y="198" type="curve"/>
      <point x="1236" y="198" type="line"/>
      <point x="1254" y="74"/>
      <point x="1408" y="30"/>
      <point x="1512" y="30" type="curve" smooth="yes"/>
      <point x="1820" y="30"/>
      <point x="1856" y="355"/>
      <point x="1856" y="640" type="curve" smooth="yes"/>
      <point x="1856" y="1046"/>
      <point x="1571" y="1438"/>
      <point x="1023" y="1438" type="curve" smooth="yes"/>
      <point x="458" y="1438"/>
      <point x="122" y="1094"/>
      <point x="122" y="525" type="curve" smooth="yes"/>
      <point x="122" y="-63"/>
      <point x="449" y="-395"/>
    </contour>
    <contour>
      <point x="962" y="190" type="curve" smooth="yes"/>
      <point x="776" y="190"/>
      <point x="707" y="358"/>
      <point x="707" y="543" type="curve" smooth="yes"/>
      <point x="707" y="710"/>
      <point x="803" y="853"/>
      <point x="967" y="853" type="curve" smooth="yes"/>
      <point x="1141" y="853"/>
      <point x="1233" y="782"/>
      <point x="1233" y="543" type="curve" smooth="yes"/>
      <point x="1233" y="306"/>
      <point x="1155" y="190"/>
    </contour>
  </outline>
</glyph>
<glyph name="B" format="2">
  <advance width="1340"/>
  <unicode hex="0042"/>
  <anchor x="651" y="0" name="bottom"/>
  <anchor x="343" y="422" name="cross"/>
  <anchor x="643" y="1490" name="top"/>
  <anchor x="180" y="1490" name="topl"/>
  <outline>
    <contour>
      <point x="180" y="0" type="line"/>
      <point x="725" y="0" type="line" smooth="yes"/>
      <point x="1076" y="0"/>
      <point x="1224" y="172"/>
      <point x="1224" y="397" type="curve" smooth="yes"/>
      <point x="1224" y="631"/>
      <point x="1061" y="759"/>
      <point x="922" y="768" type="curve"/>
      <point x="922" y="782" type="line"/>
      <point x="1052" y="817"/>
      <point x="1166" y="904"/>
      <point x="1166" y="1095" type="curve" smooth="yes"/>
      <point x="1166" y="1313"/>
      <point x="1019" y="1490"/>
      <point x="708" y="1490" type="curve" smooth="yes"/>
      <point x="180" y="1490" type="line"/>
    </contour>
    <contour>
      <point x="370" y="168" type="line"/>
      <point x="370" y="676" type="line"/>
      <point x="730" y="676" type="line" smooth="yes"/>
      <point x="921" y="676"/>
      <point x="1041" y="548"/>
      <point x="1041" y="399" type="curve" smooth="yes"/>
      <point x="1041" y="270"/>
      <point x="952" y="168"/>
      <point x="720" y="168" type="curve" smooth="yes"/>
    </contour>
    <contour>
      <point x="370" y="836" type="line"/>
      <point x="370" y="1322" type="line"/>
      <point x="704" y="1322" type="line" smooth="yes"/>
      <point x="897" y="1322"/>
      <point x="984" y="1220"/>
      <point x="984" y="1091" type="curve" smooth="yes"/>
      <point x="984" y="937"/>
      <point x="858" y="836"/>
      <point x="698" y="836" type="curve" smooth="yes"/>
    </contour>
  </outline>
</glyph>
<glyph name="C" format="2">
  <advance width="1496"/>
  <unicode hex="0043"/>
  <anchor x="782" y="-11" name="cedilla"/>
  <anchor x="781" y="745" name="center"/>
  <anchor x="783" y="1490" name="top"/>
  <anchor x="1384" y="1021" name="topr"/>
  <outline>
    <contour>
      <point x="783" y="-20" type="curve" smooth="yes"/>
      <point x="1088" y="-20"/>
      <point x="1332" y="166"/>
      <point x="1384" y="469" type="curve"/>
      <point x="1194" y="469" type="line"/>
      <point x="1152" y="266"/>
      <point x="978" y="156"/>
      <point x="783" y="156" type="curve" smooth="yes"/>
      <point x="516" y="156"/>
      <point x="307" y="363"/>
      <point x="307" y="744" type="curve" smooth="yes"/>
      <point x="307" y="1126"/>
      <point x="515" y="1334"/>
      <point x="783" y="1334" type="curve" smooth="yes"/>
      <point x="977" y="1334"/>
      <point x="1152" y="1225"/>
      <point x="1194" y="1021" type="curve"/>
      <point x="1384" y="1021" type="line"/>
      <point x="1331" y="1328"/>
      <point x="1085" y="1510"/>
      <point x="783" y="1510" type="curve" smooth="yes"/>
      <point x="401" y="1510"/>
      <point x="122" y="1217"/>
      <point x="122" y="744" type="curve" smooth="yes"/>
      <point x="122" y="272"/>
      <point x="401" y="-20"/>
    </contour>
  </outline>
</glyph>
<glyph name="D" format="2">
  <advance width="1478"/>
  <unicode hex="0044"/>
  <anchor x="628" y="0" name="bottom"/>
  <anchor x="399" y="745" name="cross"/>
  <anchor x="619" y="1490" name="top"/>
  <anchor x="180" y="1490" name="topl"/>
  <outline>
    <contour>
      <point x="645" y="0" type="line" smooth="yes"/>
      <point x="1099" y="0"/>
      <point x="1356" y="282"/>
      <point x="1356" y="748" type="curve" smooth="yes"/>
      <point x="1356" y="1210"/>
      <point x="1099" y="1490"/>
      <point x="664" y="1490" type="curve" smooth="yes"/>
      <point x="277" y="1490" type="line"/>
      <point x="277" y="1322" type="line"/>
      <point x="651" y="1322" type="line" smooth="yes"/>
      <point x="996" y="1322"/>
      <point x="1172" y="1106"/>
      <point x="1172" y="748" type="curve" smooth="yes"/>
      <point x="1172" y="386"/>
      <point x="996" y="168"/>
      <point x="633" y="168" type="curve" smooth="yes"/>
      <point x="285" y="168" type="line"/>
      <point x="285" y="0" type="line"/>
    </contour>
    <contour>
      <point x="370" y="1490" type="line"/>
      <point x="180" y="1490" type="line"/>
      <point x="180" y="0" type="line"/>
      <point x="370" y="0" type="line"/>
    </contour>
  </outline>
</glyph>
<glyph name="E" format="2">
  <advance width="1231"/>
  <unicode hex="0045"/>
  <anchor x="639" y="0" name="bottom"/>
  <anchor x="639" y="0" name="cedilla"/>
  <anchor x="1097" y="0" name="ogonek"/>
  <anchor x="180" y="1490" name="tonos"/>
  <anchor x="639" y="1490" name="top"/>
  <outline>
    <contour>
      <point x="180" y="0" type="line"/>
      <point x="1097" y="0" type="line"/>
      <point x="1097" y="168" type="line"/>
      <point x="370" y="168" type="line"/>
      <point x="370" y="668" type="line"/>
      <point x="1039" y="668" type="line"/>
      <point x="1039" y="836" type="line"/>
      <point x="370" y="836" type="line"/>
      <point x="370" y="1322" type="line"/>
      <point x="1088" y="1322" type="line"/>
      <point x="1088" y="1490" type="line"/>
      <point x="180" y="1490" type="line"/>
    </contour>
  </outline>
</glyph>
<glyph name="F" format="2">
  <advance width="1209"/>
  <unicode hex="0046"/>
  <anchor x="275" y="0" name="bottom"/>
  <anchor x="275" y="346" name="cross"/>
  <anchor x="180" y="0" name="lfthook"/>
  <anchor x="631" y="1490" name="top"/>
  <outline>
    <contour>
      <point x="180" y="0" type="line"/>
      <point x="370" y="0" type="line"/>
      <point x="370" y="644" type="line"/>
      <point x="1013" y="644" type="line"/>
      <point x="1013" y="812" type="line"/>
      <point x="370" y="812" type="line"/>
      <point x="370" y="1322" type="line"/>
      <point x="1081" y="1322" type="line"/>
      <point x="1081" y="1490" type="line"/>
      <point x="180" y="1490" type="line"/>
    </contour>
  </outline>
</glyph>
<glyph name="G" format="2">
  <advance width="1550"/>
  <unicode hex="0047"/>
  <anchor x="773" y="0" name="bottom"/>
  <anchor x="1151" y="392" name="cross"/>
  <anchor x="777" y="1490" name="top"/>
  <anchor x="1389" y="1023" name="topr"/>
  <outline>
    <contour>
      <point x="772" y="-20" type="curve" smooth="yes"/>
      <point x="1131" y="-20"/>
      <point x="1242" y="239"/>
      <point x="1242" y="482" type="curve" smooth="yes"/>
      <point x="1242" y="621" type="line"/>
      <point x="1216" y="621" type="line"/>
      <point x="1216" y="334"/>
      <point x="1053" y="156"/>
      <point x="789" y="156" type="curve" smooth="yes"/>
      <point x="515" y="156"/>
      <point x="307" y="364"/>
      <point x="307" y="744" type="curve" smooth="yes"/>
      <point x="307" y="1127"/>
      <point x="516" y="1334"/>
      <point x="778" y="1334" type="curve" smooth="yes"/>
      <point x="989" y="1334"/>
      <point x="1132" y="1214"/>
      <point x="1193" y="1023" type="curve"/>
      <point x="1389" y="1023" type="line"/>
      <point x="1335" y="1312"/>
      <point x="1092" y="1510"/>
      <point x="777" y="1510" type="curve" smooth="yes"/>
      <point x="395" y="1510"/>
      <point x="122" y="1217"/>
      <point x="122" y="744" type="curve" smooth="yes"/>
      <point x="122" y="273"/>
      <point x="394" y="-20"/>
    </contour>
    <contour>
      <point x="1251" y="0" type="line"/>
      <point x="1400" y="0" type="line"/>
      <point x="1400" y="749" type="line"/>
      <point x="827" y="749" type="line"/>
      <point x="827" y="583" type="line"/>
      <point x="1220" y="583" type="line"/>
      <point x="1220" y="373" type="line"/>
    </contour>
  </outline>
</glyph>
<glyph name="H" format="2">
  <advance width="1522"/>
  <unicode hex="0048"/>
  <anchor x="760" y="0" name="bottom"/>
  <anchor x="277" y="1" name="cedilla"/>
  <anchor x="1342" y="0" name="cyrtic"/>
  <anchor x="1152" y="0" name="lfthook"/>
  <anchor x="1342" y="0" name="right"/>
  <anchor x="180" y="1490" name="tonos"/>
  <anchor x="760" y="1490" name="top"/>
  <outline>
    <contour>
      <point x="180" y="0" type="line"/>
      <point x="370" y="0" type="line"/>
      <point x="370" y="678" type="line"/>
      <point x="1152" y="678" type="line"/>
      <point x="1152" y="0" type="line"/>
      <point x="1342" y="0" type="line"/>
      <point x="1342" y="1490" type="line"/>
      <point x="1152" y="1490" type="line"/>
      <point x="1152" y="846" type="line"/>
      <point x="370" y="846" type="line"/>
      <point x="370" y="1490" type="line"/>
      <point x="180" y="1490" type="line"/>
    </contour>
  </outline>
</glyph>
<glyph name="I" format="2">
  <advance width="550"/>
  <unicode hex="0049"/>
  <anchor x="275" y="0" name="bottom"/>
  <anchor x="275" y="769" name="cross"/>
  <anchor x="370" y="0" name="ogonek"/>
  <anchor x="386" y="0" name="right"/>
  <anchor x="180" y="1490" name="tonos"/>
  <anchor x="275" y="1490" name="top"/>
  <outline>
    <contour>
      <point x="425" y="1490" type="line"/>
      <point x="125" y="1490" type="line"/>
      <point x="125" y="1410" type="line"/>
      <point x="180" y="1410" type="line"/>
      <point x="180" y="80" type="line"/>
      <point x="125" y="80" type="line"/>
      <point x="125" y="0" type="line"/>
      <point x="425" y="0" type="line"/>
      <point x="425" y="80" type="line"/>
      <point x="370" y="80" type="line"/>
      <point x="370" y="1410" type="line"/>
      <point x="425" y="1410" type="line"/>
    </contour>
  </outline>
</glyph>
<glyph name="J" format="2">
  <advance width="1169"/>
  <unicode hex="004A"/>
  <anchor x="894" y="884" name="cross"/>
  <anchor x="894" y="1490" name="top"/>
  <outline>
    <contour>
      <point x="545" y="-20" type="curve" smooth="yes"/>
      <point x="808" y="-20"/>
      <point x="989" y="140"/>
      <point x="989" y="426" type="curve" smooth="yes"/>
      <point x="989" y="1490" type="line"/>
      <point x="799" y="1490" type="line"/>
      <point x="799" y="426" type="line" smooth="yes"/>
      <point x="799" y="244"/>
      <point x="697" y="147"/>
      <point x="545" y="147" type="curve" smooth="yes"/>
      <point x="392" y="147"/>
      <point x="290" y="244"/>
      <point x="290" y="426" type="curve" smooth="yes"/>
      <point x="290" y="506" type="line"/>
      <point x="100" y="506" type="line"/>
      <point x="100" y="426" type="line" smooth="yes"/>
      <point x="100" y="140"/>
      <point x="282" y="-20"/>
    </contour>
  </outline>
</glyph>
<glyph name="K" format="2">
  <advance width="1376"/>
  <unicode hex="004B"/>
  <anchor x="704" y="0" name="bottom"/>
  <anchor x="704" y="1490" name="top"/>
  <outline>
    <contour>
      <point x="310" y="426" type="line"/>
      <point x="672" y="809" type="line"/>
      <point x="682" y="808" type="line"/>
      <point x="1318" y="1490" type="line"/>
      <point x="1069" y="1490" type="line"/>
      <point x="624" y="1009" type="line" smooth="yes"/>
      <point x="512" y="888"/>
      <point x="411" y="768"/>
      <point x="310" y="629" type="curve"/>
    </contour>
    <contour>
      <point x="180" y="0" type="line"/>
      <point x="370" y="0" type="line"/>
      <point x="370" y="566" type="line"/>
      <point x="367" y="659" type="line"/>
      <point x="370" y="980" type="line"/>
      <point x="370" y="1490" type="line"/>
      <point x="180" y="1490" type="line"/>
    </contour>
    <contour>
      <point x="1094" y="0" type="line"/>
      <point x="1319" y="0" type="line"/>
      <point x="673" y="906" type="line"/>
      <point x="555" y="758" type="line"/>
    </contour>
  </outline>
</glyph>
<glyph name="L" format="2">
  <advance width="1158"/>
  <unicode hex="004C"/>
  <anchor x="619" y="0" name="bottom"/>
  <anchor x="399" y="745" name="cross"/>
  <anchor x="610" y="797" name="dot"/>
  <anchor x="622" y="1490" name="raccent"/>
  <anchor x="275" y="1490" name="top"/>
  <outline>
    <contour>
      <point x="180" y="0" type="line"/>
      <point x="1060" y="0" type="line"/>
      <point x="1060" y="168" type="line"/>
      <point x="370" y="168" type="line"/>
      <point x="370" y="1490" type="line"/>
      <point x="180" y="1490" type="line"/>
    </contour>
  </outline>
</glyph>
<glyph name="M" format="2">
  <advance width="1850"/>
  <unicode hex="004D"/>
  <anchor x="921" y="0" name="bottom"/>
  <anchor x="1666" y="0" name="cyrtic"/>
  <anchor x="921" y="1490" name="top"/>
  <outline>
    <contour>
      <point x="180" y="0" type="line"/>
      <point x="361" y="0" type="line"/>
      <point x="361" y="851" type="line" smooth="yes"/>
      <point x="361" y="982"/>
      <point x="356" y="1193"/>
      <point x="352" y="1342" type="curve"/>
      <point x="334" y="1342" type="line"/>
      <point x="400" y="1148"/>
      <point x="467" y="944"/>
      <point x="504" y="851" type="curve" smooth="yes"/>
      <point x="842" y="0" type="line"/>
      <point x="1007" y="0" type="line"/>
      <point x="1340" y="851" type="line" smooth="yes"/>
      <point x="1378" y="948"/>
      <point x="1450" y="1157"/>
      <point x="1507" y="1342" type="curve"/>
      <point x="1491" y="1342" type="line"/>
      <point x="1487" y="1175"/>
      <point x="1483" y="974"/>
      <point x="1483" y="851" type="curve" smooth="yes"/>
      <point x="1483" y="0" type="line"/>
      <point x="1670" y="0" type="line"/>
      <point x="1670" y="1490" type="line"/>
      <point x="1399" y="1490" type="line"/>
      <point x="1037" y="550" type="line" smooth="yes"/>
      <point x="1002" y="459"/>
      <point x="941" y="260"/>
      <point x="905" y="138" type="curve"/>
      <point x="947" y="138" type="line"/>
      <point x="912" y="268"/>
      <point x="851" y="463"/>
      <point x="817" y="550" type="curve" smooth="yes"/>
      <point x="450" y="1490" type="line"/>
      <point x="180" y="1490" type="line"/>
    </contour>
  </outline>
</glyph>
<glyph name="N" format="2">
  <advance width="1543"/>
  <unicode hex="004E"/>
  <anchor x="772" y="0" name="bottom"/>
  <anchor x="180" y="0" name="lfthook"/>
  <anchor x="1363" y="0" name="lfthook2"/>
  <anchor x="772" y="1490" name="top"/>
  <outline>
    <contour>
      <point x="180" y="0" type="line"/>
      <point x="371" y="0" type="line"/>
      <point x="371" y="850" type="line" smooth="yes"/>
      <point x="371" y="930"/>
      <point x="362" y="1107"/>
      <point x="353" y="1329" type="curve"/>
      <point x="318" y="1329" type="line"/>
      <point x="460" y="1076"/>
      <point x="522" y="966"/>
      <point x="597" y="848" type="curve" smooth="yes"/>
      <point x="1137" y="0" type="line"/>
      <point x="1363" y="0" type="line"/>
      <point x="1363" y="1490" type="line"/>
      <point x="1173" y="1490" type="line"/>
      <point x="1173" y="576" type="line" smooth="yes"/>
      <point x="1173" y="483"/>
      <point x="1174" y="327"/>
      <point x="1192" y="155" type="curve"/>
      <point x="1219" y="155" type="line"/>
      <point x="1142" y="321"/>
      <point x="1057" y="463"/>
      <point x="1010" y="537" type="curve" smooth="yes"/>
      <point x="404" y="1490" type="line"/>
      <point x="180" y="1490" type="line"/>
    </contour>
  </outline>
</glyph>
<glyph name="O" format="2">
  <advance width="1566"/>
  <unicode hex="004F"/>
  <anchor x="784" y="0" name="bottom"/>
  <anchor x="784" y="745" name="center"/>
  <anchor x="1444" y="744" name="ogonek"/>
  <anchor x="262" y="1490" name="tonos"/>
  <anchor x="784" y="1490" name="top"/>
  <anchor x="784" y="1510" name="tophorn"/>
  <outline>
    <contour>
      <point x="784" y="-20" type="curve" smooth="yes"/>
      <point x="1166" y="-20"/>
      <point x="1444" y="272"/>
      <point x="1444" y="744" type="curve" smooth="yes"/>
      <point x="1444" y="1217"/>
      <point x="1166" y="1510"/>
      <point x="784" y="1510" type="curve" smooth="yes"/>
      <point x="402" y="1510"/>
      <point x="122" y="1217"/>
      <point x="122" y="744" type="curve" smooth="yes"/>
      <point x="122" y="272"/>
      <point x="402" y="-20"/>
    </contour>
    <contour>
      <point x="784" y="156" type="curve" smooth="yes"/>
      <point x="516" y="156"/>
      <point x="307" y="364"/>
      <point x="307" y="744" type="curve" smooth="yes"/>
      <point x="307" y="1126"/>
      <point x="516" y="1334"/>
      <point x="784" y="1334" type="curve" smooth="yes"/>
      <point x="1050" y="1334"/>
      <point x="1259" y="1127"/>
      <point x="1259" y="744" type="curve" smooth="yes"/>
      <point x="1259" y="363"/>
      <point x="1050" y="156"/>
    </contour>
  </outline>
</glyph>
<glyph name="P" format="2">
  <advance width="1308"/>
  <unicode hex="0050"/>
  <anchor x="147" y="1490" name="tonos"/>
  <anchor x="652" y="1490" name="top"/>
  <anchor x="180" y="1490" name="topl"/>
  <outline>
    <contour>
      <point x="180" y="0" type="line"/>
      <point x="370" y="0" type="line"/>
      <point x="370" y="1323" type="line"/>
      <point x="680" y="1323" type="line" smooth="yes"/>
      <point x="918" y="1323"/>
      <point x="1009" y="1192"/>
      <point x="1009" y="1016" type="curve" smooth="yes"/>
      <point x="1009" y="839"/>
      <point x="918" y="706"/>
      <point x="682" y="706" type="curve" smooth="yes"/>
      <point x="330" y="706" type="line"/>
      <point x="330" y="539" type="line"/>
      <point x="691" y="539" type="line" smooth="yes"/>
      <point x="1038" y="539"/>
      <point x="1198" y="750"/>
      <point x="1198" y="1016" type="curve" smooth="yes"/>
      <point x="1198" y="1281"/>
      <point x="1038" y="1490"/>
      <point x="690" y="1490" type="curve" smooth="yes"/>
      <point x="180" y="1490" type="line"/>
    </contour>
  </outline>
</glyph>
<glyph name="Q" format="2">
  <advance width="1566"/>
  <unicode hex="0051"/>
  <anchor x="784" y="0" name="bottom"/>
  <anchor x="784" y="745" name="center"/>
  <anchor x="1444" y="744" name="ogonek"/>
  <anchor x="262" y="1490" name="tonos"/>
  <anchor x="784" y="1490" name="top"/>
  <anchor x="784" y="1510" name="tophorn"/>
  <outline>
    <contour>
      <point x="722" y="466" type="line"/>
      <point x="974" y="134" type="line"/>
      <point x="1016" y="78" type="line"/>
      <point x="1178" y="-140" type="line"/>
      <point x="1376" y="-140" type="line"/>
      <point x="1128" y="190" type="line"/>
      <point x="1086" y="248" type="line"/>
      <point x="920" y="466" type="line"/>
    </contour>
    <component base="O"/>
  </outline>
</glyph>
<glyph name="R" format="2">
  <advance width="1318"/>
  <unicode hex="0052"/>
  <anchor x="677" y="0" name="bottom"/>
  <anchor x="651" y="1490" name="top"/>
  <outline>
    <contour>
      <point x="180" y="0" type="line"/>
      <point x="370" y="0" type="line"/>
      <point x="370" y="1323" type="line"/>
      <point x="680" y="1323" type="line" smooth="yes"/>
      <point x="917" y="1323"/>
      <point x="1009" y="1207"/>
      <point x="1009" y="1030" type="curve" smooth="yes"/>
      <point x="1009" y="855"/>
      <point x="917" y="747"/>
      <point x="682" y="747" type="curve" smooth="yes"/>
      <point x="286" y="747" type="line"/>
      <point x="286" y="578" type="line"/>
      <point x="691" y="578" type="line" smooth="yes"/>
      <point x="1038" y="578"/>
      <point x="1198" y="764"/>
      <point x="1198" y="1030" type="curve" smooth="yes"/>
      <point x="1198" y="1296"/>
      <point x="1038" y="1490"/>
      <point x="690" y="1490" type="curve" smooth="yes"/>
      <point x="180" y="1490" type="line"/>
    </contour>
    <contour>
      <point x="1036" y="0" type="line"/>
      <point x="1256" y="0" type="line"/>
      <point x="890" y="671" type="line"/>
      <point x="676" y="671" type="line"/>
    </contour>
  </outline>
</glyph>
<glyph name="S" format="2">
  <advance width="1314"/>
  <unicode hex="0053"/>
  <anchor x="658" y="0" name="bottom"/>
  <anchor x="658" y="0" name="cedilla"/>
  <anchor x="656" y="1490" name="top"/>
  <outline>
    <contour>
      <point x="657" y="-26" type="curve" smooth="yes"/>
      <point x="1001" y="-26"/>
      <point x="1198" y="162"/>
      <point x="1198" y="406" type="curve" smooth="yes"/>
      <point x="1198" y="684"/>
      <point x="936" y="774"/>
      <point x="776" y="818" type="curve" smooth="yes"/>
      <point x="627" y="859" type="line" smooth="yes"/>
      <point x="518" y="889"/>
      <point x="343" y="944"/>
      <point x="343" y="1100" type="curve" smooth="yes"/>
      <point x="343" y="1240"/>
      <point x="471" y="1342"/>
      <point x="664" y="1342" type="curve" smooth="yes"/>
      <point x="841" y="1342"/>
      <point x="975" y="1259"/>
      <point x="992" y="1114" type="curve"/>
      <point x="1178" y="1114" type="line"/>
      <point x="1169" y="1339"/>
      <point x="964" y="1510"/>
      <point x="670" y="1510" type="curve" smooth="yes"/>
      <point x="382" y="1510"/>
      <point x="158" y="1343"/>
      <point x="158" y="1091" type="curve" smooth="yes"/>
      <point x="158" y="893"/>
      <point x="298" y="770"/>
      <point x="538" y="702" type="curve" smooth="yes"/>
      <point x="718" y="651" type="line" smooth="yes"/>
      <point x="877" y="606"/>
      <point x="1013" y="553"/>
      <point x="1013" y="409" type="curve" smooth="yes"/>
      <point x="1013" y="250"/>
      <point x="859" y="144"/>
      <point x="657" y="144" type="curve" smooth="yes"/>
      <point x="482" y="144"/>
      <point x="326" y="221"/>
      <point x="311" y="390" type="curve"/>
      <point x="116" y="390" type="line"/>
      <point x="133" y="140"/>
      <point x="334" y="-26"/>
    </contour>
  </outline>
</glyph>
<glyph name="T" format="2">
  <advance width="1322"/>
  <unicode hex="0054"/>
  <anchor x="662" y="0" name="bottom"/>
  <anchor x="757" y="0" name="bottomr"/>
  <anchor x="663" y="0" name="cedilla"/>
  <anchor x="662" y="763" name="cross"/>
  <anchor x="757" y="0" name="cyrtic"/>
  <anchor x="707" y="0" name="right"/>
  <anchor x="662" y="1490" name="top"/>
  <outline>
    <contour>
      <point x="98" y="1322" type="line"/>
      <point x="567" y="1322" type="line"/>
      <point x="567" y="0" type="line"/>
      <point x="757" y="0" type="line"/>
      <point x="757" y="1322" type="line"/>
      <point x="1224" y="1322" type="line"/>
      <point x="1224" y="1490" type="line"/>
      <point x="98" y="1490" type="line"/>
    </contour>
  </outline>
</glyph>
<glyph name="U" format="2">
  <advance width="1524"/>
  <unicode hex="0055"/>
  <anchor x="763" y="0" name="bottom"/>
  <anchor x="1344" y="507" name="ogonek"/>
  <anchor x="849" y="0" name="right"/>
  <anchor x="1154" y="1490" name="rtophorn"/>
  <anchor x="763" y="1490" name="top"/>
  <outline>
    <contour>
      <point x="763" y="-24" type="curve" smooth="yes"/>
      <point x="1114" y="-24"/>
      <point x="1344" y="200"/>
      <point x="1344" y="507" type="curve" smooth="yes"/>
      <point x="1344" y="1490" type="line"/>
      <point x="1154" y="1490" type="line"/>
      <point x="1154" y="522" type="line" smooth="yes"/>
      <point x="1154" y="308"/>
      <point x="1006" y="152"/>
      <point x="763" y="152" type="curve" smooth="yes"/>
      <point x="519" y="152"/>
      <point x="370" y="308"/>
      <point x="370" y="522" type="curve" smooth="yes"/>
      <point x="370" y="1490" type="line"/>
      <point x="180" y="1490" type="line"/>
      <point x="180" y="507" type="line" smooth="yes"/>
      <point x="180" y="200"/>
      <point x="410" y="-24"/>
    </contour>
  </outline>
</glyph>
<glyph name="V" format="2">
  <advance width="1413"/>
  <unicode hex="0056"/>
  <anchor x="706" y="0" name="bottom"/>
  <anchor x="706" y="1490" name="top"/>
  <outline>
    <contour>
      <point x="600" y="0" type="line"/>
      <point x="819" y="0" type="line"/>
      <point x="1361" y="1490" type="line"/>
      <point x="1159" y="1490" type="line"/>
      <point x="852" y="606" type="line" smooth="yes"/>
      <point x="817" y="505"/>
      <point x="764" y="345"/>
      <point x="692" y="90" type="curve"/>
      <point x="729" y="90" type="line"/>
      <point x="657" y="338"/>
      <point x="603" y="505"/>
      <point x="567" y="606" type="curve" smooth="yes"/>
      <point x="252" y="1490" type="line"/>
      <point x="52" y="1490" type="line"/>
    </contour>
  </outline>
</glyph>
<glyph name="W" format="2">
  <advance width="2018"/>
  <unicode hex="0057"/>
  <anchor x="1009" y="0" name="bottom"/>
  <anchor x="1009" y="1490" name="top"/>
  <outline>
    <contour>
      <point x="458" y="0" type="line"/>
      <point x="680" y="0" type="line"/>
      <point x="935" y="944" type="line" smooth="yes"/>
      <point x="973" y="1085"/>
      <point x="999" y="1216"/>
      <point x="1028" y="1395" type="curve"/>
      <point x="988" y="1395" type="line"/>
      <point x="1017" y="1206"/>
      <point x="1048" y="1066"/>
      <point x="1081" y="944" type="curve" smooth="yes"/>
      <point x="1337" y="0" type="line"/>
      <point x="1558" y="0" type="line"/>
      <point x="1966" y="1490" type="line"/>
      <point x="1770" y="1490" type="line"/>
      <point x="1535" y="576" type="line"/>
      <point x="1498" y="429"/>
      <point x="1463" y="278"/>
      <point x="1434" y="115" type="curve"/>
      <point x="1460" y="115" type="line"/>
      <point x="1429" y="278"/>
      <point x="1395" y="429"/>
      <point x="1356" y="576" type="curve"/>
      <point x="1117" y="1490" type="line"/>
      <point x="901" y="1490" type="line"/>
      <point x="660" y="576" type="line"/>
      <point x="621" y="429"/>
      <point x="588" y="278"/>
      <point x="558" y="115" type="curve"/>
      <point x="581" y="115" type="line"/>
      <point x="552" y="278"/>
      <point x="519" y="429"/>
      <point x="482" y="576" type="curve"/>
      <point x="246" y="1490" type="line"/>
      <point x="52" y="1490" type="line"/>
    </contour>
  </outline>
</glyph>
<glyph name="X" format="2">
  <advance width="1397"/>
  <unicode hex="0058"/>
  <anchor x="698" y="0" name="bottom"/>
  <anchor x="698" y="764" name="cross"/>
  <anchor x="1268" y="0" name="cyrtic"/>
  <anchor x="698" y="1490" name="top"/>
  <outline>
    <contour>
      <point x="57" y="0" type="line"/>
      <point x="273" y="0" type="line"/>
      <point x="536" y="378" type="line" smooth="yes"/>
      <point x="623" y="503"/>
      <point x="660" y="561"/>
      <point x="720" y="680" type="curve"/>
      <point x="679" y="680" type="line"/>
      <point x="740" y="556"/>
      <point x="775" y="501"/>
      <point x="860" y="378" type="curve" smooth="yes"/>
      <point x="1121" y="0" type="line"/>
      <point x="1340" y="0" type="line"/>
      <point x="763" y="840" type="line"/>
      <point x="763" y="700" type="line"/>
      <point x="1312" y="1490" type="line"/>
      <point x="1097" y="1490" type="line"/>
      <point x="878" y="1174" type="line" smooth="yes"/>
      <point x="781" y="1034"/>
      <point x="747" y="978"/>
      <point x="684" y="852" type="curve"/>
      <point x="717" y="852" type="line"/>
      <point x="653" y="980"/>
      <point x="621" y="1033"/>
      <point x="525" y="1174" type="curve" smooth="yes"/>
      <point x="310" y="1490" type="line"/>
      <point x="90" y="1490" type="line"/>
      <point x="640" y="692" type="line"/>
      <point x="640" y="833" type="line"/>
    </contour>
  </outline>
</glyph>
<glyph name="Y" format="2">
  <advance width="1390"/>
  <unicode hex="0059"/>
  <anchor x="695" y="0" name="bottom"/>
  <anchor x="695" y="388" name="cross"/>
  <anchor x="790" y="0" name="ogonek"/>
  <anchor x="52" y="1490" name="tonos"/>
  <anchor x="695" y="1490" name="top"/>
  <outline>
    <contour>
      <point x="600" y="0" type="line"/>
      <point x="790" y="0" type="line"/>
      <point x="790" y="610" type="line"/>
      <point x="1338" y="1490" type="line"/>
      <point x="1119" y="1490" type="line"/>
      <point x="825" y="1009" type="line" smooth="yes"/>
      <point x="762" y="906"/>
      <point x="714" y="821"/>
      <point x="659" y="669" type="curve"/>
      <point x="735" y="669" type="line"/>
      <point x="680" y="818"/>
      <point x="633" y="901"/>
      <point x="567" y="1009" type="curve" smooth="yes"/>
      <point x="272" y="1490" type="line"/>
      <point x="52" y="1490" type="line"/>
      <point x="600" y="610" type="line"/>
    </contour>
  </outline>
</glyph>
<glyph name="Z" format="2">
  <advance width="1288"/>
  <unicode hex="005A"/>
  <anchor x="638" y="0" name="bottom"/>
  <anchor x="1166" y="0" name="bottomr"/>
  <anchor x="644" y="745" name="cross"/>
  <anchor x="644" y="1490" name="top"/>
  <outline>
    <contour>
      <point x="130" y="0" type="line"/>
      <point x="1166" y="0" type="line"/>
      <point x="1166" y="168" type="line"/>
      <point x="640" y="168" type="line" smooth="yes"/>
      <point x="517" y="168"/>
      <point x="396" y="167"/>
      <point x="273" y="159" type="curve"/>
      <point x="294" y="97" type="line"/>
      <point x="365" y="189"/>
      <point x="438" y="284"/>
      <point x="502" y="379" type="curve" smooth="yes"/>
      <point x="1158" y="1354" type="line"/>
      <point x="1158" y="1490" type="line"/>
      <point x="122" y="1490" type="line"/>
      <point x="122" y="1322" type="line"/>
      <point x="645" y="1322" type="line" smooth="yes"/>
      <point x="768" y="1322"/>
      <point x="892" y="1323"/>
      <point x="1015" y="1331" type="curve"/>
      <point x="994" y="1393" type="line"/>
      <point x="926" y="1305"/>
      <point x="856" y="1214"/>
      <point x="796" y="1125" type="curve" smooth="yes"/>
      <point x="130" y="134" type="line"/>
    </contour>
  </outline>
</glyph>
<glyph name="bracketleft" format="2">
  <advance width="747"/>
  <unicode hex="005B"/>
  <anchor x="312" y="651" name="cross"/>
  <outline>
    <contour>
      <point x="226" y="-279" type="line"/>
      <point x="624" y="-279" type="line"/>
      <point x="624" y="-126" type="line"/>
      <point x="398" y="-126" type="line"/>
      <point x="398" y="1428" type="line"/>
      <point x="624" y="1428" type="line"/>
      <point x="624" y="1581" type="line"/>
      <point x="226" y="1581" type="line"/>
    </contour>
  </outline>
</glyph>
<glyph name="backslash" format="2">
  <advance width="738"/>
  <unicode hex="005C"/>
  <outline>
    <contour>
      <point x="526" y="-224" type="line"/>
      <point x="692" y="-224" type="line"/>
      <point x="212" y="1560" type="line"/>
      <point x="46" y="1560" type="line"/>
    </contour>
  </outline>
</glyph>
<glyph name="bracketright" format="2">
  <advance width="747"/>
  <unicode hex="005D"/>
  <anchor x="435" y="651" name="cross"/>
  <outline>
    <contour>
      <point x="123" y="-279" type="line"/>
      <point x="521" y="-279" type="line"/>
      <point x="521" y="1581" type="line"/>
      <point x="123" y="1581" type="line"/>
      <point x="123" y="1428" type="line"/>
      <point x="349" y="1428" type="line"/>
      <point x="349" y="-126" type="line"/>
      <point x="123" y="-126" type="line"/>
    </contour>
  </outline>
</glyph>
<glyph name="asciicircum" format="2">
  <advance width="965"/>
  <unicode hex="005E"/>
  <outline>
    <contour>
      <point x="456" y="1360" type="line"/>
      <point x="456" y="1285" type="line"/>
      <point x="508" y="1285" type="line"/>
      <point x="508" y="1360" type="line"/>
    </contour>
    <contour>
      <point x="82" y="814" type="line"/>
      <point x="261" y="814" type="line"/>
      <point x="490" y="1315" type="line"/>
      <point x="475" y="1315" type="line"/>
      <point x="706" y="814" type="line"/>
      <point x="883" y="814" type="line"/>
      <point x="582" y="1443" type="line"/>
      <point x="383" y="1443" type="line"/>
    </contour>
  </outline>
</glyph>
<glyph name="underscore" format="2">
  <advance width="934"/>
  <unicode hex="005F"/>
  <anchor x="467" y="158" name="_bottom"/>
  <outline>
    <contour>
      <point x="934" y="0" type="line"/>
      <point x="0" y="0" type="line"/>
      <point x="0" y="-166" type="line"/>
      <point x="934" y="-166" type="line"/>
    </contour>
  </outline>
</glyph>
<glyph name="a" format="2">
  <advance width="1254"/>
  <unicode hex="0061"/>
  <anchor x="614" y="0" name="bottom"/>
  <anchor x="1096" y="0" name="bottomr"/>
  <anchor x="1096" y="0" name="ogonek"/>
  <anchor x="615" y="1118" name="top"/>
  <anchor x="1096" y="1118" name="topr"/>
  <outline>
    <contour>
      <point x="576" y="-24" type="curve" smooth="yes"/>
      <point x="790" y="-24"/>
      <point x="865" y="110"/>
      <point x="902" y="173" type="curve"/>
      <point x="918" y="173" type="line"/>
      <point x="918" y="0" type="line"/>
      <point x="1096" y="0" type="line"/>
      <point x="1096" y="1118" type="line"/>
      <point x="917" y="1118" type="line"/>
      <point x="917" y="939" type="line"/>
      <point x="902" y="939" type="line"/>
      <point x="865" y="999"/>
      <point x="796" y="1132"/>
      <point x="580" y="1132" type="curve" smooth="yes"/>
      <point x="301" y="1132"/>
      <point x="104" y="910"/>
      <point x="104" y="556" type="curve" smooth="yes"/>
      <point x="104" y="200"/>
      <point x="300" y="-24"/>
    </contour>
    <contour>
      <point x="606" y="137" type="curve" smooth="yes"/>
      <point x="396" y="137"/>
      <point x="287" y="323"/>
      <point x="287" y="558" type="curve" smooth="yes"/>
      <point x="287" y="791"/>
      <point x="393" y="971"/>
      <point x="606" y="971" type="curve" smooth="yes"/>
      <point x="812" y="971"/>
      <point x="920" y="805"/>
      <point x="920" y="558" type="curve" smooth="yes"/>
      <point x="920" y="309"/>
      <point x="809" y="137"/>
    </contour>
  </outline>
</glyph>
<glyph name="b" format="2">
  <advance width="1254"/>
  <unicode hex="0062"/>
  <anchor x="659" y="0" name="bottom"/>
  <anchor x="333" y="1304" name="cross"/>
  <anchor x="672" y="1304" name="top"/>
  <anchor x="158" y="1490" name="topbar"/>
  <outline>
    <contour>
      <point x="677" y="-24" type="curve" smooth="yes"/>
      <point x="956" y="-24"/>
      <point x="1150" y="200"/>
      <point x="1150" y="556" type="curve" smooth="yes"/>
      <point x="1150" y="910"/>
      <point x="955" y="1132"/>
      <point x="676" y="1132" type="curve" smooth="yes"/>
      <point x="458" y="1132"/>
      <point x="389" y="998"/>
      <point x="352" y="939" type="curve"/>
      <point x="338" y="939" type="line"/>
      <point x="338" y="1490" type="line"/>
      <point x="158" y="1490" type="line"/>
      <point x="158" y="0" type="line"/>
      <point x="332" y="0" type="line"/>
      <point x="332" y="173" type="line"/>
      <point x="352" y="173" type="line"/>
      <point x="389" y="111"/>
      <point x="464" y="-24"/>
    </contour>
    <contour>
      <point x="650" y="137" type="curve" smooth="yes"/>
      <point x="447" y="137"/>
      <point x="336" y="309"/>
      <point x="336" y="558" type="curve" smooth="yes"/>
      <point x="336" y="805"/>
      <point x="444" y="971"/>
      <point x="650" y="971" type="curve" smooth="yes"/>
      <point x="862" y="971"/>
      <point x="967" y="790"/>
      <point x="967" y="558" type="curve" smooth="yes"/>
      <point x="967" y="323"/>
      <point x="859" y="137"/>
    </contour>
  </outline>
</glyph>
<glyph name="e" format="2">
  <advance width="1194"/>
  <unicode hex="0065"/>
  <anchor x="603" y="0" name="bottom"/>
  <anchor x="605" y="0" name="cedilla"/>
  <anchor x="1076" y="260" name="ogonek"/>
  <anchor x="603" y="1118" name="top"/>
  <outline>
    <contour>
      <point x="628" y="-24" type="curve" smooth="yes"/>
      <point x="857" y="-24"/>
      <point x="1024" y="91"/>
      <point x="1076" y="260" type="curve"/>
      <point x="902" y="308" type="line"/>
      <point x="860" y="194"/>
      <point x="761" y="136"/>
      <point x="629" y="136" type="curve" smooth="yes"/>
      <point x="424" y="136"/>
      <point x="286" y="273"/>
      <point x="286" y="522" type="curve" smooth="yes"/>
      <point x="286" y="623" type="line" smooth="yes"/>
      <point x="286" y="805"/>
      <point x="405" y="972"/>
      <point x="607" y="972" type="curve" smooth="yes"/>
      <point x="809" y="972"/>
      <point x="913" y="814"/>
      <point x="913" y="594" type="curve"/>
      <point x="997" y="650" type="line"/>
      <point x="226" y="650" type="line"/>
      <point x="226" y="498" type="line"/>
      <point x="1094" y="498" type="line"/>
      <point x="1094" y="573" type="line" smooth="yes"/>
      <point x="1094" y="986"/>
      <point x="844" y="1132"/>
      <point x="607" y="1132" type="curve" smooth="yes"/>
      <point x="302" y="1132"/>
      <point x="104" y="893"/>
      <point x="104" y="550" type="curve" smooth="yes"/>
      <point x="104" y="206"/>
      <point x="304" y="-24"/>
    </contour>
  </outline>
</glyph>
<glyph name="f" format="2">
  <advance width="758"/>
  <unicode hex="0066"/>
  <anchor x="330" y="0" name="bottom"/>
  <anchor x="330" y="768" name="cross"/>
  <anchor x="408" y="1552" name="top"/>
  <outline>
    <contour>
      <point x="678" y="1118" type="line"/>
      <point x="20" y="1118" type="line"/>
      <point x="20" y="964" type="line"/>
      <point x="678" y="964" type="line"/>
    </contour>
    <component base="_part.f_base" xOffset="8"/>
  </outline>
</glyph>
<glyph name="g" format="2">
  <advance width="1256"/>
  <unicode hex="0067"/>
  <anchor x="624" y="-441" name="bottom"/>
  <anchor x="1012" y="564" name="cross"/>
  <anchor x="605" y="1118" name="top"/>
  <anchor x="1098" y="1118" name="topr"/>
  <outline>
    <contour>
      <point x="611" y="-442" type="curve" smooth="yes"/>
      <point x="883" y="-442"/>
      <point x="1098" y="-318"/>
      <point x="1098" y="-29" type="curve" smooth="yes"/>
      <point x="1098" y="1118" type="line"/>
      <point x="923" y="1118" type="line"/>
      <point x="923" y="939" type="line"/>
      <point x="906" y="939" type="line"/>
      <point x="868" y="999"/>
      <point x="796" y="1132"/>
      <point x="580" y="1132" type="curve" smooth="yes"/>
      <point x="301" y="1132"/>
      <point x="104" y="910"/>
      <point x="104" y="564" type="curve" smooth="yes"/>
      <point x="104" y="213"/>
      <point x="308" y="18"/>
      <point x="576" y="18" type="curve" smooth="yes"/>
      <point x="792" y="18"/>
      <point x="863" y="141"/>
      <point x="901" y="205" type="curve"/>
      <point x="918" y="205" type="line"/>
      <point x="918" y="-19" type="line" smooth="yes"/>
      <point x="918" y="-203"/>
      <point x="789" y="-285"/>
      <point x="611" y="-285" type="curve" smooth="yes"/>
      <point x="414" y="-285"/>
      <point x="344" y="-185"/>
      <point x="297" y="-120" type="curve"/>
      <point x="151" y="-214" type="line"/>
      <point x="220" y="-337"/>
      <point x="363" y="-442"/>
    </contour>
    <contour>
      <point x="606" y="178" type="curve" smooth="yes"/>
      <point x="396" y="178"/>
      <point x="287" y="338"/>
      <point x="287" y="568" type="curve" smooth="yes"/>
      <point x="287" y="791"/>
      <point x="393" y="971"/>
      <point x="606" y="971" type="curve" smooth="yes"/>
      <point x="812" y="971"/>
      <point x="920" y="805"/>
      <point x="920" y="568" type="curve" smooth="yes"/>
      <point x="920" y="324"/>
      <point x="809" y="178"/>
    </contour>
  </outline>
</glyph>
<glyph name="k" format="2">
  <advance width="1124"/>
  <unicode hex="006B"/>
  <anchor x="581" y="0" name="bottom"/>
  <anchor x="248" y="1490" name="top"/>
  <outline>
    <contour>
      <point x="327" y="402" type="line"/>
      <point x="524" y="587" type="line"/>
      <point x="544" y="587" type="line"/>
      <point x="1061" y="1118" type="line"/>
      <point x="838" y="1118" type="line"/>
      <point x="360" y="625" type="line"/>
      <point x="327" y="625" type="line"/>
    </contour>
    <contour>
      <point x="158" y="0" type="line"/>
      <point x="338" y="0" type="line"/>
      <point x="338" y="1490" type="line"/>
      <point x="158" y="1490" type="line"/>
    </contour>
    <contour>
      <point x="865" y="0" type="line"/>
      <point x="1096" y="0" type="line"/>
      <point x="565" y="674" type="line"/>
      <point x="437" y="547" type="line"/>
    </contour>
  </outline>
</glyph>
<glyph name="l" format="2">
  <advance width="496"/>
  <unicode hex="006C"/>
  <anchor x="247" y="0" name="bottom"/>
  <anchor x="338" y="0" name="bottomr"/>
  <anchor x="338" y="745" name="centerr"/>
  <anchor x="247" y="768" name="cross"/>
  <anchor x="481" y="1490" name="raccent"/>
  <anchor x="248" y="1490" name="top"/>
  <outline>
    <contour>
      <point x="338" y="1490" type="line"/>
      <point x="158" y="1490" type="line"/>
      <point x="158" y="0" type="line"/>
      <point x="338" y="0" type="line"/>
    </contour>
  </outline>
</glyph>
<glyph name="m" format="2">
  <advance width="1794"/>
  <unicode hex="006D"/>
  <anchor x="896" y="0" name="bottom"/>
  <anchor x="1456" y="0" name="lfthook"/>
  <anchor x="896" y="1118" name="top"/>
  <outline>
    <contour>
      <point x="158" y="0" type="line"/>
      <point x="338" y="0" type="line"/>
      <point x="338" y="704" type="line" smooth="yes"/>
      <point x="338" y="882"/>
      <point x="457" y="974"/>
      <point x="588" y="974" type="curve" smooth="yes"/>
      <point x="714" y="974"/>
      <point x="807" y="891"/>
      <point x="807" y="767" type="curve" smooth="yes"/>
      <point x="807" y="0" type="line"/>
      <point x="987" y="0" type="line"/>
      <point x="987" y="730" type="line" smooth="yes"/>
      <point x="987" y="871"/>
      <point x="1079" y="974"/>
      <point x="1230" y="974" type="curve" smooth="yes"/>
      <point x="1350" y="974"/>
      <point x="1456" y="910"/>
      <point x="1456" y="749" type="curve" smooth="yes"/>
      <point x="1456" y="0" type="line"/>
      <point x="1636" y="0" type="line"/>
      <point x="1636" y="754" type="line" smooth="yes"/>
      <point x="1636" y="1013"/>
      <point x="1478" y="1138"/>
      <point x="1284" y="1138" type="curve" smooth="yes"/>
      <point x="1106" y="1138"/>
      <point x="958" y="1033"/>
      <point x="918" y="866" type="curve"/>
      <point x="942" y="866" type="line"/>
      <point x="912" y="1028"/>
      <point x="809" y="1138"/>
      <point x="647" y="1138" type="curve" smooth="yes"/>
      <point x="502" y="1138"/>
      <point x="365" y="1049"/>
      <point x="320" y="868" type="curve"/>
      <point x="334" y="868" type="line"/>
      <point x="333" y="1118" type="line"/>
      <point x="158" y="1118" type="line"/>
    </contour>
  </outline>
</glyph>
<glyph name="o" format="2">
  <advance width="1228"/>
  <unicode hex="006F"/>
  <anchor x="613" y="0" name="bottom"/>
  <anchor x="613" y="559" name="center"/>
  <anchor x="1124" y="552" name="ogonek"/>
  <anchor x="613" y="1118" name="top"/>
  <anchor x="613" y="1132" name="tophorn"/>
  <outline>
    <contour>
      <point x="613" y="-24" type="curve" smooth="yes"/>
      <point x="918" y="-24"/>
      <point x="1124" y="207"/>
      <point x="1124" y="552" type="curve" smooth="yes"/>
      <point x="1124" y="902"/>
      <point x="918" y="1132"/>
      <point x="613" y="1132" type="curve" smooth="yes"/>
      <point x="309" y="1132"/>
      <point x="104" y="902"/>
      <point x="104" y="552" type="curve" smooth="yes"/>
      <point x="104" y="207"/>
      <point x="309" y="-24"/>
    </contour>
    <contour>
      <point x="613" y="137" type="curve" smooth="yes"/>
      <point x="390" y="137"/>
      <point x="287" y="332"/>
      <point x="287" y="552" type="curve" smooth="yes"/>
      <point x="287" y="775"/>
      <point x="390" y="971"/>
      <point x="613" y="971" type="curve" smooth="yes"/>
      <point x="839" y="971"/>
      <point x="942" y="774"/>
      <point x="942" y="552" type="curve" smooth="yes"/>
      <point x="942" y="332"/>
      <point x="839" y="137"/>
    </contour>
  </outline>
</glyph>
<glyph name="p" format="2">
  <advance width="1254"/>
  <unicode hex="0070"/>
  <anchor x="247" y="-417" name="bottom"/>
  <anchor x="249" y="-162" name="cross"/>
  <anchor x="664" y="1118" name="top"/>
  <anchor x="338" y="1118" name="topr"/>
  <outline>
    <contour>
      <point x="158" y="-418" type="line"/>
      <point x="338" y="-418" type="line"/>
      <point x="338" y="173" type="line"/>
      <point x="352" y="173" type="line"/>
      <point x="389" y="111"/>
      <point x="464" y="-24"/>
      <point x="677" y="-24" type="curve" smooth="yes"/>
      <point x="956" y="-24"/>
      <point x="1150" y="200"/>
      <point x="1150" y="556" type="curve" smooth="yes"/>
      <point x="1150" y="910"/>
      <point x="955" y="1132"/>
      <point x="676" y="1132" type="curve" smooth="yes"/>
      <point x="458" y="1132"/>
      <point x="389" y="998"/>
      <point x="352" y="939" type="curve"/>
      <point x="332" y="939" type="line"/>
      <point x="332" y="1118" type="line"/>
      <point x="158" y="1118" type="line"/>
    </contour>
    <contour>
      <point x="650" y="137" type="curve" smooth="yes"/>
      <point x="447" y="137"/>
      <point x="336" y="309"/>
      <point x="336" y="558" type="curve" smooth="yes"/>
      <point x="336" y="805"/>
      <point x="444" y="971"/>
      <point x="650" y="971" type="curve" smooth="yes"/>
      <point x="862" y="971"/>
      <point x="967" y="790"/>
      <point x="967" y="558" type="curve" smooth="yes"/>
      <point x="967" y="323"/>
      <point x="859" y="137"/>
    </contour>
  </outline>
</glyph>
<glyph name="r" format="2">
  <advance width="771"/>
  <unicode hex="0072"/>
  <anchor x="247" y="0" name="bottom"/>
  <anchor x="338" y="0" name="bottomr"/>
  <anchor x="249" y="536" name="cross"/>
  <anchor x="427" y="1118" name="top"/>
  <outline>
    <contour>
      <point x="158" y="0" type="line"/>
      <point x="338" y="0" type="line"/>
      <point x="338" y="700" type="line" smooth="yes"/>
      <point x="338" y="851"/>
      <point x="456" y="960"/>
      <point x="617" y="960" type="curve" smooth="yes"/>
      <point x="665" y="960"/>
      <point x="714" y="952"/>
      <point x="725" y="950" type="curve"/>
      <point x="725" y="1131" type="line"/>
      <point x="704" y="1132"/>
      <point x="660" y="1134"/>
      <point x="634" y="1134" type="curve" smooth="yes"/>
      <point x="501" y="1134"/>
      <point x="385" y="1059"/>
      <point x="344" y="946" type="curve"/>
      <point x="332" y="946" type="line"/>
      <point x="332" y="1118" type="line"/>
      <point x="158" y="1118" type="line"/>
    </contour>
  </outline>
</glyph>
<glyph name="s" format="2">
  <advance width="1081"/>
  <unicode hex="0073"/>
  <anchor x="553" y="0" name="bottom"/>
  <anchor x="550" y="0" name="cedilla"/>
  <anchor x="108" y="271" name="rthook"/>
  <anchor x="553" y="1118" name="top"/>
  <outline>
    <contour>
      <point x="538" y="-24" type="curve" smooth="yes"/>
      <point x="800" y="-24"/>
      <point x="979" y="119"/>
      <point x="979" y="315" type="curve" smooth="yes"/>
      <point x="979" y="468"/>
      <point x="884" y="569"/>
      <point x="681" y="617" type="curve" smooth="yes"/>
      <point x="512" y="657" type="line" smooth="yes"/>
      <point x="381" y="688"/>
      <point x="324" y="734"/>
      <point x="324" y="817" type="curve" smooth="yes"/>
      <point x="324" y="910"/>
      <point x="424" y="979"/>
      <point x="557" y="979" type="curve" smooth="yes"/>
      <point x="701" y="979"/>
      <point x="764" y="901"/>
      <point x="795" y="821" type="curve"/>
      <point x="958" y="863" type="line"/>
      <point x="907" y="1020"/>
      <point x="786" y="1132"/>
      <point x="556" y="1132" type="curve" smooth="yes"/>
      <point x="318" y="1132"/>
      <point x="142" y="998"/>
      <point x="142" y="806" type="curve" smooth="yes"/>
      <point x="142" y="649"/>
      <point x="239" y="549"/>
      <point x="442" y="501" type="curve" smooth="yes"/>
      <point x="628" y="457" type="line" smooth="yes"/>
      <point x="738" y="431"/>
      <point x="792" y="380"/>
      <point x="792" y="303" type="curve" smooth="yes"/>
      <point x="792" y="211"/>
      <point x="692" y="134"/>
      <point x="536" y="134" type="curve" smooth="yes"/>
      <point x="402" y="134"/>
      <point x="311" y="189"/>
      <point x="279" y="312" type="curve"/>
      <point x="108" y="271" type="line"/>
      <point x="148" y="78"/>
      <point x="308" y="-24"/>
    </contour>
  </outline>
</glyph>
<glyph name="u" format="2">
  <advance width="1211"/>
  <unicode hex="0075"/>
  <anchor x="606" y="0" name="bottom"/>
  <anchor x="1053" y="0" name="ogonek"/>
  <anchor x="872" y="1118" name="rtophorn"/>
  <anchor x="605" y="1118" name="top"/>
  <outline>
    <contour>
      <point x="537" y="-14" type="curve" smooth="yes"/>
      <point x="701" y="-14"/>
      <point x="834" y="61"/>
      <point x="903" y="271" type="curve"/>
      <point x="879" y="271" type="line"/>
      <point x="879" y="0" type="line"/>
      <point x="1053" y="0" type="line"/>
      <point x="1053" y="1118" type="line"/>
      <point x="872" y="1118" type="line"/>
      <point x="872" y="448" type="line" smooth="yes"/>
      <point x="872" y="257"/>
      <point x="751" y="148"/>
      <point x="591" y="148" type="curve" smooth="yes"/>
      <point x="435" y="148"/>
      <point x="338" y="251"/>
      <point x="338" y="423" type="curve" smooth="yes"/>
      <point x="338" y="1118" type="line"/>
      <point x="158" y="1118" type="line"/>
      <point x="158" y="408" type="line" smooth="yes"/>
      <point x="158" y="125"/>
      <point x="311" y="-14"/>
    </contour>
  </outline>
</glyph>
<glyph name="v" format="2">
  <advance width="1151"/>
  <unicode hex="0076"/>
  <anchor x="575" y="0" name="bottom"/>
  <anchor x="575" y="1118" name="top"/>
  <outline>
    <contour>
      <point x="481" y="0" type="line"/>
      <point x="670" y="0" type="line"/>
      <point x="1097" y="1118" type="line"/>
      <point x="900" y="1118" type="line"/>
      <point x="662" y="455" type="line" smooth="yes"/>
      <point x="612" y="317"/>
      <point x="582" y="179"/>
      <point x="543" y="51" type="curve"/>
      <point x="609" y="51" type="line"/>
      <point x="570" y="179"/>
      <point x="539" y="317"/>
      <point x="489" y="455" type="curve" smooth="yes"/>
      <point x="251" y="1118" type="line"/>
      <point x="54" y="1118" type="line"/>
    </contour>
  </outline>
</glyph>
<glyph name="w" format="2">
  <advance width="1676"/>
  <unicode hex="0077"/>
  <anchor x="838" y="0" name="bottom"/>
  <anchor x="838" y="1118" name="top"/>
  <outline>
    <contour>
      <point x="409" y="0" type="line"/>
      <point x="588" y="0" type="line"/>
      <point x="733" y="506" type="line" smooth="yes"/>
      <point x="776" y="656"/>
      <point x="818" y="826"/>
      <point x="858" y="998" type="curve"/>
      <point x="818" y="998" type="line"/>
      <point x="859" y="824"/>
      <point x="899" y="659"/>
      <point x="943" y="506" type="curve" smooth="yes"/>
      <point x="1088" y="0" type="line"/>
      <point x="1267" y="0" type="line"/>
      <point x="1606" y="1118" type="line"/>
      <point x="1415" y="1118" type="line"/>
      <point x="1279" y="630" type="line" smooth="yes"/>
      <point x="1240" y="490"/>
      <point x="1197" y="324"/>
      <point x="1155" y="117" type="curve"/>
      <point x="1187" y="117" type="line"/>
      <point x="1147" y="326"/>
      <point x="1105" y="493"/>
      <point x="1068" y="630" type="curve" smooth="yes"/>
      <point x="936" y="1118" type="line"/>
      <point x="744" y="1118" type="line"/>
      <point x="610" y="630" type="line" smooth="yes"/>
      <point x="571" y="488"/>
      <point x="529" y="321"/>
      <point x="489" y="117" type="curve"/>
      <point x="520" y="117" type="line"/>
      <point x="478" y="330"/>
      <point x="434" y="497"/>
      <point x="397" y="630" type="curve" smooth="yes"/>
      <point x="261" y="1118" type="line"/>
      <point x="70" y="1118" type="line"/>
    </contour>
  </outline>
</glyph>
<glyph name="x" format="2">
  <advance width="1118"/>
  <unicode hex="0078"/>
  <anchor x="559" y="0" name="bottom"/>
  <anchor x="1005" y="0" name="cyrtic"/>
  <anchor x="872" y="0" name="right"/>
  <anchor x="559" y="1118" name="top"/>
  <outline>
    <contour>
      <point x="65" y="0" type="line"/>
      <point x="273" y="0" type="line"/>
      <point x="439" y="251" type="line" smooth="yes"/>
      <point x="511" y="360"/>
      <point x="549" y="452"/>
      <point x="604" y="539" type="curve"/>
      <point x="509" y="539" type="line"/>
      <point x="564" y="452"/>
      <point x="609" y="360"/>
      <point x="680" y="251" type="curve" smooth="yes"/>
      <point x="844" y="0" type="line"/>
      <point x="1053" y="0" type="line"/>
      <point x="616" y="630" type="line"/>
      <point x="616" y="497" type="line"/>
      <point x="1035" y="1118" type="line"/>
      <point x="829" y="1118" type="line"/>
      <point x="687" y="901" type="line" smooth="yes"/>
      <point x="614" y="789"/>
      <point x="575" y="693"/>
      <point x="518" y="603" type="curve"/>
      <point x="612" y="603" type="line"/>
      <point x="556" y="693"/>
      <point x="509" y="789"/>
      <point x="437" y="901" type="curve" smooth="yes"/>
      <point x="298" y="1118" type="line"/>
      <point x="88" y="1118" type="line"/>
      <point x="505" y="505" type="line"/>
      <point x="506" y="643" type="line"/>
    </contour>
  </outline>
</glyph>
<glyph name="y" format="2">
  <advance width="1151"/>
  <unicode hex="0079"/>
  <anchor x="856" y="0" name="bottom"/>
  <anchor x="666" y="0" name="ogonek"/>
  <anchor x="576" y="1118" name="top"/>
  <outline>
    <contour>
      <point x="140" y="-405" type="line"/>
      <point x="159" y="-414"/>
      <point x="208" y="-426"/>
      <point x="272" y="-426" type="curve" smooth="yes"/>
      <point x="430" y="-426"/>
      <point x="538" y="-345"/>
      <point x="606" y="-167" type="curve" smooth="yes"/>
      <point x="1097" y="1118" type="line"/>
      <point x="901" y="1118" type="line"/>
      <point x="661" y="455" type="line" smooth="yes"/>
      <point x="611" y="317"/>
      <point x="580" y="179"/>
      <point x="542" y="51" type="curve"/>
      <point x="608" y="51" type="line"/>
      <point x="569" y="179"/>
      <point x="539" y="316"/>
      <point x="489" y="455" type="curve" smooth="yes"/>
      <point x="251" y="1118" type="line"/>
      <point x="54" y="1118" type="line"/>
      <point x="481" y="-6" type="line"/>
      <point x="449" y="-99" type="line" smooth="yes"/>
      <point x="394" y="-259"/>
      <point x="315" y="-283"/>
      <point x="205" y="-254" type="curve" smooth="yes"/>
      <point x="186" y="-249" type="line"/>
    </contour>
  </outline>
</glyph>
<glyph name="z" format="2">
  <advance width="1131"/>
  <unicode hex="007A"/>
  <anchor x="549" y="0" name="bottom"/>
  <anchor x="1005" y="0" name="bottomr"/>
  <anchor x="555" y="558" name="cross"/>
  <anchor x="555" y="1118" name="top"/>
  <outline>
    <contour>
      <point x="126" y="0" type="line"/>
      <point x="1005" y="0" type="line"/>
      <point x="1005" y="167" type="line"/>
      <point x="376" y="167" type="line"/>
      <point x="376" y="178" type="line"/>
      <point x="985" y="975" type="line"/>
      <point x="985" y="1118" type="line"/>
      <point x="146" y="1118" type="line"/>
      <point x="146" y="951" type="line"/>
      <point x="753" y="951" type="line"/>
      <point x="753" y="940" type="line"/>
      <point x="126" y="134" type="line"/>
    </contour>
  </outline>
</glyph>
<glyph name="braceleft" format="2">
  <advance width="873"/>
  <unicode hex="007B"/>
  <outline>
    <contour>
      <point x="144" y="646" type="line"/>
      <point x="467" y="646"/>
      <point x="528" y="750"/>
      <point x="528" y="901" type="curve" smooth="yes"/>
      <point x="528" y="1187" type="line" smooth="yes"/>
      <point x="528" y="1356"/>
      <point x="581" y="1431"/>
      <point x="750" y="1430" type="curve"/>
      <point x="750" y="1581" type="line"/>
      <point x="464" y="1581"/>
      <point x="362" y="1463"/>
      <point x="362" y="1190" type="curve" smooth="yes"/>
      <point x="362" y="960" type="line" smooth="yes"/>
      <point x="362" y="802"/>
      <point x="306" y="741"/>
      <point x="144" y="741" type="curve"/>
    </contour>
    <contour>
      <point x="750" y="-279" type="curve"/>
      <point x="750" y="-130" type="line"/>
      <point x="580" y="-130"/>
      <point x="528" y="-54"/>
      <point x="528" y="115" type="curve" smooth="yes"/>
      <point x="528" y="399" type="line" smooth="yes"/>
      <point x="528" y="549"/>
      <point x="467" y="656"/>
      <point x="144" y="656" type="curve"/>
      <point x="144" y="561" type="line"/>
      <point x="306" y="561"/>
      <point x="362" y="498"/>
      <point x="362" y="340" type="curve" smooth="yes"/>
      <point x="362" y="112" type="line" smooth="yes"/>
      <point x="362" y="-162"/>
      <point x="464" y="-279"/>
    </contour>
    <contour>
      <point x="144" y="560" type="line"/>
      <point x="323" y="560" type="line"/>
      <point x="323" y="742" type="line"/>
      <point x="144" y="742" type="line"/>
    </contour>
  </outline>
</glyph>
<glyph name="bar" format="2">
  <advance width="681"/>
  <unicode hex="007C"/>
  <outline>
    <contour>
      <point x="419" y="1970" type="line"/>
      <point x="262" y="1970" type="line"/>
      <point x="262" y="-480" type="line"/>
      <point x="419" y="-480" type="line"/>
    </contour>
  </outline>
</glyph>
<glyph name="braceright" format="2">
  <advance width="873"/>
  <unicode hex="007D"/>
  <outline>
    <contour>
      <point x="729" y="646" type="curve"/>
      <point x="729" y="741" type="line"/>
      <point x="566" y="741"/>
      <point x="510" y="802"/>
      <point x="510" y="960" type="curve" smooth="yes"/>
      <point x="510" y="1190" type="line" smooth="yes"/>
      <point x="510" y="1463"/>
      <point x="408" y="1581"/>
      <point x="123" y="1581" type="curve"/>
      <point x="123" y="1430" type="line"/>
      <point x="293" y="1430"/>
      <point x="345" y="1355"/>
      <point x="345" y="1187" type="curve" smooth="yes"/>
      <point x="345" y="901" type="line" smooth="yes"/>
      <point x="345" y="750"/>
      <point x="406" y="646"/>
    </contour>
    <contour>
      <point x="123" y="-279" type="line"/>
      <point x="408" y="-279"/>
      <point x="510" y="-162"/>
      <point x="510" y="112" type="curve" smooth="yes"/>
      <point x="510" y="340" type="line" smooth="yes"/>
      <point x="510" y="497"/>
      <point x="565" y="560"/>
      <point x="729" y="561" type="curve"/>
      <point x="729" y="656" type="line"/>
      <point x="406" y="656"/>
      <point x="345" y="549"/>
      <point x="345" y="399" type="curve" smooth="yes"/>
      <point x="345" y="115" type="line" smooth="yes"/>
      <point x="345" y="-54"/>
      <point x="293" y="-130"/>
      <point x="123" y="-130" type="curve"/>
    </contour>
    <contour>
      <point x="729" y="561" type="line"/>
      <point x="729" y="741" type="line"/>
      <point x="549" y="742" type="line"/>
      <point x="549" y="560" type="line"/>
    </contour>
  </outline>
</glyph>
<glyph name="asciitilde" format="2">
  <advance width="1355"/>
  <unicode hex="007E"/>
  <outline>
    <contour>
      <point x="168" y="439" type="curve"/>
      <point x="332" y="439" type="line"/>
      <point x="330" y="566"/>
      <point x="387" y="616"/>
      <point x="465" y="616" type="curve" smooth="yes"/>
      <point x="515" y="616"/>
      <point x="548" y="594"/>
      <point x="620" y="532" type="curve" smooth="yes"/>
      <point x="723" y="443"/>
      <point x="796" y="400"/>
      <point x="897" y="400" type="curve" smooth="yes"/>
      <point x="1044" y="400"/>
      <point x="1190" y="493"/>
      <point x="1187" y="740" type="curve"/>
      <point x="1023" y="740" type="line"/>
      <point x="1023" y="624"/>
      <point x="972" y="563"/>
      <point x="890" y="563" type="curve" smooth="yes"/>
      <point x="839" y="563"/>
      <point x="805" y="586"/>
      <point x="735" y="647" type="curve" smooth="yes"/>
      <point x="627" y="741"/>
      <point x="556" y="780"/>
      <point x="458" y="780" type="curve" smooth="yes"/>
      <point x="309" y="780"/>
      <point x="164" y="687"/>
    </contour>
  </outline>
</glyph>
<glyph name="exclamdown" format="2">
  <advance width="589"/>
  <unicode hex="00A1"/>
  <outline>
    <contour>
      <point x="193" y="-361" type="line"/>
      <point x="397" y="-361" type="line"/>
      <point x="385" y="650" type="line"/>
      <point x="206" y="650" type="line"/>
    </contour>
    <contour>
      <point x="294" y="873" type="curve" smooth="yes"/>
      <point x="369" y="873"/>
      <point x="429" y="933"/>
      <point x="429" y="1008" type="curve" smooth="yes"/>
      <point x="429" y="1082"/>
      <point x="369" y="1142"/>
      <point x="294" y="1142" type="curve" smooth="yes"/>
      <point x="220" y="1142"/>
      <point x="160" y="1082"/>
      <point x="160" y="1008" type="curve" smooth="yes"/>
      <point x="160" y="933"/>
      <point x="220" y="873"/>
    </contour>
  </outline>
</glyph>
<glyph name="cent" format="2">
  <advance width="1170"/>
  <unicode hex="00A2"/>
  <anchor x="613" y="190" name="bottom"/>
  <anchor x="613" y="190" name="cedilla"/>
  <anchor x="613" y="749" name="center"/>
  <anchor x="613" y="1308" name="top"/>
  <anchor x="1066" y="1013" name="topr"/>
  <outline>
    <contour>
      <point x="543" y="0" type="line"/>
      <point x="661" y="0" type="line"/>
      <point x="661" y="1490" type="line"/>
      <point x="543" y="1490" type="line"/>
    </contour>
    <component base="c" yOffset="190"/>
  </outline>
</glyph>
<glyph name="currency" format="2">
  <advance width="1484"/>
  <unicode hex="00A4"/>
  <outline>
    <contour>
      <point x="738" y="-20" type="curve" smooth="yes"/>
      <point x="1067" y="-20"/>
      <point x="1335" y="253"/>
      <point x="1335" y="608" type="curve" smooth="yes"/>
      <point x="1335" y="963"/>
      <point x="1067" y="1234"/>
      <point x="738" y="1234" type="curve" smooth="yes"/>
      <point x="408" y="1234"/>
      <point x="143" y="962"/>
      <point x="143" y="608" type="curve"/>
      <point x="143" y="254"/>
      <point x="408" y="-20"/>
    </contour>
    <contour>
      <point x="738" y="142" type="curve" smooth="yes"/>
      <point x="499" y="142"/>
      <point x="305" y="353"/>
      <point x="305" y="608" type="curve"/>
      <point x="305" y="866"/>
      <point x="499" y="1074"/>
      <point x="738" y="1074" type="curve" smooth="yes"/>
      <point x="977" y="1074"/>
      <point x="1168" y="866"/>
      <point x="1168" y="608" type="curve" smooth="yes"/>
      <point x="1168" y="353"/>
      <point x="977" y="142"/>
    </contour>
    <contour>
      <point x="1162" y="925" type="line"/>
      <point x="1366" y="1131" type="line"/>
      <point x="1244" y="1255" type="line"/>
      <point x="1044" y="1049" type="line"/>
    </contour>
    <contour>
      <point x="1244" y="-15" type="line"/>
      <point x="1366" y="109" type="line"/>
      <point x="1162" y="313" type="line"/>
      <point x="1044" y="191" type="line"/>
    </contour>
    <contour>
      <point x="238" y="-15" type="line"/>
      <point x="442" y="191" type="line"/>
      <point x="320" y="313" type="line"/>
      <point x="120" y="109" type="line"/>
    </contour>
    <contour>
      <point x="320" y="925" type="line"/>
      <point x="442" y="1049" type="line"/>
      <point x="238" y="1255" type="line"/>
      <point x="120" y="1131" type="line"/>
    </contour>
  </outline>
</glyph>
<glyph name="yen" format="2">
  <advance width="1126"/>
  <unicode hex="00A5"/>
  <outline>
    <contour>
      <point x="239" y="1490" type="line"/>
      <point x="30" y="1490" type="line"/>
      <point x="470" y="600" type="line"/>
      <point x="614" y="666" type="line"/>
    </contour>
    <contour>
      <point x="512" y="666" type="line"/>
      <point x="657" y="600" type="line"/>
      <point x="1098" y="1490" type="line"/>
      <point x="888" y="1490" type="line"/>
    </contour>
    <contour>
      <point x="658" y="782" type="line"/>
      <point x="469" y="782" type="line"/>
      <point x="469" y="0" type="line"/>
      <point x="658" y="0" type="line"/>
    </contour>
    <contour>
      <point x="982" y="744" type="line"/>
      <point x="143" y="744" type="line"/>
      <point x="143" y="608" type="line"/>
      <point x="982" y="608" type="line"/>
    </contour>
    <contour>
      <point x="982" y="456" type="line"/>
      <point x="143" y="456" type="line"/>
      <point x="143" y="320" type="line"/>
      <point x="982" y="320" type="line"/>
    </contour>
  </outline>
</glyph>
<glyph name="brokenbar" format="2">
  <advance width="553"/>
  <unicode hex="00A6"/>
  <outline>
    <contour>
      <point x="192" y="403" type="line"/>
      <point x="192" y="-280" type="line"/>
      <point x="361" y="-280" type="line"/>
      <point x="361" y="403" type="line"/>
    </contour>
    <contour>
      <point x="361" y="1490" type="line"/>
      <point x="192" y="1490" type="line"/>
      <point x="192" y="811" type="line"/>
      <point x="361" y="811" type="line"/>
    </contour>
  </outline>
</glyph>
<glyph name="section" format="2">
  <advance width="1164"/>
  <unicode hex="00A7"/>
  <outline>
    <contour>
      <point x="563" y="-302" type="curve" smooth="yes"/>
      <point x="793" y="-302"/>
      <point x="950" y="-184"/>
      <point x="950" y="5" type="curve" smooth="yes"/>
      <point x="950" y="105"/>
      <point x="906" y="185"/>
      <point x="811" y="257" type="curve"/>
      <point x="814" y="264" type="line"/>
      <point x="946" y="275"/>
      <point x="1042" y="389"/>
      <point x="1042" y="516" type="curve" smooth="yes"/>
      <point x="1042" y="631"/>
      <point x="962" y="752"/>
      <point x="830" y="830" type="curve" smooth="yes"/>
      <point x="548" y="996" type="line" smooth="yes"/>
      <point x="478" y="1037"/>
      <point x="390" y="1091"/>
      <point x="390" y="1197" type="curve" smooth="yes"/>
      <point x="390" y="1294"/>
      <point x="464" y="1356"/>
      <point x="592" y="1356" type="curve" smooth="yes"/>
      <point x="728" y="1356"/>
      <point x="774" y="1285"/>
      <point x="820" y="1156" type="curve"/>
      <point x="972" y="1197" type="line"/>
      <point x="915" y="1398"/>
      <point x="805" y="1510"/>
      <point x="588" y="1510" type="curve" smooth="yes"/>
      <point x="366" y="1510"/>
      <point x="218" y="1392"/>
      <point x="218" y="1203" type="curve" smooth="yes"/>
      <point x="218" y="1097"/>
      <point x="264" y="1029"/>
      <point x="353" y="953" type="curve"/>
      <point x="350" y="948" type="line"/>
      <point x="210" y="939"/>
      <point x="122" y="816"/>
      <point x="122" y="694" type="curve" smooth="yes"/>
      <point x="122" y="574"/>
      <point x="207" y="451"/>
      <point x="336" y="376" type="curve" smooth="yes"/>
      <point x="618" y="212" type="line" smooth="yes"/>
      <point x="685" y="173"/>
      <point x="774" y="121"/>
      <point x="774" y="12" type="curve" smooth="yes"/>
      <point x="774" y="-93"/>
      <point x="691" y="-148"/>
      <point x="567" y="-148" type="curve" smooth="yes"/>
      <point x="420" y="-148"/>
      <point x="360" y="-71"/>
      <point x="327" y="50" type="curve"/>
      <point x="166" y="8" type="line"/>
      <point x="209" y="-186"/>
      <point x="335" y="-302"/>
    </contour>
    <contour>
      <point x="692" y="350" type="curve" smooth="yes"/>
      <point x="422" y="506" type="line" smooth="yes"/>
      <point x="325" y="562"/>
      <point x="282" y="629"/>
      <point x="282" y="709" type="curve" smooth="yes"/>
      <point x="282" y="839"/>
      <point x="395" y="903"/>
      <point x="460" y="866" type="curve" smooth="yes"/>
      <point x="746" y="702" type="line" smooth="yes"/>
      <point x="835" y="651"/>
      <point x="882" y="586"/>
      <point x="882" y="505" type="curve" smooth="yes"/>
      <point x="882" y="372"/>
      <point x="754" y="314"/>
    </contour>
  </outline>
</glyph>
<glyph name="copyright" format="2">
  <advance width="1872"/>
  <unicode hex="00A9"/>
  <outline>
    <contour>
      <point x="512" y="744" type="curve" smooth="yes"/>
      <point x="512" y="506"/>
      <point x="705" y="312"/>
      <point x="944" y="312" type="curve" smooth="yes"/>
      <point x="1151" y="312"/>
      <point x="1309" y="458"/>
      <point x="1336" y="652" type="curve"/>
      <point x="1160" y="652" type="line"/>
      <point x="1140" y="552"/>
      <point x="1056" y="482"/>
      <point x="944" y="482" type="curve" smooth="yes"/>
      <point x="799" y="482"/>
      <point x="680" y="599"/>
      <point x="680" y="744" type="curve" smooth="yes"/>
      <point x="680" y="890"/>
      <point x="799" y="1008"/>
      <point x="944" y="1008" type="curve" smooth="yes"/>
      <point x="1056" y="1008"/>
      <point x="1156" y="937"/>
      <point x="1176" y="838" type="curve"/>
      <point x="1352" y="838" type="line"/>
      <point x="1324" y="1031"/>
      <point x="1151" y="1176"/>
      <point x="944" y="1176" type="curve" smooth="yes"/>
      <point x="705" y="1176"/>
      <point x="512" y="983"/>
    </contour>
    <component base="circlewhite"/>
  </outline>
</glyph>
<glyph name="ordfeminine" format="2">
  <advance width="929"/>
  <unicode hex="00AA"/>
  <anchor x="451" y="665" name="bottom"/>
  <anchor x="809" y="665" name="ogonek"/>
  <anchor x="453" y="1504" name="top"/>
  <outline>
    <contour>
      <point x="370" y="647" type="curve" smooth="yes"/>
      <point x="515" y="647"/>
      <point x="600" y="713"/>
      <point x="634" y="780" type="curve"/>
      <point x="643" y="780" type="line"/>
      <point x="643" y="665" type="line"/>
      <point x="809" y="665" type="line"/>
      <point x="809" y="1222" type="line" smooth="yes"/>
      <point x="809" y="1461"/>
      <point x="602" y="1514"/>
      <point x="461" y="1514" type="curve" smooth="yes"/>
      <point x="309" y="1514"/>
      <point x="156" y="1455"/>
      <point x="93" y="1303" type="curve"/>
      <point x="254" y="1264" type="line"/>
      <point x="280" y="1323"/>
      <point x="348" y="1377"/>
      <point x="464" y="1377" type="curve" smooth="yes"/>
      <point x="578" y="1377"/>
      <point x="638" y="1324"/>
      <point x="638" y="1233" type="curve" smooth="yes"/>
      <point x="638" y="1229" type="line" smooth="yes"/>
      <point x="638" y="1170"/>
      <point x="571" y="1170"/>
      <point x="412" y="1153" type="curve" smooth="yes"/>
      <point x="244" y="1135"/>
      <point x="67" y="1092"/>
      <point x="67" y="902" type="curve" smooth="yes"/>
      <point x="67" y="737"/>
      <point x="200" y="647"/>
    </contour>
    <contour>
      <point x="406" y="781" type="curve" smooth="yes"/>
      <point x="307" y="781"/>
      <point x="235" y="822"/>
      <point x="235" y="900" type="curve" smooth="yes"/>
      <point x="235" y="983"/>
      <point x="315" y="1016"/>
      <point x="420" y="1029" type="curve" smooth="yes"/>
      <point x="477" y="1036"/>
      <point x="614" y="1050"/>
      <point x="639" y="1073" type="curve"/>
      <point x="639" y="967" type="line" smooth="yes"/>
      <point x="639" y="870"/>
      <point x="553" y="781"/>
    </contour>
  </outline>
</glyph>
<glyph name="logicalnot" format="2">
  <advance width="1355"/>
  <unicode hex="00AC"/>
  <outline>
    <contour>
      <point x="891" y="315" type="line"/>
      <point x="1060" y="315" type="line"/>
      <point x="1060" y="745" type="line"/>
      <point x="224" y="745" type="line"/>
      <point x="224" y="586" type="line"/>
      <point x="891" y="586" type="line"/>
    </contour>
  </outline>
</glyph>
<glyph name="registered" format="2">
  <advance width="1364"/>
  <unicode hex="00AE"/>
  <outline>
    <contour>
      <point x="682" y="346" type="curve" smooth="yes"/>
      <point x="1004" y="346"/>
      <point x="1264" y="607"/>
      <point x="1264" y="928" type="curve" smooth="yes"/>
      <point x="1264" y="1249"/>
      <point x="1004" y="1510"/>
      <point x="682" y="1510" type="curve" smooth="yes"/>
      <point x="361" y="1510"/>
      <point x="100" y="1249"/>
      <point x="100" y="928" type="curve" smooth="yes"/>
      <point x="100" y="607"/>
      <point x="361" y="346"/>
    </contour>
    <contour>
      <point x="682" y="487" type="curve" smooth="yes"/>
      <point x="439" y="487"/>
      <point x="241" y="684"/>
      <point x="241" y="928" type="curve" smooth="yes"/>
      <point x="241" y="1172"/>
      <point x="439" y="1369"/>
      <point x="682" y="1369" type="curve" smooth="yes"/>
      <point x="926" y="1369"/>
      <point x="1123" y="1172"/>
      <point x="1123" y="928" type="curve" smooth="yes"/>
      <point x="1123" y="684"/>
      <point x="926" y="487"/>
    </contour>
    <contour>
      <point x="806" y="661" type="line"/>
      <point x="938" y="661" type="line"/>
      <point x="805" y="915" type="line"/>
      <point x="675" y="915" type="line"/>
    </contour>
    <contour>
      <point x="477" y="661" type="line"/>
      <point x="597" y="661" type="line"/>
      <point x="597" y="1110" type="line"/>
      <point x="707" y="1110" type="line" smooth="yes"/>
      <point x="736" y="1110"/>
      <point x="785" y="1091"/>
      <point x="785" y="1027" type="curve" smooth="yes"/>
      <point x="785" y="963"/>
      <point x="738" y="932"/>
      <point x="705" y="932" type="curve" smooth="yes"/>
      <point x="546" y="932" type="line"/>
      <point x="546" y="843" type="line"/>
      <point x="741" y="843" type="line" smooth="yes"/>
      <point x="814" y="843"/>
      <point x="916" y="908"/>
      <point x="916" y="1027" type="curve" smooth="yes"/>
      <point x="916" y="1142"/>
      <point x="817" y="1197"/>
      <point x="749" y="1197" type="curve" smooth="yes"/>
      <point x="477" y="1197" type="line"/>
    </contour>
  </outline>
</glyph>
<glyph name="degree" format="2">
  <advance width="933"/>
  <unicode hex="00B0"/>
  <outline>
    <contour>
      <point x="468" y="829" type="curve" smooth="yes"/>
      <point x="652" y="829"/>
      <point x="803" y="979"/>
      <point x="803" y="1164" type="curve" smooth="yes"/>
      <point x="803" y="1350"/>
      <point x="652" y="1502"/>
      <point x="468" y="1502" type="curve" smooth="yes"/>
      <point x="282" y="1502"/>
      <point x="130" y="1350"/>
      <point x="130" y="1164" type="curve" smooth="yes"/>
      <point x="130" y="979"/>
      <point x="282" y="829"/>
    </contour>
    <contour>
      <point x="468" y="979" type="curve" smooth="yes"/>
      <point x="364" y="979"/>
      <point x="281" y="1062"/>
      <point x="281" y="1164" type="curve" smooth="yes"/>
      <point x="281" y="1267"/>
      <point x="364" y="1351"/>
      <point x="468" y="1351" type="curve" smooth="yes"/>
      <point x="570" y="1351"/>
      <point x="653" y="1267"/>
      <point x="653" y="1164" type="curve" smooth="yes"/>
      <point x="653" y="1062"/>
      <point x="570" y="979"/>
    </contour>
  </outline>
</glyph>
<glyph name="plusminus" format="2">
  <advance width="1355"/>
  <unicode hex="00B1"/>
  <outline>
    <contour>
      <point x="206" y="69" type="line"/>
      <point x="1150" y="69" type="line"/>
      <point x="1150" y="237" type="line"/>
      <point x="206" y="237" type="line"/>
    </contour>
    <contour>
      <point x="206" y="658" type="line"/>
      <point x="1150" y="658" type="line"/>
      <point x="1150" y="826" type="line"/>
      <point x="206" y="826" type="line"/>
    </contour>
    <contour>
      <point x="594" y="364" type="line"/>
      <point x="763" y="364" type="line"/>
      <point x="763" y="1121" type="line"/>
      <point x="594" y="1121" type="line"/>
    </contour>
  </outline>
</glyph>
<glyph name="two.sups" format="2">
  <advance width="905"/>
  <unicode hex="00B2"/>
  <anchor x="520" y="1262" name="cross"/>
  <anchor x="453" y="1710" name="top"/>
  <outline>
    <contour>
      <point x="118" y="898" type="line"/>
      <point x="797" y="898" type="line"/>
      <point x="797" y="1037" type="line"/>
      <point x="360" y="1037" type="line"/>
      <point x="360" y="1044" type="line"/>
      <point x="513" y="1155" type="line" smooth="yes"/>
      <point x="732" y="1314"/>
      <point x="771" y="1394"/>
      <point x="771" y="1483" type="curve" smooth="yes"/>
      <point x="771" y="1622"/>
      <point x="640" y="1720"/>
      <point x="439" y="1720" type="curve" smooth="yes"/>
      <point x="247" y="1720"/>
      <point x="112" y="1621"/>
      <point x="112" y="1469" type="curve"/>
      <point x="278" y="1469" type="line"/>
      <point x="278" y="1541"/>
      <point x="343" y="1586"/>
      <point x="438" y="1586" type="curve" smooth="yes"/>
      <point x="530" y="1586"/>
      <point x="601" y="1541"/>
      <point x="601" y="1469" type="curve" smooth="yes"/>
      <point x="601" y="1409"/>
      <point x="554" y="1366"/>
      <point x="458" y="1290" type="curve" smooth="yes"/>
      <point x="118" y="1021" type="line"/>
    </contour>
  </outline>
</glyph>
<glyph name="three.sups" format="2">
  <advance width="913"/>
  <unicode hex="00B3"/>
  <anchor x="461" y="1710" name="top"/>
  <outline>
    <contour>
      <point x="458" y="888" type="curve" smooth="yes"/>
      <point x="669" y="888"/>
      <point x="820" y="987"/>
      <point x="820" y="1126" type="curve" smooth="yes"/>
      <point x="820" y="1229"/>
      <point x="741" y="1297"/>
      <point x="599" y="1314" type="curve"/>
      <point x="599" y="1320" type="line"/>
      <point x="709" y="1335"/>
      <point x="784" y="1399"/>
      <point x="784" y="1490" type="curve" smooth="yes"/>
      <point x="784" y="1619"/>
      <point x="656" y="1720"/>
      <point x="462" y="1720" type="curve" smooth="yes"/>
      <point x="274" y="1720"/>
      <point x="125" y="1624"/>
      <point x="123" y="1484" type="curve"/>
      <point x="290" y="1484" type="line"/>
      <point x="292" y="1544"/>
      <point x="368" y="1584"/>
      <point x="461" y="1584" type="curve" smooth="yes"/>
      <point x="552" y="1584"/>
      <point x="615" y="1542"/>
      <point x="615" y="1482" type="curve" smooth="yes"/>
      <point x="615" y="1418"/>
      <point x="540" y="1373"/>
      <point x="438" y="1373" type="curve" smooth="yes"/>
      <point x="362" y="1373" type="line"/>
      <point x="362" y="1250" type="line"/>
      <point x="438" y="1250" type="line" smooth="yes"/>
      <point x="560" y="1250"/>
      <point x="637" y="1204"/>
      <point x="637" y="1139" type="curve" smooth="yes"/>
      <point x="637" y="1076"/>
      <point x="564" y="1030"/>
      <point x="460" y="1030" type="curve" smooth="yes"/>
      <point x="363" y="1030"/>
      <point x="282" y="1068"/>
      <point x="279" y="1121" type="curve"/>
      <point x="103" y="1121" type="line"/>
      <point x="106" y="980"/>
      <point x="261" y="888"/>
    </contour>
  </outline>
</glyph>
<glyph name="micro" format="2">
  <advance width="1200"/>
  <unicode hex="00B5"/>
  <outline>
    <contour>
      <point x="158" y="-418" type="line"/>
      <point x="338" y="-418" type="line"/>
      <point x="338" y="352" type="line"/>
      <point x="298" y="352" type="line"/>
      <point x="298" y="57"/>
      <point x="488" y="-16"/>
      <point x="608" y="-16" type="curve" smooth="yes"/>
      <point x="728" y="-16"/>
      <point x="919" y="57"/>
      <point x="919" y="352" type="curve"/>
      <point x="877" y="352" type="line"/>
      <point x="877" y="251" type="line" smooth="yes"/>
      <point x="877" y="87"/>
      <point x="969" y="0"/>
      <point x="1154" y="0" type="curve" smooth="yes"/>
      <point x="1190" y="0" type="line"/>
      <point x="1190" y="155" type="line"/>
      <point x="1161" y="155" type="line" smooth="yes"/>
      <point x="1081" y="155"/>
      <point x="1053" y="180"/>
      <point x="1053" y="253" type="curve" smooth="yes"/>
      <point x="1053" y="1118" type="line"/>
      <point x="873" y="1118" type="line"/>
      <point x="873" y="440" type="line" smooth="yes"/>
      <point x="873" y="232"/>
      <point x="761" y="143"/>
      <point x="609" y="143" type="curve" smooth="yes"/>
      <point x="458" y="143"/>
      <point x="338" y="231"/>
      <point x="338" y="440" type="curve" smooth="yes"/>
      <point x="338" y="1118" type="line"/>
      <point x="158" y="1118" type="line"/>
    </contour>
  </outline>
</glyph>
<glyph name="paragraph" format="2">
  <advance width="1234"/>
  <unicode hex="00B6"/>
  <outline>
    <contour>
      <point x="1045" y="1324" type="line"/>
      <point x="1045" y="1490" type="line"/>
      <point x="603" y="1490" type="line" smooth="yes"/>
      <point x="285" y="1490"/>
      <point x="110" y="1289"/>
      <point x="110" y="1022" type="curve" smooth="yes"/>
      <point x="110" y="751"/>
      <point x="285" y="552"/>
      <point x="603" y="552" type="curve" smooth="yes"/>
      <point x="687" y="552" type="line"/>
      <point x="687" y="1324" type="line"/>
    </contour>
    <contour>
      <point x="867" y="0" type="line"/>
      <point x="1054" y="0" type="line"/>
      <point x="1054" y="1490" type="line"/>
      <point x="867" y="1490" type="line"/>
    </contour>
  </outline>
</glyph>
<glyph name="one.sups" format="2">
  <advance width="623"/>
  <unicode hex="00B9"/>
  <outline>
    <contour>
      <point x="499" y="1710" type="line"/>
      <point x="306" y="1710" type="line"/>
      <point x="99" y="1586" type="line"/>
      <point x="99" y="1434" type="line"/>
      <point x="318" y="1563" type="line"/>
      <point x="326" y="1563" type="line"/>
      <point x="326" y="898" type="line"/>
      <point x="499" y="898" type="line"/>
    </contour>
  </outline>
</glyph>
<glyph name="ordmasculine" format="2">
  <advance width="988"/>
  <unicode hex="00BA"/>
  <anchor x="493" y="665" name="bottom"/>
  <anchor x="493" y="1084" name="center"/>
  <anchor x="910" y="1080" name="ogonek"/>
  <anchor x="493" y="1504" name="top"/>
  <anchor x="493" y="1514" name="tophorn"/>
  <outline>
    <contour>
      <point x="494" y="648" type="curve" smooth="yes"/>
      <point x="744" y="648"/>
      <point x="910" y="821"/>
      <point x="910" y="1080" type="curve" smooth="yes"/>
      <point x="910" y="1341"/>
      <point x="744" y="1514"/>
      <point x="494" y="1514" type="curve" smooth="yes"/>
      <point x="243" y="1514"/>
      <point x="78" y="1341"/>
      <point x="78" y="1080" type="curve" smooth="yes"/>
      <point x="78" y="822"/>
      <point x="243" y="648"/>
    </contour>
    <contour>
      <point x="494" y="791" type="curve" smooth="yes"/>
      <point x="330" y="791"/>
      <point x="252" y="922"/>
      <point x="252" y="1080" type="curve" smooth="yes"/>
      <point x="252" y="1240"/>
      <point x="330" y="1371"/>
      <point x="494" y="1371" type="curve" smooth="yes"/>
      <point x="660" y="1371"/>
      <point x="737" y="1238"/>
      <point x="737" y="1080" type="curve" smooth="yes"/>
      <point x="737" y="922"/>
      <point x="659" y="791"/>
    </contour>
  </outline>
</glyph>
<glyph name="AE" format="2">
  <advance width="2035"/>
  <unicode hex="00C6"/>
  <anchor x="1326" y="1490" name="top"/>
  <outline>
    <contour>
      <point x="52" y="0" type="line"/>
      <point x="261" y="0" type="line"/>
      <point x="899" y="1367" type="line"/>
      <point x="992" y="1367" type="line"/>
      <point x="992" y="0" type="line"/>
      <point x="1901" y="0" type="line"/>
      <point x="1901" y="168" type="line"/>
      <point x="1174" y="168" type="line"/>
      <point x="1174" y="662" type="line"/>
      <point x="1844" y="662" type="line"/>
      <point x="1844" y="830" type="line"/>
      <point x="1174" y="830" type="line"/>
      <point x="1174" y="1322" type="line"/>
      <point x="1890" y="1322" type="line"/>
      <point x="1890" y="1490" type="line"/>
      <point x="768" y="1490" type="line"/>
    </contour>
    <contour>
      <point x="395" y="416" type="line"/>
      <point x="1081" y="416" type="line"/>
      <point x="1081" y="574" type="line"/>
      <point x="395" y="574" type="line"/>
    </contour>
  </outline>
</glyph>
<glyph name="multiply" format="2">
  <advance width="1355"/>
  <unicode hex="00D7"/>
  <outline>
    <contour>
      <point x="1034" y="112" type="line"/>
      <point x="1150" y="228" type="line"/>
      <point x="326" y="1054" type="line"/>
      <point x="210" y="936" type="line"/>
    </contour>
    <contour>
      <point x="326" y="112" type="line"/>
      <point x="1150" y="936" type="line"/>
      <point x="1034" y="1054" type="line"/>
      <point x="210" y="228" type="line"/>
    </contour>
  </outline>
</glyph>
<glyph name="Thorn" format="2">
  <advance width="1302"/>
  <unicode hex="00DE"/>
  <outline>
    <contour>
      <point x="168" y="1490" type="line"/>
      <point x="168" y="0" type="line"/>
      <point x="360" y="0" type="line"/>
      <point x="360" y="1490" type="line"/>
    </contour>
    <contour>
      <point x="259" y="1185" type="line"/>
      <point x="259" y="1018" type="line"/>
      <point x="643" y="1018" type="line" smooth="yes"/>
      <point x="847" y="1018"/>
      <point x="958" y="915"/>
      <point x="958" y="751" type="curve" smooth="yes"/>
      <point x="958" y="587"/>
      <point x="847" y="491"/>
      <point x="643" y="491" type="curve" smooth="yes"/>
      <point x="259" y="491" type="line"/>
      <point x="259" y="325" type="line"/>
      <point x="643" y="325" type="line" smooth="yes"/>
      <point x="962" y="325"/>
      <point x="1138" y="517"/>
      <point x="1138" y="755" type="curve" smooth="yes"/>
      <point x="1138" y="991"/>
      <point x="962" y="1183"/>
      <point x="643" y="1184" type="curve" smooth="yes"/>
    </contour>
  </outline>
</glyph>
<glyph name="germandbls" format="2">
  <advance width="1262"/>
  <unicode hex="00DF"/>
  <outline>
    <contour>
      <point x="180" y="0" type="line"/>
      <point x="362" y="0" type="line"/>
      <point x="362" y="1104" type="line" smooth="yes"/>
      <point x="362" y="1245"/>
      <point x="471" y="1343"/>
      <point x="621" y="1343" type="curve" smooth="yes"/>
      <point x="778" y="1343"/>
      <point x="875" y="1234"/>
      <point x="875" y="1097" type="curve" smooth="yes"/>
      <point x="875" y="965"/>
      <point x="785" y="841"/>
      <point x="641" y="841" type="curve" smooth="yes"/>
      <point x="550" y="841" type="line"/>
      <point x="550" y="671" type="line"/>
      <point x="679" y="671" type="line" smooth="yes"/>
      <point x="854" y="671"/>
      <point x="964" y="563"/>
      <point x="964" y="412" type="curve" smooth="yes"/>
      <point x="964" y="269"/>
      <point x="864" y="167"/>
      <point x="709" y="167" type="curve" smooth="yes"/>
      <point x="544" y="167" type="line"/>
      <point x="544" y="0" type="line"/>
      <point x="709" y="0" type="line" smooth="yes"/>
      <point x="973" y="0"/>
      <point x="1146" y="173"/>
      <point x="1146" y="410" type="curve" smooth="yes"/>
      <point x="1146" y="615"/>
      <point x="1016" y="756"/>
      <point x="823" y="775" type="curve"/>
      <point x="823" y="789" type="line"/>
      <point x="965" y="838"/>
      <point x="1057" y="959"/>
      <point x="1057" y="1125" type="curve" smooth="yes"/>
      <point x="1057" y="1364"/>
      <point x="867" y="1510"/>
      <point x="616" y="1510" type="curve" smooth="yes"/>
      <point x="360" y="1510"/>
      <point x="180" y="1357"/>
      <point x="180" y="1107" type="curve" smooth="yes"/>
    </contour>
  </outline>
</glyph>
<glyph name="ae" format="2">
  <advance width="1879"/>
  <unicode hex="00E6"/>
  <anchor x="931" y="1118" name="top"/>
  <outline>
    <contour>
      <point x="472" y="-26" type="curve" smooth="yes"/>
      <point x="667" y="-26"/>
      <point x="853" y="77"/>
      <point x="898" y="203" type="curve"/>
      <point x="918" y="203" type="line"/>
      <point x="953" y="883" type="line"/>
      <point x="889" y="1097"/>
      <point x="702" y="1132"/>
      <point x="573" y="1132" type="curve" smooth="yes"/>
      <point x="400" y="1132"/>
      <point x="208" y="1070"/>
      <point x="122" y="867" type="curve"/>
      <point x="295" y="810" type="line"/>
      <point x="330" y="888"/>
      <point x="418" y="974"/>
      <point x="578" y="974" type="curve" smooth="yes"/>
      <point x="733" y="974"/>
      <point x="810" y="893"/>
      <point x="810" y="755" type="curve" smooth="yes"/>
      <point x="810" y="404" type="line" smooth="yes"/>
      <point x="810" y="267"/>
      <point x="701" y="133"/>
      <point x="502" y="133" type="curve" smooth="yes"/>
      <point x="368" y="133"/>
      <point x="271" y="193"/>
      <point x="271" y="309" type="curve" smooth="yes"/>
      <point x="271" y="437"/>
      <point x="410" y="498"/>
      <point x="568" y="498" type="curve" smooth="yes"/>
      <point x="1779" y="498" type="line"/>
      <point x="1779" y="573" type="line" smooth="yes"/>
      <point x="1779" y="986"/>
      <point x="1532" y="1132"/>
      <point x="1295" y="1132" type="curve" smooth="yes"/>
      <point x="1094" y="1132"/>
      <point x="956" y="1029"/>
      <point x="882" y="865" type="curve"/>
      <point x="851" y="300" type="line"/>
      <point x="893" y="108"/>
      <point x="1066" y="-24"/>
      <point x="1311" y="-24" type="curve" smooth="yes"/>
      <point x="1543" y="-24"/>
      <point x="1709" y="93"/>
      <point x="1761" y="263" type="curve"/>
      <point x="1586" y="308" type="line"/>
      <point x="1543" y="194"/>
      <point x="1444" y="136"/>
      <point x="1311" y="136" type="curve" smooth="yes"/>
      <point x="1109" y="136"/>
      <point x="970" y="274"/>
      <point x="970" y="522" type="curve" smooth="yes"/>
      <point x="970" y="623" type="line" smooth="yes"/>
      <point x="970" y="804"/>
      <point x="1092" y="972"/>
      <point x="1295" y="972" type="curve" smooth="yes"/>
      <point x="1496" y="972"/>
      <point x="1618" y="805"/>
      <point x="1590" y="587" type="curve"/>
      <point x="1674" y="650" type="line"/>
      <point x="566" y="650" type="line" smooth="yes"/>
      <point x="347" y="650"/>
      <point x="90" y="573"/>
      <point x="90" y="318" type="curve" smooth="yes"/>
      <point x="90" y="98"/>
      <point x="259" y="-26"/>
    </contour>
  </outline>
</glyph>
<glyph name="eth" format="2">
  <advance width="1193"/>
  <unicode hex="00F0"/>
  <outline>
    <contour>
      <point x="967" y="1415" type="line"/>
      <point x="919" y="1525" type="line"/>
      <point x="317" y="1233" type="line"/>
      <point x="364" y="1123" type="line"/>
    </contour>
    <contour>
      <point x="597" y="-24" type="curve" smooth="yes"/>
      <point x="893" y="-24"/>
      <point x="1089" y="188"/>
      <point x="1089" y="548" type="curve" smooth="yes"/>
      <point x="1089" y="1060"/>
      <point x="734" y="1418"/>
      <point x="401" y="1581" type="curve"/>
      <point x="328" y="1456" type="line"/>
      <point x="668" y="1284"/>
      <point x="819" y="1044"/>
      <point x="886" y="861" type="curve"/>
      <point x="870" y="861" type="line"/>
      <point x="821" y="946"/>
      <point x="718" y="1047"/>
      <point x="551" y="1047" type="curve" smooth="yes"/>
      <point x="302" y="1047"/>
      <point x="104" y="827"/>
      <point x="104" y="512" type="curve" smooth="yes"/>
      <point x="104" y="200"/>
      <point x="296" y="-24"/>
    </contour>
    <contour>
      <point x="598" y="136" type="curve" smooth="yes"/>
      <point x="377" y="136"/>
      <point x="285" y="317"/>
      <point x="285" y="513" type="curve" smooth="yes"/>
      <point x="285" y="719"/>
      <point x="388" y="899"/>
      <point x="598" y="899" type="curve" smooth="yes"/>
      <point x="822" y="899"/>
      <point x="914" y="689"/>
      <point x="914" y="502" type="curve" smooth="yes"/>
      <point x="914" y="297"/>
      <point x="805" y="136"/>
    </contour>
  </outline>
</glyph>
<glyph name="divide" format="2">
  <advance width="1355"/>
  <unicode hex="00F7"/>
  <outline>
    <contour>
      <point x="1147" y="668" type="line"/>
      <point x="210" y="668" type="line"/>
      <point x="210" y="498" type="line"/>
      <point x="1147" y="498" type="line"/>
    </contour>
    <contour>
      <point x="677" y="72" type="curve" smooth="yes"/>
      <point x="750" y="72"/>
      <point x="809" y="131"/>
      <point x="809" y="205" type="curve" smooth="yes"/>
      <point x="809" y="277"/>
      <point x="750" y="336"/>
      <point x="677" y="336" type="curve" smooth="yes"/>
      <point x="604" y="336"/>
      <point x="544" y="277"/>
      <point x="544" y="205" type="curve" smooth="yes"/>
      <point x="544" y="131"/>
      <point x="604" y="72"/>
    </contour>
    <contour>
      <point x="677" y="830" type="curve" smooth="yes"/>
      <point x="750" y="830"/>
      <point x="809" y="888"/>
      <point x="809" y="963" type="curve" smooth="yes"/>
      <point x="809" y="1035"/>
      <point x="750" y="1095"/>
      <point x="677" y="1095" type="curve" smooth="yes"/>
      <point x="603" y="1095"/>
      <point x="544" y="1035"/>
      <point x="544" y="963" type="curve" smooth="yes"/>
      <point x="544" y="888"/>
      <point x="604" y="830"/>
    </contour>
  </outline>
</glyph>
<glyph name="Hbar" format="2">
  <advance width="1590"/>
  <unicode hex="0126"/>
  <anchor x="798" y="0" name="bottom"/>
  <anchor x="315" y="1" name="cedilla"/>
  <anchor x="1380" y="0" name="cyrtic"/>
  <anchor x="1190" y="0" name="lfthook"/>
  <anchor x="1380" y="0" name="right"/>
  <anchor x="218" y="1490" name="tonos"/>
  <anchor x="798" y="1490" name="top"/>
  <outline>
    <contour>
      <point x="1492" y="1176" type="line"/>
      <point x="98" y="1176" type="line"/>
      <point x="98" y="1024" type="line"/>
      <point x="1492" y="1024" type="line"/>
    </contour>
    <component base="H" xOffset="38"/>
  </outline>
</glyph>
<glyph name="idotless" format="2">
  <advance width="496"/>
  <unicode hex="0131"/>
  <anchor x="249" y="0" name="bottom"/>
  <anchor x="249" y="595" name="cross"/>
  <anchor x="338" y="0" name="ogonek"/>
  <anchor x="249" y="1118" name="top"/>
  <outline>
    <contour>
      <point x="158" y="0" type="line"/>
      <point x="338" y="0" type="line"/>
      <point x="338" y="1118" type="line"/>
      <point x="158" y="1118" type="line"/>
    </contour>
  </outline>
</glyph>
<glyph name="kgreenlandic" format="2">
  <advance width="1076"/>
  <unicode hex="0138"/>
  <outline>
    <contour>
      <point x="338" y="1118" type="line"/>
      <point x="158" y="1118" type="line"/>
      <point x="158" y="0" type="line"/>
      <point x="338" y="0" type="line"/>
    </contour>
    <contour>
      <point x="1048" y="1118" type="line"/>
      <point x="829" y="1118" type="line"/>
      <point x="430" y="622" type="line"/>
      <point x="270" y="622" type="line"/>
      <point x="270" y="494" type="line"/>
      <point x="517" y="494" type="line"/>
    </contour>
    <contour>
      <point x="818" y="0" type="line"/>
      <point x="1042" y="0" type="line"/>
      <point x="508" y="626" type="line"/>
      <point x="411" y="499" type="line"/>
    </contour>
  </outline>
</glyph>
<glyph name="OE" format="2">
  <advance width="2058"/>
  <unicode hex="0152"/>
  <anchor x="1466" y="0" name="bottom"/>
  <anchor x="1466" y="0" name="cedilla"/>
  <anchor x="1924" y="0" name="ogonek"/>
  <anchor x="1007" y="1490" name="tonos"/>
  <anchor x="1466" y="1490" name="top"/>
  <outline>
    <contour>
      <point x="791" y="0" type="curve" smooth="yes"/>
      <point x="1079" y="0" type="line"/>
      <point x="1079" y="168" type="line"/>
      <point x="791" y="168" type="line" smooth="yes"/>
      <point x="503" y="168"/>
      <point x="307" y="396"/>
      <point x="307" y="744" type="curve" smooth="yes"/>
      <point x="307" y="1097"/>
      <point x="503" y="1322"/>
      <point x="791" y="1322" type="curve" smooth="yes"/>
      <point x="1079" y="1322" type="line"/>
      <point x="1079" y="1490" type="line"/>
      <point x="791" y="1490" type="line" smooth="yes"/>
      <point x="398" y="1490"/>
      <point x="122" y="1193"/>
      <point x="122" y="744" type="curve" smooth="yes"/>
      <point x="122" y="300"/>
      <point x="398" y="0"/>
    </contour>
    <component base="E" xOffset="827"/>
  </outline>
</glyph>
<glyph name="tbar" format="2">
  <advance width="670"/>
  <unicode hex="0167"/>
  <anchor x="377" y="0" name="bottom"/>
  <anchor x="431" y="0" name="cedilla"/>
  <anchor x="629" y="6" name="lfthook"/>
  <anchor x="278" y="1384" name="top"/>
  <anchor x="484" y="1562" name="raccent"/>
  <outline>
    <contour>
      <point x="598" y="753" type="line"/>
      <point x="20" y="753" type="line"/>
      <point x="20" y="599" type="line"/>
      <point x="598" y="599" type="line"/>
    </contour>
    <component base="t"/>
  </outline>
</glyph>
<glyph name="Btopbar" format="2">
  <advance width="1344"/>
  <unicode hex="0182"/>
  <outline>
    <contour>
      <point x="180" y="0" type="line"/>
      <point x="738" y="0" type="line" smooth="yes"/>
      <point x="1061" y="0"/>
      <point x="1240" y="181"/>
      <point x="1240" y="443" type="curve" smooth="yes"/>
      <point x="1240" y="703"/>
      <point x="1061" y="870"/>
      <point x="738" y="870" type="curve" smooth="yes"/>
      <point x="370" y="870" type="line"/>
      <point x="370" y="1323" type="line"/>
      <point x="1087" y="1323" type="line"/>
      <point x="1087" y="1490" type="line"/>
      <point x="180" y="1490" type="line"/>
    </contour>
    <contour>
      <point x="370" y="165" type="line"/>
      <point x="370" y="703" type="line"/>
      <point x="738" y="703" type="line" smooth="yes"/>
      <point x="940" y="703"/>
      <point x="1052" y="586"/>
      <point x="1052" y="445" type="curve" smooth="yes"/>
      <point x="1052" y="302"/>
      <point x="940" y="165"/>
      <point x="738" y="165" type="curve" smooth="yes"/>
    </contour>
  </outline>
</glyph>
<glyph name="Tonesix" format="2">
  <advance width="1611"/>
  <unicode hex="0184"/>
  <anchor x="629" y="1179" name="cross"/>
  <outline>
    <contour>
      <point x="208.792" y="949.568" type="line"/>
      <point x="510.038" y="1490" type="line"/>
      <point x="303.962" y="1490" type="line"/>
      <point x="51.568" y="1037.208" type="line"/>
    </contour>
    <component base="Softsign-cy" xOffset="281"/>
  </outline>
</glyph>
<glyph name="Dtopbar" format="2">
  <advance width="1298"/>
  <unicode hex="018B"/>
  <outline>
    <contour>
      <point x="1178" y="0" type="line"/>
      <point x="1178" y="1460" type="line"/>
      <point x="275" y="1460" type="line"/>
      <point x="275" y="1283" type="line"/>
      <point x="964" y="1283" type="line"/>
      <point x="964" y="875" type="line"/>
      <point x="622" y="875" type="line" smooth="yes"/>
      <point x="300" y="875"/>
      <point x="120" y="702"/>
      <point x="120" y="443" type="curve" smooth="yes"/>
      <point x="120" y="181"/>
      <point x="301" y="0"/>
      <point x="622" y="0" type="curve" smooth="yes"/>
    </contour>
    <contour>
      <point x="964" y="173" type="line"/>
      <point x="622" y="173" type="line" smooth="yes"/>
      <point x="418" y="173"/>
      <point x="336" y="302"/>
      <point x="336" y="445" type="curve" smooth="yes"/>
      <point x="336" y="586"/>
      <point x="418" y="701"/>
      <point x="622" y="701" type="curve" smooth="yes"/>
      <point x="964" y="701" type="line"/>
    </contour>
  </outline>
</glyph>
<glyph name="deltaturn" format="2">
  <advance width="1112"/>
  <unicode hex="018D"/>
  <outline>
    <contour>
      <point x="905" y="-376" type="line"/>
      <point x="905" y="-253" type="line"/>
      <point x="812" y="-145"/>
      <point x="676" y="-32"/>
      <point x="561" y="73" type="curve"/>
      <point x="577" y="73"/>
      <point x="579" y="74"/>
      <point x="602" y="77" type="curve" smooth="yes"/>
      <point x="876" y="113"/>
      <point x="1044" y="309"/>
      <point x="1044" y="553" type="curve" smooth="yes"/>
      <point x="1044" y="573" type="line" smooth="yes"/>
      <point x="1044" y="903"/>
      <point x="863" y="1132"/>
      <point x="555" y="1132" type="curve" smooth="yes"/>
      <point x="248" y="1132"/>
      <point x="70" y="902"/>
      <point x="70" y="570" type="curve" smooth="yes"/>
      <point x="70" y="550" type="line" smooth="yes"/>
      <point x="70" y="325"/>
      <point x="219" y="152"/>
      <point x="435" y="-31" type="curve" smooth="yes"/>
      <point x="500" y="-86"/>
      <point x="605" y="-182"/>
      <point x="630" y="-215" type="curve"/>
      <point x="189" y="-215" type="line"/>
      <point x="189" y="-376" type="line"/>
    </contour>
    <contour>
      <point x="837" y="550" type="line"/>
      <point x="837" y="365"/>
      <point x="746" y="201"/>
      <point x="540" y="201" type="curve" smooth="yes"/>
      <point x="505" y="201"/>
      <point x="480" y="204"/>
      <point x="455" y="213" type="curve"/>
      <point x="362" y="273"/>
      <point x="276" y="394"/>
      <point x="276" y="550" type="curve" smooth="yes"/>
      <point x="276" y="570" type="line" smooth="yes"/>
      <point x="276" y="797"/>
      <point x="361" y="966"/>
      <point x="555" y="966" type="curve" smooth="yes"/>
      <point x="755" y="966"/>
      <point x="837" y="795"/>
      <point x="837" y="570" type="curve" smooth="yes"/>
    </contour>
  </outline>
</glyph>
<glyph name="Schwa" format="2">
  <advance width="1528"/>
  <unicode hex="018F"/>
  <outline>
    <contour>
      <point x="754" y="-20" type="curve" smooth="yes"/>
      <point x="1152" y="-20"/>
      <point x="1406" y="273"/>
      <point x="1406" y="744" type="curve" smooth="yes"/>
      <point x="1406" y="1217"/>
      <point x="1133" y="1510"/>
      <point x="750" y="1510" type="curve" smooth="yes"/>
      <point x="435" y="1510"/>
      <point x="192" y="1312"/>
      <point x="138" y="1023" type="curve"/>
      <point x="334" y="1023" type="line"/>
      <point x="396" y="1217"/>
      <point x="541" y="1334"/>
      <point x="750" y="1334" type="curve" smooth="yes"/>
      <point x="1013" y="1334"/>
      <point x="1221" y="1126"/>
      <point x="1221" y="744" type="curve" smooth="yes"/>
      <point x="1221" y="363"/>
      <point x="1028" y="156"/>
      <point x="754" y="156" type="curve" smooth="yes"/>
      <point x="503" y="156"/>
      <point x="314" y="326"/>
      <point x="314" y="594" type="curve"/>
      <point x="257" y="583" type="line"/>
      <point x="1295" y="583" type="line"/>
      <point x="1295" y="749" type="line"/>
      <point x="128" y="749" type="line"/>
      <point x="128" y="586" type="line" smooth="yes"/>
      <point x="128" y="216"/>
      <point x="399" y="-20"/>
    </contour>
  </outline>
</glyph>
<glyph name="florin" format="2">
  <advance width="798"/>
  <unicode hex="0192"/>
  <outline>
    <contour>
      <point x="672" y="1082" type="line"/>
      <point x="467" y="1082" type="line"/>
      <point x="467" y="1191" type="line" smooth="yes"/>
      <point x="467" y="1317"/>
      <point x="528" y="1379"/>
      <point x="643" y="1379" type="curve" smooth="yes"/>
      <point x="678" y="1379"/>
      <point x="705" y="1374"/>
      <point x="725" y="1369" type="curve"/>
      <point x="768" y="1530" type="line"/>
      <point x="729" y="1545"/>
      <point x="652" y="1556"/>
      <point x="596" y="1556" type="curve" smooth="yes"/>
      <point x="411" y="1556"/>
      <point x="278" y="1428"/>
      <point x="278" y="1191" type="curve" smooth="yes"/>
      <point x="278" y="1082" type="line"/>
      <point x="97" y="1082" type="line"/>
      <point x="97" y="929" type="line"/>
      <point x="278" y="929" type="line"/>
      <point x="278" y="-69" type="line" smooth="yes"/>
      <point x="278" y="-184"/>
      <point x="221" y="-252"/>
      <point x="142" y="-252" type="curve" smooth="yes"/>
      <point x="126" y="-252"/>
      <point x="65" y="-250"/>
      <point x="44" y="-242" type="curve"/>
      <point x="30" y="-404" type="line"/>
      <point x="68" y="-416"/>
      <point x="104" y="-418"/>
      <point x="145" y="-418" type="curve" smooth="yes"/>
      <point x="351" y="-418"/>
      <point x="467" y="-296"/>
      <point x="467" y="-69" type="curve" smooth="yes"/>
      <point x="467" y="929" type="line"/>
      <point x="672" y="929" type="line"/>
    </contour>
  </outline>
</glyph>
<glyph name="Gamma1" format="2">
  <advance width="1302"/>
  <unicode hex="0194"/>
  <outline>
    <contour>
      <point x="20" y="1490" type="line"/>
      <point x="621" y="116" type="line" smooth="yes"/>
      <point x="695" y="-53"/>
      <point x="737" y="-135"/>
      <point x="737" y="-194" type="curve" smooth="yes"/>
      <point x="737" y="-238"/>
      <point x="702" y="-276"/>
      <point x="651" y="-276" type="curve" smooth="yes"/>
      <point x="599" y="-276"/>
      <point x="565" y="-240"/>
      <point x="565" y="-194" type="curve" smooth="yes"/>
      <point x="565" y="-136"/>
      <point x="610" y="-54"/>
      <point x="684" y="116" type="curve" smooth="yes"/>
      <point x="1282" y="1490" type="line"/>
      <point x="1074" y="1490" type="line"/>
      <point x="566" y="300" type="line" smooth="yes"/>
      <point x="446" y="19"/>
      <point x="374" y="-97"/>
      <point x="374" y="-195" type="curve" smooth="yes"/>
      <point x="374" y="-354"/>
      <point x="479" y="-442"/>
      <point x="651" y="-442" type="curve" smooth="yes"/>
      <point x="824" y="-442"/>
      <point x="928" y="-353"/>
      <point x="928" y="-196" type="curve" smooth="yes"/>
      <point x="928" y="-102"/>
      <point x="846" y="28"/>
      <point x="731" y="300" type="curve" smooth="yes"/>
      <point x="228" y="1490" type="line"/>
    </contour>
  </outline>
</glyph>
<glyph name="hv" format="2">
  <advance width="1949"/>
  <unicode hex="0195"/>
  <outline>
    <contour>
      <point x="1260" y="-20" type="curve" smooth="yes"/>
      <point x="1565" y="-20"/>
      <point x="1791" y="271"/>
      <point x="1791" y="968" type="curve" smooth="yes"/>
      <point x="1791" y="1118" type="line"/>
      <point x="1608" y="1118" type="line"/>
      <point x="1608" y="968" type="line" smooth="yes"/>
      <point x="1608" y="358"/>
      <point x="1452" y="138"/>
      <point x="1272" y="138" type="curve" smooth="yes"/>
      <point x="1186" y="138"/>
      <point x="1064" y="188"/>
      <point x="1064" y="441" type="curve" smooth="yes"/>
      <point x="1064" y="710" type="line" smooth="yes"/>
      <point x="1064" y="995"/>
      <point x="910" y="1132"/>
      <point x="682" y="1132" type="curve" smooth="yes"/>
      <point x="509" y="1132"/>
      <point x="406" y="1060"/>
      <point x="353" y="940" type="curve"/>
      <point x="338" y="940" type="line"/>
      <point x="338" y="1490" type="line"/>
      <point x="158" y="1490" type="line"/>
      <point x="158" y="0" type="line"/>
      <point x="338" y="0" type="line"/>
      <point x="338" y="670" type="line" smooth="yes"/>
      <point x="338" y="861"/>
      <point x="460" y="970"/>
      <point x="626" y="970" type="curve" smooth="yes"/>
      <point x="786" y="970"/>
      <point x="882" y="870"/>
      <point x="882" y="695" type="curve" smooth="yes"/>
      <point x="882" y="441" type="line" smooth="yes"/>
      <point x="882" y="122"/>
      <point x="1047" y="-20"/>
    </contour>
  </outline>
</glyph>
<glyph name="Khook" format="2">
  <advance width="1389"/>
  <unicode hex="0198"/>
  <outline>
    <contour>
      <point x="180" y="0" type="line"/>
      <point x="370" y="0" type="line"/>
      <point x="370" y="475" type="line"/>
      <point x="556" y="684" type="line"/>
      <point x="1068" y="0" type="line"/>
      <point x="1298" y="0" type="line"/>
      <point x="674" y="817" type="line"/>
      <point x="1093" y="1266" type="line" smooth="yes"/>
      <point x="1165" y="1343"/>
      <point x="1230" y="1353"/>
      <point x="1297" y="1311" type="curve"/>
      <point x="1371" y="1451" type="line"/>
      <point x="1246" y="1538"/>
      <point x="1089" y="1529"/>
      <point x="971" y="1399" type="curve" smooth="yes"/>
      <point x="388" y="757" type="line"/>
      <point x="370" y="757" type="line"/>
      <point x="370" y="1490" type="line"/>
      <point x="180" y="1490" type="line"/>
    </contour>
  </outline>
</glyph>
<glyph name="mcapturn" format="2">
  <advance width="1859"/>
  <unicode hex="019C"/>
  <outline>
    <contour>
      <point x="1487" y="215" type="line"/>
      <point x="1498" y="0" type="line"/>
      <point x="1693" y="0" type="line"/>
      <point x="1693" y="1490" type="line"/>
      <point x="1487" y="1490" type="line"/>
    </contour>
    <contour>
      <point x="1504" y="504" type="line"/>
      <point x="1503" y="329"/>
      <point x="1446" y="152"/>
      <point x="1220" y="152" type="curve" smooth="yes"/>
      <point x="1126" y="152"/>
      <point x="1032" y="210"/>
      <point x="1032" y="441" type="curve"/>
      <point x="1032" y="1490" type="line"/>
      <point x="826" y="1490" type="line"/>
      <point x="826" y="441" type="line"/>
      <point x="826" y="93"/>
      <point x="970" y="-20"/>
      <point x="1183" y="-20" type="curve" smooth="yes"/>
      <point x="1478" y="-20"/>
      <point x="1596" y="204"/>
      <point x="1596" y="506" type="curve"/>
    </contour>
    <contour>
      <point x="846" y="504" type="line"/>
      <point x="846" y="373"/>
      <point x="813" y="152"/>
      <point x="557" y="152" type="curve" smooth="yes"/>
      <point x="465" y="152"/>
      <point x="374" y="210"/>
      <point x="374" y="441" type="curve" smooth="yes"/>
      <point x="374" y="1490" type="line"/>
      <point x="166" y="1490" type="line"/>
      <point x="166" y="441" type="line" smooth="yes"/>
      <point x="166" y="96"/>
      <point x="304" y="-20"/>
      <point x="521" y="-20" type="curve" smooth="yes"/>
      <point x="817" y="-20"/>
      <point x="939" y="203"/>
      <point x="938" y="506" type="curve"/>
    </contour>
  </outline>
</glyph>
<glyph name="Ohorn" format="2">
  <advance width="1560"/>
  <unicode hex="01A0"/>
  <anchor x="784" y="0" name="bottom"/>
  <anchor x="784" y="745" name="center"/>
  <anchor x="1444" y="744" name="ogonek"/>
  <anchor x="262" y="1490" name="tonos"/>
  <anchor x="784" y="1490" name="top"/>
  <anchor x="784" y="1510" name="tophorn"/>
  <outline>
    <contour>
      <point x="780" y="1386" type="line"/>
      <point x="1123" y="1386"/>
      <point x="1165" y="1346"/>
      <point x="1268" y="1346" type="curve" smooth="yes"/>
      <point x="1382" y="1346"/>
      <point x="1438" y="1402"/>
      <point x="1438" y="1516" type="curve" smooth="yes"/>
      <point x="1438" y="1698" type="line"/>
      <point x="1268" y="1698" type="line"/>
      <point x="1268" y="1508" type="line" smooth="yes"/>
      <point x="1268" y="1497"/>
      <point x="1261" y="1490"/>
      <point x="1250" y="1490" type="curve" smooth="yes"/>
      <point x="910" y="1490"/>
      <point x="937" y="1510"/>
      <point x="780" y="1510" type="curve"/>
    </contour>
    <component base="O"/>
  </outline>
</glyph>
<glyph name="ohorn" format="2">
  <advance width="1222"/>
  <unicode hex="01A1"/>
  <anchor x="613" y="0" name="bottom"/>
  <anchor x="613" y="559" name="center"/>
  <anchor x="1124" y="552" name="ogonek"/>
  <anchor x="613" y="1118" name="top"/>
  <anchor x="613" y="1132" name="tophorn"/>
  <outline>
    <contour>
      <point x="611" y="1014" type="line"/>
      <point x="730" y="1014"/>
      <point x="865" y="1014"/>
      <point x="984" y="1014" type="curve" smooth="yes"/>
      <point x="1098" y="1014"/>
      <point x="1154" y="1065"/>
      <point x="1154" y="1168" type="curve" smooth="yes"/>
      <point x="1154" y="1366" type="line"/>
      <point x="986" y="1366" type="line"/>
      <point x="986" y="1152" type="line" smooth="yes"/>
      <point x="986" y="1130"/>
      <point x="974" y="1118"/>
      <point x="952" y="1118" type="curve" smooth="yes"/>
      <point x="836" y="1118"/>
      <point x="727" y="1132"/>
      <point x="611" y="1132" type="curve"/>
    </contour>
    <component base="o"/>
  </outline>
</glyph>
<glyph name="OI" format="2">
  <advance width="1784"/>
  <unicode hex="01A2"/>
  <outline>
    <contour>
      <point x="1253" y="769" type="line" name="hr00"/>
      <point x="1047" y="769" type="line"/>
      <point x="1047" y="254" type="line"/>
      <point x="985" y="188"/>
      <point x="880" y="152"/>
      <point x="759" y="152" type="curve" smooth="yes"/>
      <point x="477" y="152"/>
      <point x="337" y="347"/>
      <point x="337" y="679" type="curve" smooth="yes"/>
      <point x="337" y="805" type="line"/>
      <point x="122" y="801" type="line"/>
      <point x="122" y="679" type="line" smooth="yes"/>
      <point x="122" y="249"/>
      <point x="354" y="-20"/>
      <point x="747" y="-20" type="curve" smooth="yes"/>
      <point x="968" y="-20"/>
      <point x="1163" y="61"/>
      <point x="1253" y="197" type="curve"/>
    </contour>
    <contour>
      <point x="1253" y="1293" type="line"/>
      <point x="1167" y="1423"/>
      <point x="976" y="1510"/>
      <point x="764" y="1510" type="curve" smooth="yes"/>
      <point x="362" y="1510"/>
      <point x="122" y="1249"/>
      <point x="122" y="811" type="curve" smooth="yes"/>
      <point x="122" y="696" type="line"/>
      <point x="337" y="696" type="line"/>
      <point x="337" y="811" type="line" smooth="yes"/>
      <point x="337" y="1154"/>
      <point x="481" y="1336"/>
      <point x="763" y="1336" type="curve" smooth="yes"/>
      <point x="879" y="1336"/>
      <point x="989" y="1298"/>
      <point x="1047" y="1232" type="curve"/>
      <point x="1047" y="733" type="line"/>
      <point x="1253" y="733" type="line"/>
    </contour>
    <contour>
      <point x="1604" y="1490" type="line"/>
      <point x="1444" y="1490" type="line"/>
      <point x="1156" y="1371" type="line"/>
      <point x="1156" y="1191" type="line"/>
      <point x="1396" y="1280" type="line"/>
      <point x="1396" y="-418" type="line"/>
      <point x="1604" y="-418" type="line"/>
    </contour>
  </outline>
</glyph>
<glyph name="oi" format="2">
  <advance width="1307"/>
  <unicode hex="01A3"/>
  <outline>
    <contour>
      <point x="558" y="146" type="curve" smooth="yes"/>
      <point x="383" y="146"/>
      <point x="278" y="286"/>
      <point x="278" y="521" type="curve" smooth="yes"/>
      <point x="278" y="561" type="line" smooth="yes"/>
      <point x="278" y="772"/>
      <point x="338" y="966"/>
      <point x="552" y="966" type="curve" smooth="yes"/>
      <point x="616" y="966"/>
      <point x="664" y="948"/>
      <point x="703" y="919" type="curve"/>
      <point x="703" y="516" type="line"/>
      <point x="911" y="514" type="line"/>
      <point x="911" y="971" type="line"/>
      <point x="833" y="1071"/>
      <point x="709" y="1132"/>
      <point x="558" y="1132" type="curve" smooth="yes"/>
      <point x="228" y="1132"/>
      <point x="70" y="880"/>
      <point x="70" y="561" type="curve" smooth="yes"/>
      <point x="70" y="521" type="line" smooth="yes"/>
      <point x="70" y="232"/>
      <point x="234" y="-20"/>
      <point x="549" y="-20" type="curve" smooth="yes"/>
      <point x="708" y="-20"/>
      <point x="829" y="43"/>
      <point x="911" y="141" type="curve"/>
      <point x="911" y="550" type="line"/>
      <point x="703" y="550" type="line"/>
      <point x="703" y="190" type="line"/>
      <point x="662" y="163"/>
      <point x="619" y="146"/>
    </contour>
    <contour>
      <point x="1237" y="1118" type="line"/>
      <point x="1076" y="1118" type="line"/>
      <point x="812" y="983" type="line"/>
      <point x="812" y="726" type="line"/>
      <point x="1031" y="852" type="line"/>
      <point x="1031" y="-418" type="line"/>
      <point x="1237" y="-418" type="line"/>
    </contour>
  </outline>
</glyph>
<glyph name="YR" format="2">
  <advance width="1486"/>
  <unicode hex="01A6"/>
  <outline>
    <contour>
      <point x="110" y="1390" type="line" name="hr00"/>
      <point x="328" y="1390" type="line"/>
      <point x="328" y="1592" type="line"/>
      <point x="110" y="1592" type="line"/>
    </contour>
    <contour>
      <point x="110" y="1490" type="line"/>
      <point x="110" y="0" type="line"/>
      <point x="328" y="0" type="line"/>
      <point x="328" y="1315" type="line"/>
      <point x="602" y="1315" type="line" smooth="yes"/>
      <point x="816" y="1315"/>
      <point x="903" y="1210"/>
      <point x="903" y="1050" type="curve" smooth="yes"/>
      <point x="903" y="902"/>
      <point x="802" y="788"/>
      <point x="602" y="788" type="curve" smooth="yes"/>
      <point x="277" y="788" type="line"/>
      <point x="277" y="617" type="line"/>
      <point x="722" y="617" type="line"/>
      <point x="780" y="640" type="line"/>
      <point x="992" y="699"/>
      <point x="1117" y="848"/>
      <point x="1117" y="1052" type="curve" smooth="yes"/>
      <point x="1117" y="1336"/>
      <point x="935" y="1490"/>
      <point x="602" y="1490" type="curve" smooth="yes"/>
    </contour>
    <contour>
      <point x="1145" y="-359" type="line"/>
      <point x="1376" y="-359" type="line"/>
      <point x="1376" y="-349" type="line"/>
      <point x="829" y="663" type="line"/>
      <point x="602" y="663" type="line"/>
    </contour>
  </outline>
</glyph>
<glyph name="tonetwo" format="2">
  <advance width="1081"/>
  <unicode hex="01A8"/>
  <anchor x="530" y="0" name="bottom"/>
  <anchor x="531" y="0" name="cedilla"/>
  <anchor x="524" y="1118" name="top"/>
  <outline>
    <contour>
      <point x="122" y="861" type="curve"/>
      <point x="286" y="821" type="line"/>
      <point x="317" y="902"/>
      <point x="381" y="979"/>
      <point x="524" y="979" type="curve" smooth="yes"/>
      <point x="657" y="979"/>
      <point x="757" y="910"/>
      <point x="757" y="817" type="curve" smooth="yes"/>
      <point x="757" y="734"/>
      <point x="700" y="688"/>
      <point x="569" y="657" type="curve" smooth="yes"/>
      <point x="400" y="617" type="line" smooth="yes"/>
      <point x="193" y="568"/>
      <point x="102" y="465"/>
      <point x="102" y="315" type="curve" smooth="yes"/>
      <point x="102" y="120"/>
      <point x="280" y="-24"/>
      <point x="543" y="-24" type="curve" smooth="yes"/>
      <point x="778" y="-24"/>
      <point x="934" y="82"/>
      <point x="973" y="272" type="curve"/>
      <point x="800" y="310" type="line"/>
      <point x="770" y="193"/>
      <point x="684" y="133"/>
      <point x="544" y="133" type="curve" smooth="yes"/>
      <point x="389" y="133"/>
      <point x="288" y="210"/>
      <point x="288" y="303" type="curve" smooth="yes"/>
      <point x="288" y="380"/>
      <point x="343" y="431"/>
      <point x="453" y="457" type="curve" smooth="yes"/>
      <point x="639" y="501" type="line" smooth="yes"/>
      <point x="842" y="549"/>
      <point x="939" y="649"/>
      <point x="939" y="806" type="curve" smooth="yes"/>
      <point x="939" y="998"/>
      <point x="763" y="1132"/>
      <point x="524" y="1132" type="curve" smooth="yes"/>
      <point x="294" y="1132"/>
      <point x="172" y="1020"/>
    </contour>
  </outline>
</glyph>
<glyph name="eshlooprev" format="2">
  <advance width="1120"/>
  <unicode hex="01AA"/>
  <outline>
    <contour>
      <point x="598" y="1123" type="line" name="hr00"/>
      <point x="598" y="-67" type="line" smooth="yes"/>
      <point x="598" y="-296"/>
      <point x="695" y="-419"/>
      <point x="887" y="-419" type="curve" smooth="yes"/>
      <point x="924" y="-419"/>
      <point x="976" y="-414"/>
      <point x="1006" y="-403" type="curve"/>
      <point x="1006" y="-239" type="line"/>
      <point x="985" y="-245"/>
      <point x="958" y="-249"/>
      <point x="940" y="-249" type="curve" smooth="yes"/>
      <point x="853" y="-249"/>
      <point x="806" y="-201"/>
      <point x="806" y="-67" type="curve" smooth="yes"/>
      <point x="806" y="1213" type="line"/>
    </contour>
    <contour>
      <point x="114" y="1213" type="curve" smooth="yes"/>
      <point x="114" y="1024"/>
      <point x="268" y="867"/>
      <point x="460" y="867" type="curve" smooth="yes"/>
      <point x="649" y="867"/>
      <point x="806" y="1025"/>
      <point x="806" y="1213" type="curve" smooth="yes"/>
      <point x="806" y="1405"/>
      <point x="649" y="1558"/>
      <point x="460" y="1558" type="curve" smooth="yes"/>
      <point x="267" y="1558"/>
      <point x="114" y="1405"/>
    </contour>
    <contour>
      <point x="460" y="1057" type="curve" smooth="yes"/>
      <point x="373" y="1057"/>
      <point x="306" y="1109"/>
      <point x="306" y="1217" type="curve" smooth="yes"/>
      <point x="306" y="1321"/>
      <point x="373" y="1376"/>
      <point x="460" y="1376" type="curve" smooth="yes"/>
      <point x="543" y="1376"/>
      <point x="611" y="1321"/>
      <point x="611" y="1217" type="curve" smooth="yes"/>
      <point x="611" y="1109"/>
      <point x="543" y="1057"/>
    </contour>
  </outline>
</glyph>
<glyph name="thook" format="2">
  <advance width="661"/>
  <unicode hex="01AD"/>
  <anchor x="368" y="1118" name="_topr"/>
  <anchor x="372" y="0" name="bottom"/>
  <anchor x="325" y="1490" name="top"/>
  <outline>
    <contour>
      <point x="188" y="1118" type="line"/>
      <point x="188" y="274" type="line" smooth="yes"/>
      <point x="188" y="103"/>
      <point x="312" y="-14"/>
      <point x="492" y="-14" type="curve" smooth="yes"/>
      <point x="539" y="-14"/>
      <point x="588" y="-6"/>
      <point x="620" y="6" type="curve"/>
      <point x="584" y="160" type="line"/>
      <point x="554" y="154"/>
      <point x="531" y="152"/>
      <point x="508" y="152" type="curve" smooth="yes"/>
      <point x="404" y="152"/>
      <point x="358" y="204"/>
      <point x="358" y="320" type="curve" smooth="yes"/>
      <point x="358" y="1118" type="line"/>
    </contour>
    <contour>
      <point x="598" y="1118" type="line"/>
      <point x="20" y="1118" type="line"/>
      <point x="20" y="972" type="line"/>
      <point x="598" y="972" type="line"/>
    </contour>
    <component base="_part.top_r_hook" xOffset="36"/>
  </outline>
</glyph>
<glyph name="Uhorn" format="2">
  <advance width="1518"/>
  <unicode hex="01AF"/>
  <anchor x="763" y="0" name="bottom"/>
  <anchor x="1344" y="507" name="ogonek"/>
  <anchor x="849" y="0" name="right"/>
  <anchor x="1154" y="1490" name="rtophorn"/>
  <anchor x="763" y="1490" name="top"/>
  <outline>
    <contour>
      <point x="1158" y="1346" type="line"/>
      <point x="1356" y="1346" type="line" smooth="yes"/>
      <point x="1470" y="1346"/>
      <point x="1526" y="1402"/>
      <point x="1526" y="1516" type="curve" smooth="yes"/>
      <point x="1526" y="1698" type="line"/>
      <point x="1356" y="1698" type="line"/>
      <point x="1356" y="1508" type="line" smooth="yes"/>
      <point x="1356" y="1497"/>
      <point x="1349" y="1490"/>
      <point x="1338" y="1490" type="curve" smooth="yes"/>
      <point x="1158" y="1490" type="line"/>
    </contour>
    <component base="U"/>
  </outline>
</glyph>
<glyph name="uhorn" format="2">
  <advance width="1269"/>
  <unicode hex="01B0"/>
  <anchor x="606" y="0" name="bottom"/>
  <anchor x="1053" y="0" name="ogonek"/>
  <anchor x="872" y="1118" name="rtophorn"/>
  <anchor x="605" y="1118" name="top"/>
  <outline>
    <contour>
      <point x="944" y="998" type="line"/>
      <point x="1058" y="998" type="line" smooth="yes"/>
      <point x="1172" y="998"/>
      <point x="1228" y="1054"/>
      <point x="1228" y="1168" type="curve" smooth="yes"/>
      <point x="1228" y="1366" type="line"/>
      <point x="1068" y="1366" type="line"/>
      <point x="1068" y="1152" type="line" smooth="yes"/>
      <point x="1068" y="1128"/>
      <point x="1058" y="1118"/>
      <point x="1034" y="1118" type="curve" smooth="yes"/>
      <point x="944" y="1118" type="line"/>
    </contour>
    <component base="u"/>
  </outline>
</glyph>
<glyph name="Upsilon2" format="2">
  <advance width="1567"/>
  <unicode hex="01B1"/>
  <outline>
    <contour>
      <point x="122" y="702" type="curve" smooth="yes"/>
      <point x="122" y="278"/>
      <point x="398" y="-20"/>
      <point x="783" y="-20" type="curve" smooth="yes"/>
      <point x="1169" y="-20"/>
      <point x="1445" y="278"/>
      <point x="1445" y="702" type="curve" smooth="yes"/>
      <point x="1445" y="984"/>
      <point x="1324" y="1191"/>
      <point x="1135" y="1311" type="curve"/>
      <point x="1135" y="1323" type="line"/>
      <point x="1445" y="1323" type="line"/>
      <point x="1445" y="1490" type="line"/>
      <point x="910" y="1490" type="line"/>
      <point x="910" y="1277" type="line"/>
      <point x="1100" y="1196"/>
      <point x="1258" y="978"/>
      <point x="1258" y="704" type="curve" smooth="yes"/>
      <point x="1258" y="397"/>
      <point x="1061" y="156"/>
      <point x="783" y="156" type="curve" smooth="yes"/>
      <point x="505" y="156"/>
      <point x="307" y="397"/>
      <point x="307" y="704" type="curve" smooth="yes"/>
      <point x="307" y="978"/>
      <point x="467" y="1196"/>
      <point x="657" y="1277" type="curve"/>
      <point x="657" y="1490" type="line"/>
      <point x="122" y="1490" type="line"/>
      <point x="122" y="1323" type="line"/>
      <point x="432" y="1323" type="line"/>
      <point x="432" y="1311" type="line"/>
      <point x="242" y="1188"/>
      <point x="122" y="984"/>
    </contour>
  </outline>
</glyph>
<glyph name="Vcursive" format="2">
  <advance width="1299"/>
  <unicode hex="01B2"/>
  <outline>
    <contour>
      <point x="650" y="-20" type="curve" smooth="yes"/>
      <point x="936" y="-20"/>
      <point x="1185" y="145"/>
      <point x="1185" y="474" type="curve" smooth="yes"/>
      <point x="1185" y="1155" type="line" smooth="yes"/>
      <point x="1185" y="1383"/>
      <point x="1046" y="1510"/>
      <point x="863" y="1510" type="curve" smooth="yes"/>
      <point x="819" y="1510"/>
      <point x="771" y="1502"/>
      <point x="737" y="1492" type="curve"/>
      <point x="737" y="1325" type="line"/>
      <point x="756" y="1330"/>
      <point x="789" y="1331"/>
      <point x="807" y="1331" type="curve" smooth="yes"/>
      <point x="909" y="1331"/>
      <point x="967" y="1286"/>
      <point x="967" y="1155" type="curve" smooth="yes"/>
      <point x="967" y="474" type="line" smooth="yes"/>
      <point x="967" y="253"/>
      <point x="843" y="152"/>
      <point x="650" y="152" type="curve" smooth="yes"/>
      <point x="455" y="152"/>
      <point x="330" y="253"/>
      <point x="330" y="474" type="curve" smooth="yes"/>
      <point x="330" y="1490" type="line"/>
      <point x="116" y="1490" type="line"/>
      <point x="116" y="474" type="line" smooth="yes"/>
      <point x="116" y="144"/>
      <point x="348" y="-20"/>
    </contour>
  </outline>
</glyph>
<glyph name="Yhook" format="2">
  <advance width="1460"/>
  <unicode hex="01B3"/>
  <outline>
    <contour>
      <point x="674" y="764" type="line"/>
      <point x="710" y="764" type="line"/>
      <point x="710" y="798" type="line"/>
      <point x="674" y="798" type="line"/>
    </contour>
    <contour>
      <point x="56" y="1490" type="line"/>
      <point x="597" y="611" type="line"/>
      <point x="597" y="0" type="line"/>
      <point x="787" y="0" type="line"/>
      <point x="787" y="611" type="line"/>
      <point x="1183" y="1258" type="line" smooth="yes"/>
      <point x="1235" y="1343"/>
      <point x="1298" y="1355"/>
      <point x="1370" y="1325" type="curve"/>
      <point x="1420" y="1478" type="line"/>
      <point x="1272" y="1546"/>
      <point x="1119" y="1502"/>
      <point x="1022" y="1339" type="curve" smooth="yes"/>
      <point x="692" y="784" type="line"/>
      <point x="272" y="1490" type="line"/>
    </contour>
  </outline>
</glyph>
<glyph name="yhook" format="2">
  <advance width="1390"/>
  <unicode hex="01B4"/>
  <anchor x="856" y="0" name="bottom"/>
  <anchor x="666" y="0" name="ogonek"/>
  <anchor x="576" y="1118" name="top"/>
  <outline>
    <contour>
      <point x="900" y="1118" type="line"/>
      <point x="1086" y="1118" type="line"/>
      <point x="1138" y="1254" type="line" smooth="yes"/>
      <point x="1163" y="1320"/>
      <point x="1189" y="1356"/>
      <point x="1302" y="1356" type="curve" smooth="yes"/>
      <point x="1318" y="1356"/>
      <point x="1339" y="1355"/>
      <point x="1358" y="1352" type="curve"/>
      <point x="1358" y="1496" type="line"/>
      <point x="1329" y="1501"/>
      <point x="1284" y="1504"/>
      <point x="1239" y="1504" type="curve" smooth="yes"/>
      <point x="1054" y="1504"/>
      <point x="1004" y="1407"/>
      <point x="949" y="1254" type="curve" smooth="yes"/>
    </contour>
    <component base="y"/>
  </outline>
</glyph>
<glyph name="Ezh" format="2">
  <advance width="1402"/>
  <unicode hex="01B7"/>
  <anchor x="700" y="1490" name="top"/>
  <outline>
    <contour>
      <point x="98" y="67" type="line"/>
      <point x="115" y="-233"/>
      <point x="367" y="-440"/>
      <point x="689" y="-440" type="curve" smooth="yes"/>
      <point x="1046" y="-440"/>
      <point x="1286" y="-179"/>
      <point x="1286" y="182" type="curve" smooth="yes"/>
      <point x="1286" y="531"/>
      <point x="1055" y="779"/>
      <point x="725" y="794" type="curve"/>
      <point x="725" y="808" type="line"/>
      <point x="1248" y="1351" type="line"/>
      <point x="1248" y="1490" type="line"/>
      <point x="184" y="1490" type="line"/>
      <point x="184" y="1319" type="line"/>
      <point x="987" y="1319" type="line"/>
      <point x="987" y="1307" type="line"/>
      <point x="495" y="803" type="line"/>
      <point x="495" y="648" type="line"/>
      <point x="611" y="648" type="line" smooth="yes"/>
      <point x="896" y="648"/>
      <point x="1097" y="466"/>
      <point x="1097" y="180" type="curve" smooth="yes"/>
      <point x="1097" y="-75"/>
      <point x="941" y="-270"/>
      <point x="692" y="-270" type="curve" smooth="yes"/>
      <point x="483" y="-270"/>
      <point x="306" y="-134"/>
      <point x="292" y="67" type="curve"/>
    </contour>
  </outline>
</glyph>
<glyph name="Ezhreversed" format="2">
  <advance width="1402"/>
  <unicode hex="01B8"/>
  <anchor x="701" y="1490" name="top"/>
  <outline>
    <contour>
      <point x="1304" y="67" type="curve"/>
      <point x="1110" y="67" type="line"/>
      <point x="1096" y="-133"/>
      <point x="921" y="-270"/>
      <point x="709" y="-270" type="curve" smooth="yes"/>
      <point x="462" y="-270"/>
      <point x="305" y="-75"/>
      <point x="305" y="180" type="curve" smooth="yes"/>
      <point x="305" y="466"/>
      <point x="507" y="648"/>
      <point x="793" y="648" type="curve" smooth="yes"/>
      <point x="906" y="648" type="line"/>
      <point x="906" y="803" type="line"/>
      <point x="415" y="1307" type="line"/>
      <point x="415" y="1319" type="line"/>
      <point x="1220" y="1319" type="line"/>
      <point x="1220" y="1490" type="line"/>
      <point x="154" y="1490" type="line"/>
      <point x="154" y="1351" type="line"/>
      <point x="677" y="808" type="line"/>
      <point x="677" y="794" type="line"/>
      <point x="349" y="779"/>
      <point x="116" y="532"/>
      <point x="116" y="182" type="curve" smooth="yes"/>
      <point x="116" y="-179"/>
      <point x="356" y="-440"/>
      <point x="713" y="-440" type="curve" smooth="yes"/>
      <point x="1034" y="-440"/>
      <point x="1287" y="-234"/>
    </contour>
  </outline>
</glyph>
<glyph name="ezhreversed" format="2">
  <advance width="1270"/>
  <unicode hex="01B9"/>
  <anchor x="627" y="1118" name="top"/>
  <outline>
    <contour>
      <point x="637" y="-392" type="curve" smooth="yes"/>
      <point x="908" y="-392"/>
      <point x="1128" y="-244"/>
      <point x="1145" y="4" type="curve"/>
      <point x="951" y="4" type="line"/>
      <point x="936" y="-143"/>
      <point x="805" y="-225"/>
      <point x="633" y="-225" type="curve" smooth="yes"/>
      <point x="451" y="-225"/>
      <point x="311" y="-132"/>
      <point x="311" y="48" type="curve" smooth="yes"/>
      <point x="311" y="207"/>
      <point x="417" y="347"/>
      <point x="686" y="347" type="curve" smooth="yes"/>
      <point x="807" y="347" type="line"/>
      <point x="807" y="499" type="line"/>
      <point x="438" y="939" type="line"/>
      <point x="438" y="951" type="line"/>
      <point x="1071" y="951" type="line"/>
      <point x="1071" y="1118" type="line"/>
      <point x="179" y="1118" type="line"/>
      <point x="179" y="979" type="line"/>
      <point x="580" y="503" type="line"/>
      <point x="580" y="491" type="line"/>
      <point x="319" y="478"/>
      <point x="122" y="292"/>
      <point x="122" y="46" type="curve" smooth="yes"/>
      <point x="122" y="-208"/>
      <point x="335" y="-392"/>
    </contour>
  </outline>
</glyph>
<glyph name="ezhtail" format="2">
  <advance width="1109"/>
  <unicode hex="01BA"/>
  <outline>
    <contour>
      <point x="146" y="1118" type="line" name="hr00"/>
      <point x="146" y="952" type="line"/>
      <point x="716" y="952" type="line"/>
      <point x="343" y="622" type="line"/>
      <point x="343" y="492" type="line"/>
      <point x="452" y="492" type="line"/>
      <point x="1019" y="990" type="line"/>
      <point x="1019" y="1118" type="line"/>
    </contour>
    <contour>
      <point x="297" y="-131" type="curve" smooth="yes"/>
      <point x="297" y="-63"/>
      <point x="340" y="3"/>
      <point x="536" y="45" type="curve" smooth="yes"/>
      <point x="782" y="98"/>
      <point x="933" y="178"/>
      <point x="933" y="365" type="curve" smooth="yes"/>
      <point x="933" y="537"/>
      <point x="771" y="656"/>
      <point x="522" y="656" type="curve" smooth="yes"/>
      <point x="453" y="656" type="line"/>
      <point x="441" y="492" type="line"/>
      <point x="522" y="492" type="line" smooth="yes"/>
      <point x="665" y="492"/>
      <point x="724" y="447"/>
      <point x="724" y="372" type="curve" smooth="yes"/>
      <point x="724" y="281"/>
      <point x="669" y="247"/>
      <point x="500" y="212" type="curve" smooth="yes"/>
      <point x="227" y="155"/>
      <point x="94" y="53"/>
      <point x="94" y="-119" type="curve" smooth="yes"/>
      <point x="94" y="-312"/>
      <point x="260" y="-444"/>
      <point x="518" y="-444" type="curve" smooth="yes"/>
      <point x="809" y="-444"/>
      <point x="967" y="-265"/>
      <point x="967" y="-85" type="curve"/>
      <point x="762" y="-85" type="line"/>
      <point x="753" y="-234"/>
      <point x="630" y="-280"/>
      <point x="508" y="-280" type="curve" smooth="yes"/>
      <point x="378" y="-280"/>
      <point x="297" y="-224"/>
    </contour>
  </outline>
</glyph>
<glyph name="Tonefive" format="2">
  <advance width="1247"/>
  <unicode hex="01BC"/>
  <outline>
    <contour>
      <point x="390" y="1490" type="line" name="hr00"/>
      <point x="98" y="1490" type="line"/>
      <point x="98" y="1323" type="line"/>
      <point x="390" y="1323" type="line"/>
    </contour>
    <component base="five" xOffset="32"/>
  </outline>
</glyph>
<glyph name="tonefive" format="2">
  <advance width="1115"/>
  <unicode hex="01BD"/>
  <outline>
    <contour>
      <point x="390" y="471" type="line" name="hr00"/>
      <point x="427" y="525"/>
      <point x="485" y="571"/>
      <point x="595" y="571" type="curve" smooth="yes"/>
      <point x="742" y="571"/>
      <point x="816" y="486"/>
      <point x="816" y="361" type="curve" smooth="yes"/>
      <point x="816" y="240"/>
      <point x="748" y="152"/>
      <point x="590" y="152" type="curve" smooth="yes"/>
      <point x="463" y="152"/>
      <point x="369" y="217"/>
      <point x="368" y="323" type="curve"/>
      <point x="168" y="307" type="line"/>
      <point x="168" y="87"/>
      <point x="400" y="-18"/>
      <point x="590" y="-18" type="curve" smooth="yes"/>
      <point x="898" y="-18"/>
      <point x="1021" y="148"/>
      <point x="1021" y="359" type="curve" smooth="yes"/>
      <point x="1021" y="598"/>
      <point x="881" y="740"/>
      <point x="636" y="734" type="curve"/>
      <point x="560" y="731"/>
      <point x="470" y="703"/>
      <point x="425" y="673" type="curve"/>
      <point x="455" y="905" type="line"/>
      <point x="966" y="905" type="line"/>
      <point x="966" y="1082" type="line"/>
      <point x="281" y="1082" type="line"/>
      <point x="210" y="485" type="line"/>
    </contour>
    <contour>
      <point x="397" y="1082" type="line"/>
      <point x="94" y="1082" type="line"/>
      <point x="94" y="905" type="line"/>
      <point x="397" y="905" type="line"/>
    </contour>
  </outline>
</glyph>
<glyph name="glottalstopbarinv" format="2">
  <advance width="1112"/>
  <unicode hex="01BE"/>
  <outline>
    <contour>
      <point x="787" y="289" type="curve" smooth="yes"/>
      <point x="787" y="206"/>
      <point x="710" y="144"/>
      <point x="571" y="144" type="curve" smooth="yes"/>
      <point x="460" y="144"/>
      <point x="333" y="191"/>
      <point x="327" y="340" type="curve"/>
      <point x="120" y="340" type="line"/>
      <point x="120" y="158"/>
      <point x="277" y="-20"/>
      <point x="571" y="-20" type="curve" smooth="yes"/>
      <point x="825" y="-20"/>
      <point x="996" y="114"/>
      <point x="996" y="307" type="curve" smooth="yes"/>
      <point x="996" y="608"/>
      <point x="632" y="541"/>
      <point x="632" y="790" type="curve" smooth="yes"/>
      <point x="632" y="1343" type="line"/>
      <point x="422" y="1343" type="line"/>
      <point x="422" y="785" type="line" smooth="yes"/>
      <point x="422" y="452"/>
      <point x="787" y="485"/>
    </contour>
    <contour>
      <point x="829" y="1082" type="line"/>
      <point x="231" y="1082" type="line"/>
      <point x="231" y="929" type="line"/>
      <point x="829" y="929" type="line"/>
    </contour>
  </outline>
</glyph>
<glyph name="wynn" format="2">
  <advance width="1298"/>
  <unicode hex="01BF"/>
  <outline>
    <contour>
      <point x="392" y="910" type="line"/>
      <point x="374" y="1118" type="line"/>
      <point x="184" y="1118" type="line"/>
      <point x="184" y="-416" type="line"/>
      <point x="392" y="-416" type="line"/>
    </contour>
    <contour>
      <point x="341" y="679" type="line"/>
      <point x="371" y="828"/>
      <point x="453" y="960"/>
      <point x="626" y="960" type="curve" smooth="yes"/>
      <point x="821" y="960"/>
      <point x="906" y="784"/>
      <point x="906" y="578" type="curve" smooth="yes"/>
      <point x="906" y="530" type="line" smooth="yes"/>
      <point x="906" y="210"/>
      <point x="659" y="63"/>
      <point x="323" y="-15" type="curve"/>
      <point x="325" y="-181" type="line"/>
      <point x="813" y="-46"/>
      <point x="1114" y="113"/>
      <point x="1114" y="530" type="curve" smooth="yes"/>
      <point x="1114" y="578" type="line" smooth="yes"/>
      <point x="1114" y="908"/>
      <point x="966" y="1132"/>
      <point x="690" y="1132" type="curve" smooth="yes"/>
      <point x="416" y="1132"/>
      <point x="276" y="933"/>
      <point x="243" y="601" type="curve"/>
    </contour>
  </outline>
</glyph>
<glyph name="pipe" format="2">
  <advance width="546"/>
  <unicode hex="01C0"/>
  <outline>
    <contour>
      <point x="354" y="1488" type="line"/>
      <point x="192" y="1488" type="line"/>
      <point x="192" y="0" type="line"/>
      <point x="354" y="0" type="line"/>
    </contour>
  </outline>
</glyph>
<glyph name="uni01F6" format="2">
  <advance width="2290"/>
  <unicode hex="01F6"/>
  <outline>
    <contour>
      <point x="1647" y="-20" type="curve" smooth="yes"/>
      <point x="1933" y="-20"/>
      <point x="2132" y="145"/>
      <point x="2132" y="474" type="curve" smooth="yes"/>
      <point x="2132" y="1116" type="line"/>
      <point x="1942" y="1116" type="line"/>
      <point x="1942" y="474" type="line" smooth="yes"/>
      <point x="1942" y="253"/>
      <point x="1838" y="153"/>
      <point x="1647" y="153" type="curve" smooth="yes"/>
      <point x="1456" y="153"/>
      <point x="1344" y="253"/>
      <point x="1344" y="474" type="curve" smooth="yes"/>
      <point x="1344" y="1490" type="line"/>
      <point x="1152" y="1490" type="line"/>
      <point x="1152" y="830" type="line"/>
      <point x="370" y="830" type="line"/>
      <point x="370" y="1490" type="line"/>
      <point x="180" y="1490" type="line"/>
      <point x="180" y="0" type="line"/>
      <point x="370" y="0" type="line"/>
      <point x="370" y="662" type="line"/>
      <point x="1152" y="662" type="line"/>
      <point x="1152" y="474" type="line" smooth="yes"/>
      <point x="1152" y="150"/>
      <point x="1352" y="-20"/>
    </contour>
  </outline>
</glyph>
<glyph name="uni01F7" format="2">
  <advance width="1302"/>
  <unicode hex="01F7"/>
  <outline>
    <contour>
      <point x="330" y="1490" type="line"/>
      <point x="114" y="1490" type="line"/>
      <point x="114" y="-418" type="line"/>
      <point x="330" y="-418" type="line"/>
    </contour>
    <contour>
      <point x="218" y="-181" type="line"/>
      <point x="769" y="-110"/>
      <point x="1188" y="310"/>
      <point x="1188" y="829" type="curve" smooth="yes"/>
      <point x="1188" y="881" type="line" smooth="yes"/>
      <point x="1188" y="1307"/>
      <point x="952" y="1510"/>
      <point x="599" y="1510" type="curve" smooth="yes"/>
      <point x="443" y="1510"/>
      <point x="339" y="1469"/>
      <point x="260" y="1407" type="curve"/>
      <point x="260" y="1014" type="line"/>
      <point x="292" y="1210"/>
      <point x="370" y="1336"/>
      <point x="601" y="1336" type="curve" smooth="yes"/>
      <point x="844" y="1336"/>
      <point x="973" y="1197"/>
      <point x="973" y="885" type="curve" smooth="yes"/>
      <point x="973" y="829" type="line" smooth="yes"/>
      <point x="973" y="476"/>
      <point x="737" y="76"/>
      <point x="218" y="-8" type="curve"/>
    </contour>
  </outline>
</glyph>
<glyph name="uni021C" format="2">
  <advance width="1298"/>
  <unicode hex="021C"/>
  <outline>
    <contour>
      <point x="223" y="337" type="line"/>
      <point x="761" y="454"/>
      <point x="1146" y="722"/>
      <point x="1146" y="1083" type="curve" smooth="yes"/>
      <point x="1146" y="1357"/>
      <point x="935" y="1510"/>
      <point x="645" y="1510" type="curve" smooth="yes"/>
      <point x="346" y="1510"/>
      <point x="131" y="1352"/>
      <point x="130" y="1105" type="curve"/>
      <point x="346" y="1105" type="line"/>
      <point x="346" y="1241"/>
      <point x="463" y="1336"/>
      <point x="645" y="1336" type="curve" smooth="yes"/>
      <point x="829" y="1336"/>
      <point x="932" y="1237"/>
      <point x="932" y="1061" type="curve" smooth="yes"/>
      <point x="932" y="785"/>
      <point x="680" y="630"/>
      <point x="223" y="493" type="curve"/>
    </contour>
    <contour>
      <point x="797" y="642" type="line"/>
      <point x="911" y="601"/>
      <point x="952" y="505"/>
      <point x="952" y="341" type="curve" smooth="yes"/>
      <point x="952" y="-28"/>
      <point x="682" y="-172"/>
      <point x="223" y="-264" type="curve"/>
      <point x="223" y="-436" type="line"/>
      <point x="770" y="-328"/>
      <point x="1170" y="-144"/>
      <point x="1170" y="327" type="curve" smooth="yes"/>
      <point x="1170" y="570"/>
      <point x="1068" y="704"/>
      <point x="896" y="761" type="curve"/>
    </contour>
  </outline>
</glyph>
<glyph name="uni021D" format="2">
  <advance width="1113"/>
  <unicode hex="021D"/>
  <outline>
    <contour>
      <point x="221" y="206" type="line"/>
      <point x="667" y="292"/>
      <point x="961" y="517"/>
      <point x="961" y="793" type="curve" smooth="yes"/>
      <point x="961" y="1001"/>
      <point x="809" y="1132"/>
      <point x="565" y="1132" type="curve" smooth="yes"/>
      <point x="301" y="1132"/>
      <point x="134" y="994"/>
      <point x="134" y="779" type="curve"/>
      <point x="340" y="779" type="line"/>
      <point x="340" y="894"/>
      <point x="426" y="967"/>
      <point x="557" y="967" type="curve" smooth="yes"/>
      <point x="685" y="967"/>
      <point x="753" y="901"/>
      <point x="753" y="782" type="curve" smooth="yes"/>
      <point x="753" y="592"/>
      <point x="565" y="443"/>
      <point x="221" y="359" type="curve"/>
    </contour>
    <contour>
      <point x="644" y="450" type="line"/>
      <point x="724" y="416"/>
      <point x="773" y="322"/>
      <point x="773" y="191" type="curve" smooth="yes"/>
      <point x="773" y="-51"/>
      <point x="618" y="-184"/>
      <point x="221" y="-275" type="curve"/>
      <point x="221" y="-436" type="line"/>
      <point x="723" y="-368"/>
      <point x="981" y="-168"/>
      <point x="981" y="179" type="curve" smooth="yes"/>
      <point x="981" y="368"/>
      <point x="902" y="496"/>
      <point x="751" y="554" type="curve"/>
    </contour>
  </outline>
</glyph>
<glyph name="uni0220" format="2">
  <advance width="1295"/>
  <unicode hex="0220"/>
  <outline>
    <contour>
      <point x="1179" y="-416" type="line"/>
      <point x="1179" y="1021" type="line" smooth="yes"/>
      <point x="1179" y="1347"/>
      <point x="927" y="1510"/>
      <point x="651" y="1510" type="curve" smooth="yes"/>
      <point x="495" y="1510"/>
      <point x="358" y="1458"/>
      <point x="265" y="1392" type="curve"/>
      <point x="265" y="1223" type="line"/>
      <point x="362" y="1294"/>
      <point x="489" y="1338"/>
      <point x="632" y="1338" type="curve" smooth="yes"/>
      <point x="846" y="1338"/>
      <point x="969" y="1242"/>
      <point x="969" y="1021" type="curve" smooth="yes"/>
      <point x="969" y="-416" type="line"/>
    </contour>
    <contour>
      <point x="326" y="1490" type="line"/>
      <point x="120" y="1490" type="line"/>
      <point x="120" y="0" type="line"/>
      <point x="326" y="0" type="line"/>
    </contour>
  </outline>
</glyph>
<glyph name="uni0222" format="2">
  <advance width="1295"/>
  <unicode hex="0222"/>
  <outline>
    <contour>
      <point x="635" y="885" type="line" name="hr00"/>
      <point x="320" y="884"/>
      <point x="82" y="731"/>
      <point x="82" y="436" type="curve" smooth="yes"/>
      <point x="82" y="130"/>
      <point x="323" y="-20"/>
      <point x="635" y="-20" type="curve" smooth="yes"/>
      <point x="659" y="-20" type="line" smooth="yes"/>
      <point x="972" y="-20"/>
      <point x="1212" y="130"/>
      <point x="1212" y="438" type="curve" smooth="yes"/>
      <point x="1212" y="733"/>
      <point x="972" y="885"/>
      <point x="659" y="885" type="curve" smooth="yes"/>
    </contour>
    <contour>
      <point x="659" y="722" type="line"/>
      <point x="863" y="722"/>
      <point x="998" y="630"/>
      <point x="998" y="438" type="curve" smooth="yes"/>
      <point x="998" y="242"/>
      <point x="863" y="158"/>
      <point x="659" y="158" type="curve" smooth="yes"/>
      <point x="635" y="158" type="line" smooth="yes"/>
      <point x="431" y="158"/>
      <point x="297" y="242"/>
      <point x="297" y="436" type="curve" smooth="yes"/>
      <point x="297" y="630"/>
      <point x="431" y="722"/>
      <point x="635" y="722" type="curve" smooth="yes"/>
    </contour>
    <contour>
      <point x="628" y="901" type="line"/>
      <point x="449" y="901"/>
      <point x="297" y="930"/>
      <point x="297" y="1127" type="curve" smooth="yes"/>
      <point x="297" y="1251"/>
      <point x="356" y="1315"/>
      <point x="481" y="1346" type="curve"/>
      <point x="481" y="1510" type="line"/>
      <point x="259" y="1499"/>
      <point x="82" y="1379"/>
      <point x="82" y="1127" type="curve" smooth="yes"/>
      <point x="82" y="827"/>
      <point x="335" y="738"/>
      <point x="628" y="738" type="curve" smooth="yes"/>
      <point x="667" y="738" type="line" smooth="yes"/>
      <point x="959" y="738"/>
      <point x="1213" y="828"/>
      <point x="1213" y="1127" type="curve" smooth="yes"/>
      <point x="1213" y="1379"/>
      <point x="1038" y="1499"/>
      <point x="813" y="1510" type="curve"/>
      <point x="813" y="1346" type="line"/>
      <point x="935" y="1316"/>
      <point x="998" y="1254"/>
      <point x="998" y="1127" type="curve" smooth="yes"/>
      <point x="998" y="930"/>
      <point x="848" y="901"/>
      <point x="667" y="901" type="curve" smooth="yes"/>
    </contour>
  </outline>
</glyph>
<glyph name="uni0223" format="2">
  <advance width="1294"/>
  <unicode hex="0223"/>
  <outline>
    <contour>
      <point x="635" y="880" type="line"/>
      <point x="323" y="881"/>
      <point x="84" y="733"/>
      <point x="84" y="436" type="curve" smooth="yes"/>
      <point x="84" y="129"/>
      <point x="324" y="-20"/>
      <point x="635" y="-20" type="curve" smooth="yes"/>
      <point x="659" y="-20" type="line" smooth="yes"/>
      <point x="970" y="-20"/>
      <point x="1210" y="129"/>
      <point x="1210" y="438" type="curve" smooth="yes"/>
      <point x="1210" y="732"/>
      <point x="971" y="880"/>
      <point x="659" y="880" type="curve" smooth="yes"/>
    </contour>
    <contour>
      <point x="659" y="725" type="line"/>
      <point x="860" y="724"/>
      <point x="1000" y="630"/>
      <point x="1000" y="438" type="curve" smooth="yes"/>
      <point x="1000" y="242"/>
      <point x="862" y="146"/>
      <point x="659" y="146" type="curve" smooth="yes"/>
      <point x="635" y="146" type="line" smooth="yes"/>
      <point x="429" y="146"/>
      <point x="294" y="242"/>
      <point x="294" y="436" type="curve" smooth="yes"/>
      <point x="294" y="629"/>
      <point x="430" y="725"/>
      <point x="635" y="725" type="curve" smooth="yes"/>
    </contour>
    <contour>
      <point x="666" y="891" type="curve"/>
      <point x="627" y="891" type="line" smooth="yes"/>
      <point x="449" y="891"/>
      <point x="294" y="943"/>
      <point x="294" y="1144" type="curve" smooth="yes"/>
      <point x="294" y="1286"/>
      <point x="359" y="1355"/>
      <point x="481" y="1402" type="curve"/>
      <point x="481" y="1556" type="line"/>
      <point x="260" y="1548"/>
      <point x="84" y="1404"/>
      <point x="84" y="1144" type="curve" smooth="yes"/>
      <point x="84" y="843"/>
      <point x="336" y="737"/>
      <point x="627" y="737" type="curve" smooth="yes"/>
      <point x="666" y="737" type="line" smooth="yes"/>
      <point x="957" y="737"/>
      <point x="1210" y="843"/>
      <point x="1210" y="1144" type="curve" smooth="yes"/>
      <point x="1210" y="1402"/>
      <point x="1036" y="1548"/>
      <point x="813" y="1556" type="curve"/>
      <point x="813" y="1402" type="line"/>
      <point x="935" y="1355"/>
      <point x="1000" y="1286"/>
      <point x="1000" y="1144" type="curve" smooth="yes"/>
      <point x="1000" y="941"/>
      <point x="844" y="890"/>
    </contour>
  </outline>
</glyph>
<glyph name="zhook" format="2">
  <advance width="1131"/>
  <unicode hex="0225"/>
  <outline>
    <contour>
      <point x="876" y="-235" type="line"/>
      <point x="1039" y="-235" type="line"/>
      <point x="1039" y="-134" type="line" smooth="yes"/>
      <point x="1039" y="37"/>
      <point x="929" y="167"/>
      <point x="738" y="167" type="curve" smooth="yes"/>
      <point x="376" y="167" type="line"/>
      <point x="376" y="178" type="line"/>
      <point x="985" y="975" type="line"/>
      <point x="985" y="1118" type="line"/>
      <point x="146" y="1118" type="line"/>
      <point x="146" y="951" type="line"/>
      <point x="753" y="951" type="line"/>
      <point x="753" y="940" type="line"/>
      <point x="126" y="134" type="line"/>
      <point x="126" y="0" type="line"/>
      <point x="734" y="0" type="line" smooth="yes"/>
      <point x="850" y="0"/>
      <point x="876" y="-82"/>
      <point x="876" y="-176" type="curve" smooth="yes"/>
    </contour>
  </outline>
</glyph>
<glyph name="jdotless" format="2">
  <advance width="496"/>
  <unicode hex="0237"/>
  <anchor x="475" y="0" name="_right"/>
  <anchor x="191" y="-457" name="bottom"/>
  <anchor x="247" y="650" name="cross"/>
  <anchor x="248" y="1118" name="top"/>
  <outline>
    <contour>
      <point x="157" y="1118" type="line"/>
      <point x="157" y="-80" type="line"/>
      <point x="157" y="-191"/>
      <point x="111" y="-252"/>
      <point x="7" y="-252" type="curve" smooth="yes"/>
      <point x="-26" y="-252" type="line"/>
      <point x="-26" y="-418" type="line"/>
      <point x="10" y="-418" type="line" smooth="yes"/>
      <point x="227" y="-418"/>
      <point x="339" y="-293"/>
      <point x="338" y="-80" type="curve"/>
      <point x="338" y="1118" type="line"/>
    </contour>
  </outline>
</glyph>
<glyph name="uni0238" format="2">
  <advance width="1853"/>
  <unicode hex="0238"/>
  <outline>
    <contour>
      <point x="1751" y="564" type="line" smooth="yes"/>
      <point x="1751" y="907"/>
      <point x="1587" y="1132"/>
      <point x="1316" y="1132" type="curve" smooth="yes"/>
      <point x="1054" y="1132"/>
      <point x="914" y="929"/>
      <point x="883" y="586" type="curve"/>
      <point x="883" y="525" type="line"/>
      <point x="914" y="179"/>
      <point x="1056" y="-20"/>
      <point x="1310" y="-20" type="curve" smooth="yes"/>
      <point x="1584" y="-20"/>
      <point x="1750" y="216"/>
      <point x="1751" y="544" type="curve"/>
    </contour>
    <contour>
      <point x="1541" y="544" type="line" smooth="yes"/>
      <point x="1541" y="324"/>
      <point x="1470" y="152"/>
      <point x="1272" y="152" type="curve" smooth="yes"/>
      <point x="1099" y="152"/>
      <point x="1020" y="281"/>
      <point x="981" y="446" type="curve"/>
      <point x="981" y="665" type="line"/>
      <point x="1010" y="831"/>
      <point x="1099" y="960"/>
      <point x="1268" y="960" type="curve" smooth="yes"/>
      <point x="1467" y="960"/>
      <point x="1542" y="785"/>
      <point x="1541" y="564" type="curve"/>
    </contour>
    <contour>
      <point x="823" y="212" type="line"/>
      <point x="840" y="0" type="line"/>
      <point x="1031" y="0" type="line"/>
      <point x="1031" y="1490" type="line"/>
      <point x="823" y="1490" type="line"/>
    </contour>
    <contour>
      <point x="102" y="544" type="line"/>
      <point x="102" y="215"/>
      <point x="269" y="-20"/>
      <point x="541" y="-20" type="curve" smooth="yes"/>
      <point x="797" y="-20"/>
      <point x="939" y="179"/>
      <point x="968" y="525" type="curve"/>
      <point x="968" y="586" type="line"/>
      <point x="939" y="929"/>
      <point x="799" y="1132"/>
      <point x="538" y="1132" type="curve" smooth="yes"/>
      <point x="266" y="1132"/>
      <point x="102" y="908"/>
      <point x="102" y="564" type="curve" smooth="yes"/>
    </contour>
    <contour>
      <point x="310" y="564" type="line"/>
      <point x="311" y="785"/>
      <point x="386" y="960"/>
      <point x="585" y="960" type="curve" smooth="yes"/>
      <point x="754" y="960"/>
      <point x="843" y="830"/>
      <point x="870" y="665" type="curve"/>
      <point x="870" y="446" type="line"/>
      <point x="832" y="281"/>
      <point x="753" y="152"/>
      <point x="581" y="152" type="curve" smooth="yes"/>
      <point x="382" y="152"/>
      <point x="310" y="324"/>
      <point x="310" y="544" type="curve" smooth="yes"/>
    </contour>
  </outline>
</glyph>
<glyph name="uni023A" format="2">
  <advance width="1413"/>
  <unicode hex="023A"/>
  <anchor x="706" y="0" name="bottom"/>
  <anchor x="1361" y="0" name="ogonek"/>
  <anchor x="493" y="1490" name="tonos"/>
  <anchor x="706" y="1490" name="top"/>
  <outline>
    <contour>
      <point x="1144" y="1678" type="line"/>
      <point x="978" y="1678" type="line"/>
      <point x="314" y="-190" type="line"/>
      <point x="480" y="-190" type="line"/>
    </contour>
    <component base="A"/>
  </outline>
</glyph>
<glyph name="Cstroke" format="2">
  <advance width="1496"/>
  <unicode hex="023B"/>
  <anchor x="782" y="-11" name="cedilla"/>
  <anchor x="781" y="745" name="center"/>
  <anchor x="783" y="1490" name="top"/>
  <anchor x="1384" y="1021" name="topr"/>
  <outline>
    <contour>
      <point x="338" y="-190" type="line"/>
      <point x="504" y="-190" type="line"/>
      <point x="1166" y="1678" type="line"/>
      <point x="1000" y="1678" type="line"/>
    </contour>
    <component base="C"/>
  </outline>
</glyph>
<glyph name="cstroke" format="2">
  <advance width="1170"/>
  <unicode hex="023C"/>
  <anchor x="613" y="0" name="bottom"/>
  <anchor x="613" y="0" name="cedilla"/>
  <anchor x="613" y="559" name="center"/>
  <anchor x="613" y="1118" name="top"/>
  <anchor x="1066" y="823" name="topr"/>
  <outline>
    <contour>
      <point x="180.598" y="-418" type="line"/>
      <point x="319.402" y="-418" type="line"/>
      <point x="1033.402" y="1490" type="line"/>
      <point x="894.598" y="1490" type="line"/>
    </contour>
    <component base="c"/>
  </outline>
</glyph>
<glyph name="uni023F" format="2">
  <advance width="1081"/>
  <unicode hex="023F"/>
  <anchor x="553" y="0" name="bottom"/>
  <anchor x="550" y="0" name="cedilla"/>
  <anchor x="108" y="271" name="rthook"/>
  <anchor x="553" y="1118" name="top"/>
  <outline>
    <contour>
      <point x="254" y="264" type="curve"/>
      <point x="136" y="184" type="line"/>
      <point x="350" y="-186" type="line" smooth="yes"/>
      <point x="435" y="-333"/>
      <point x="515" y="-418"/>
      <point x="642" y="-418" type="curve" smooth="yes"/>
      <point x="721" y="-418"/>
      <point x="803" y="-364"/>
      <point x="846" y="-320" type="curve"/>
      <point x="780" y="-204" type="line"/>
      <point x="748" y="-233"/>
      <point x="695" y="-274"/>
      <point x="642" y="-274" type="curve" smooth="yes"/>
      <point x="564" y="-274"/>
      <point x="507" y="-186"/>
    </contour>
    <component base="s"/>
  </outline>
</glyph>
<glyph name="uni0240" format="2">
  <advance width="1131"/>
  <unicode hex="0240"/>
  <outline>
    <contour>
      <point x="126" y="0" type="line"/>
      <point x="376" y="0" type="line"/>
      <point x="376" y="178" type="line"/>
      <point x="985" y="975" type="line"/>
      <point x="985" y="1118" type="line"/>
      <point x="146" y="1118" type="line"/>
      <point x="146" y="951" type="line"/>
      <point x="753" y="951" type="line"/>
      <point x="753" y="940" type="line"/>
      <point x="126" y="134" type="line"/>
    </contour>
    <contour>
      <point x="1024" y="-418" type="curve" smooth="yes"/>
      <point x="1079" y="-418"/>
      <point x="1143" y="-401"/>
      <point x="1199" y="-370" type="curve"/>
      <point x="1136" y="-240" type="line"/>
      <point x="1099" y="-261"/>
      <point x="1073" y="-267"/>
      <point x="1032" y="-267" type="curve" smooth="yes"/>
      <point x="980" y="-267"/>
      <point x="948" y="-240"/>
      <point x="845" y="-87" type="curve" smooth="yes"/>
      <point x="711" y="112"/>
      <point x="632" y="167"/>
      <point x="426" y="167" type="curve" smooth="yes"/>
      <point x="299" y="167" type="line"/>
      <point x="299" y="0" type="line"/>
      <point x="423" y="0" type="line" smooth="yes"/>
      <point x="573" y="0"/>
      <point x="607" y="-20"/>
      <point x="712" y="-175" type="curve" smooth="yes"/>
      <point x="834" y="-355"/>
      <point x="918" y="-418"/>
    </contour>
  </outline>
</glyph>
<glyph name="uni0241" format="2">
  <advance width="1112"/>
  <unicode hex="0241"/>
  <outline>
    <contour>
      <point x="481" y="458" type="line"/>
      <point x="481" y="278" type="line"/>
      <point x="529" y="278" type="line" smooth="yes"/>
      <point x="862" y="278"/>
      <point x="1024" y="529"/>
      <point x="1024" y="819" type="curve" smooth="yes"/>
      <point x="1024" y="967" type="line" smooth="yes"/>
      <point x="1024" y="1257"/>
      <point x="862" y="1510"/>
      <point x="529" y="1510" type="curve" smooth="yes"/>
      <point x="268" y="1510"/>
      <point x="95" y="1332"/>
      <point x="88" y="1099" type="curve"/>
      <point x="290" y="1099" type="line"/>
      <point x="298" y="1235"/>
      <point x="385" y="1330"/>
      <point x="530" y="1330" type="curve" smooth="yes"/>
      <point x="751" y="1330"/>
      <point x="809" y="1143"/>
      <point x="809" y="967" type="curve" smooth="yes"/>
      <point x="809" y="819" type="line" smooth="yes"/>
      <point x="809" y="636"/>
      <point x="751" y="458"/>
      <point x="530" y="458" type="curve"/>
    </contour>
    <contour>
      <point x="648" y="458" type="line"/>
      <point x="430" y="458" type="line"/>
      <point x="430" y="0" type="line"/>
      <point x="648" y="0" type="line"/>
    </contour>
  </outline>
</glyph>
<glyph name="uni0242" format="2">
  <advance width="1113"/>
  <unicode hex="0242"/>
  <outline>
    <contour>
      <point x="140" y="701" type="curve"/>
      <point x="348" y="701" type="line"/>
      <point x="348" y="864"/>
      <point x="425" y="966"/>
      <point x="563" y="966" type="curve" smooth="yes"/>
      <point x="710" y="966"/>
      <point x="767" y="852"/>
      <point x="767" y="700" type="curve" smooth="yes"/>
      <point x="767" y="551"/>
      <point x="712" y="451"/>
      <point x="559" y="451" type="curve" smooth="yes"/>
      <point x="513" y="451" type="line"/>
      <point x="513" y="322" type="line"/>
      <point x="569" y="322" type="line" smooth="yes"/>
      <point x="863" y="322"/>
      <point x="973" y="485"/>
      <point x="973" y="710" type="curve" smooth="yes"/>
      <point x="973" y="985"/>
      <point x="817" y="1132"/>
      <point x="565" y="1132" type="curve" smooth="yes"/>
      <point x="315" y="1132"/>
      <point x="140" y="976"/>
    </contour>
    <contour>
      <point x="465" y="451" type="line"/>
      <point x="465" y="0" type="line"/>
      <point x="673" y="0" type="line"/>
      <point x="673" y="451" type="line"/>
    </contour>
  </outline>
</glyph>
<glyph name="uni0244" format="2">
  <advance width="1518"/>
  <unicode hex="0244"/>
  <anchor x="763" y="0" name="bottom"/>
  <anchor x="1344" y="507" name="ogonek"/>
  <anchor x="849" y="0" name="right"/>
  <anchor x="1154" y="1490" name="rtophorn"/>
  <anchor x="763" y="1490" name="top"/>
  <outline>
    <contour>
      <point x="1524" y="864" type="line"/>
      <point x="-6" y="864" type="line"/>
      <point x="-6" y="744" type="line"/>
      <point x="1524" y="744" type="line"/>
    </contour>
    <component base="U"/>
  </outline>
</glyph>
<glyph name="uni0245" format="2">
  <advance width="1486"/>
  <unicode hex="0245"/>
  <outline>
    <contour>
      <point x="1143" y="0" type="line"/>
      <point x="1378" y="0" type="line"/>
      <point x="840" y="1490" type="line"/>
      <point x="674" y="1490" type="line"/>
      <point x="726" y="1253" type="line"/>
    </contour>
    <contour>
      <point x="758" y="1253" type="line"/>
      <point x="812" y="1490" type="line"/>
      <point x="647" y="1490" type="line"/>
      <point x="110" y="0" type="line"/>
      <point x="347" y="0" type="line"/>
    </contour>
  </outline>
</glyph>
<glyph name="uni0246" format="2">
  <advance width="1231"/>
  <unicode hex="0246"/>
  <anchor x="639" y="0" name="bottom"/>
  <anchor x="639" y="0" name="cedilla"/>
  <anchor x="1097" y="0" name="ogonek"/>
  <anchor x="180" y="1490" name="tonos"/>
  <anchor x="639" y="1490" name="top"/>
  <outline>
    <contour>
      <point x="322" y="-190" type="line"/>
      <point x="488" y="-190" type="line"/>
      <point x="1026" y="1678" type="line"/>
      <point x="862" y="1678" type="line"/>
    </contour>
    <component base="E"/>
  </outline>
</glyph>
<glyph name="uni0247" format="2">
  <advance width="1194"/>
  <unicode hex="0247"/>
  <anchor x="603" y="0" name="bottom"/>
  <anchor x="605" y="0" name="cedilla"/>
  <anchor x="1076" y="260" name="ogonek"/>
  <anchor x="603" y="1118" name="top"/>
  <outline>
    <contour>
      <point x="134" y="-418" type="line"/>
      <point x="274" y="-418" type="line"/>
      <point x="1036" y="1490" type="line"/>
      <point x="898" y="1490" type="line"/>
    </contour>
    <component base="e"/>
  </outline>
</glyph>
<glyph name="uni024C" format="2">
  <advance width="1326"/>
  <unicode hex="024C"/>
  <anchor x="695" y="0" name="bottom"/>
  <anchor x="669" y="1490" name="top"/>
  <outline>
    <contour>
      <point x="300" y="582" type="line"/>
      <point x="300" y="744" type="line"/>
      <point x="24" y="744" type="line"/>
      <point x="24" y="582" type="line"/>
    </contour>
    <component base="R" xOffset="18"/>
  </outline>
</glyph>
<glyph name="uni024E" format="2">
  <advance width="1368"/>
  <unicode hex="024E"/>
  <anchor x="695" y="0" name="bottom"/>
  <anchor x="695" y="388" name="cross"/>
  <anchor x="790" y="0" name="ogonek"/>
  <anchor x="52" y="1490" name="tonos"/>
  <anchor x="695" y="1490" name="top"/>
  <outline>
    <contour>
      <point x="1362" y="1184" type="line"/>
      <point x="6" y="1184" type="line"/>
      <point x="6" y="1064" type="line"/>
      <point x="1362" y="1064" type="line"/>
    </contour>
    <component base="Y"/>
  </outline>
</glyph>
<glyph name="uni024F" format="2">
  <advance width="1151"/>
  <unicode hex="024F"/>
  <anchor x="856" y="0" name="bottom"/>
  <anchor x="666" y="0" name="ogonek"/>
  <anchor x="576" y="1118" name="top"/>
  <outline>
    <contour>
      <point x="1059" y="798" type="line"/>
      <point x="81" y="798" type="line"/>
      <point x="81" y="664" type="line"/>
      <point x="1059" y="664" type="line"/>
    </contour>
    <component base="y"/>
  </outline>
</glyph>
<glyph name="bhook" format="2">
  <advance width="1246"/>
  <unicode hex="0253"/>
  <anchor x="338" y="1118" name="_topr"/>
  <anchor x="666" y="0" name="bottom"/>
  <anchor x="403" y="1490" name="top"/>
  <outline>
    <contour>
      <point x="668" y="-24" type="curve" smooth="yes"/>
      <point x="948" y="-24"/>
      <point x="1142" y="201"/>
      <point x="1142" y="556" type="curve" smooth="yes"/>
      <point x="1142" y="908"/>
      <point x="948" y="1132"/>
      <point x="666" y="1132" type="curve" smooth="yes"/>
      <point x="447" y="1132"/>
      <point x="380" y="998"/>
      <point x="342" y="940" type="curve"/>
      <point x="328" y="940" type="line"/>
      <point x="328" y="1118" type="line"/>
      <point x="158" y="1118" type="line"/>
      <point x="158" y="0" type="line"/>
      <point x="322" y="0" type="line"/>
      <point x="322" y="172" type="line"/>
      <point x="342" y="172" type="line"/>
      <point x="380" y="111"/>
      <point x="453" y="-24"/>
    </contour>
    <contour>
      <point x="646" y="130" type="curve" smooth="yes"/>
      <point x="439" y="130"/>
      <point x="326" y="305"/>
      <point x="326" y="558" type="curve" smooth="yes"/>
      <point x="326" y="809"/>
      <point x="436" y="978"/>
      <point x="646" y="978" type="curve" smooth="yes"/>
      <point x="863" y="978"/>
      <point x="970" y="794"/>
      <point x="970" y="558" type="curve" smooth="yes"/>
      <point x="970" y="320"/>
      <point x="860" y="130"/>
    </contour>
    <component base="_part.top_r_hook" xOffset="6"/>
  </outline>
</glyph>
<glyph name="oopen" format="2">
  <advance width="1111"/>
  <unicode hex="0254"/>
  <anchor x="556" y="0" name="bottom"/>
  <anchor x="556" y="1118" name="top"/>
  <outline>
    <contour>
      <point x="94" y="347" type="line"/>
      <point x="104" y="152"/>
      <point x="285" y="-20"/>
      <point x="538" y="-20" type="curve" smooth="yes"/>
      <point x="848" y="-20"/>
      <point x="1017" y="232"/>
      <point x="1017" y="521" type="curve" smooth="yes"/>
      <point x="1017" y="575" type="line" smooth="yes"/>
      <point x="1017" y="879"/>
      <point x="856" y="1132"/>
      <point x="532" y="1132" type="curve" smooth="yes"/>
      <point x="266" y="1132"/>
      <point x="104" y="957"/>
      <point x="94" y="707" type="curve"/>
      <point x="289" y="707" type="line"/>
      <point x="300" y="857"/>
      <point x="377" y="966"/>
      <point x="533" y="966" type="curve" smooth="yes"/>
      <point x="742" y="966"/>
      <point x="811" y="770"/>
      <point x="811" y="575" type="curve" smooth="yes"/>
      <point x="811" y="521" type="line" smooth="yes"/>
      <point x="811" y="341"/>
      <point x="748" y="146"/>
      <point x="538" y="146" type="curve" smooth="yes"/>
      <point x="399" y="146"/>
      <point x="300" y="233"/>
      <point x="289" y="347" type="curve"/>
    </contour>
  </outline>
</glyph>
